<svg width="64" height="64" viewBox="0 0 64 64" fill="none" xmlns="http://www.w3.org/2000/svg">
<g clip-path="url(#clip0_40_909)">
<path fill-rule="evenodd" clip-rule="evenodd" d="M31.8358 61.5757C15.3047 61.5757 1.90351 48.1746 1.90351 31.6434C1.90351 15.1122 15.3047 1.71113 31.8358 1.71113C48.367 1.71113 61.7681 15.1122 61.7681 31.6434C61.7681 48.1746 48.367 61.5757 31.8358 61.5757ZM0.328125 31.6434C0.328125 14.2422 14.4346 0.135742 31.8358 0.135742C49.2371 0.135742 63.3435 14.2422 63.3435 31.6434C63.3435 49.0446 49.2371 63.1511 31.8358 63.1511C14.4346 63.1511 0.328125 49.0446 0.328125 31.6434ZM29.5414 19.6423C30.8421 18.9046 31.9554 18.2651 32.0153 18.221C32.1605 18.1141 32.2676 18.1182 32.4476 18.2372C32.53 18.2917 33.0621 18.5997 33.63 18.9217C35.5188 19.9928 36.5946 20.6038 36.9882 20.8295C37.238 20.9728 37.396 21.0927 37.4291 21.1643C37.4674 21.2468 37.4807 21.9133 37.4807 23.7339C37.4807 25.9604 37.4807 26.1704 37.5846 26.2902C37.5954 26.3026 37.6074 26.3141 37.6206 26.3268C37.6975 26.4009 38.2637 26.7461 38.879 27.0939C39.7389 27.58 40.0325 27.7262 40.1482 27.726C40.2668 27.7258 40.7538 27.4671 42.4445 26.5061C44.3528 25.4216 44.6075 25.2883 44.7463 25.3023C44.9369 25.3215 49.6573 27.9876 49.8404 28.1793C49.8489 28.1883 49.8569 28.1967 49.8643 28.2056C49.9594 28.3193 49.9586 28.5132 49.9479 31.202C49.9366 34.0368 49.9344 34.1017 49.8502 34.1814C49.8028 34.2262 48.6606 34.888 47.3118 35.6523C45.3611 36.7575 44.8286 37.0417 44.7088 37.0412C44.5915 37.0408 44.1738 36.8229 42.8157 36.0538C41.8574 35.511 41.0296 35.0203 40.9764 34.9632C40.9032 34.885 40.8895 34.8408 40.9205 34.7838C40.9431 34.7421 41.2965 34.5199 41.7059 34.2899C42.5155 33.8349 42.7297 33.6675 42.7297 33.4897C42.7297 33.3276 42.6549 33.213 42.5493 33.213C42.4991 33.213 42.1947 33.3636 41.8731 33.5477C41.5515 33.7317 40.4752 34.3433 39.4813 34.9067C38.4874 35.4701 37.6356 35.968 37.5883 36.013C37.5046 36.0925 37.5016 36.1647 37.4807 38.6334C37.4608 40.9876 37.4593 41.1587 37.3734 41.2515C37.3667 41.2588 37.3595 41.2656 37.3516 41.2729C37.2925 41.3284 36.518 41.7842 35.6307 42.2859C34.7432 42.7875 33.6447 43.4095 33.1892 43.668C32.6081 43.998 32.3204 44.138 32.224 44.138C32.2149 44.138 32.2065 44.1381 32.198 44.1379C32.0682 44.1348 31.9401 44.0608 29.1556 42.4773C27.1757 41.3514 27.0767 41.3006 27.0438 41.2222C27.0391 41.2112 27.0358 41.1997 27.0289 41.1848C26.9978 41.1176 26.9828 40.2912 26.9828 38.6503C26.9828 36.646 26.9721 36.195 26.9225 36.1009C26.8611 35.9842 26.7298 35.9068 23.2827 33.9561C22.5136 33.5208 21.8311 33.1086 21.7661 33.04C21.6671 32.9356 21.6478 32.8777 21.6478 32.685C21.6478 32.3737 21.7093 32.2615 21.967 32.1031C22.2838 31.9082 22.4062 31.9216 22.9027 32.2053C23.232 32.3934 23.412 32.5104 23.5102 32.4618C23.6393 32.3979 23.6268 32.0476 23.6268 31.1958C23.6268 30.4742 23.6099 30.0004 23.5823 29.9496C23.5578 29.9045 23.4949 29.8689 23.4425 29.8702C23.286 29.8743 20.5185 31.4805 20.4554 31.6039C20.3857 31.7402 20.3757 34.8677 20.4446 34.9943C20.4691 35.0394 20.5229 35.0762 20.5643 35.0762C20.6056 35.0762 20.9918 34.8761 21.4225 34.6315C21.9917 34.3084 22.2439 34.1874 22.3461 34.1888C22.4396 34.19 22.6526 34.286 22.9815 34.4753C23.5448 34.7994 23.5945 34.8743 23.3604 35.0448C23.1656 35.1868 20.0008 36.9776 19.8376 37.0381C19.8218 37.0441 19.8082 37.0498 19.7941 37.0539C19.6612 37.0928 19.4869 36.9902 16.9796 35.5644C15.7965 34.8916 14.756 34.3112 14.6675 34.2745C14.5701 34.2344 14.5066 34.1393 14.5066 34.034L14.5081 31.1804L14.5095 28.3531C14.5096 28.2307 14.58 28.1193 14.6906 28.0667C14.79 28.0195 15.8782 27.4077 17.1087 26.7073C19.4626 25.3674 19.5824 25.2964 19.7035 25.2942C19.7153 25.294 19.7269 25.2944 19.7406 25.2944C19.8162 25.2944 20.3163 25.5528 21.1087 26.0015C21.7957 26.3903 22.7723 26.943 23.279 27.2295C23.7858 27.516 24.2366 27.7505 24.281 27.7505C24.3899 27.7505 24.5571 27.6639 25.7351 26.9977C26.2912 26.6832 26.7945 26.3806 26.8537 26.325C26.8615 26.3178 26.8688 26.311 26.8755 26.3037C26.9613 26.2108 26.9628 26.0398 26.9828 23.6856C27.0037 21.2169 27.0066 21.1447 27.0903 21.0652C27.1377 21.0202 28.2406 20.3799 29.5414 19.6423ZM35.2503 21.4893C35.2649 21.3766 34.9985 21.2276 33.3074 20.2742C32.3946 19.7596 32.2295 19.6857 32.1027 19.7348C31.9793 19.7827 29.4989 21.1985 29.3599 21.3004C29.283 21.3569 29.22 21.4392 29.22 21.4834C29.22 21.5987 29.353 21.6848 30.7904 22.5016C31.6943 23.0152 32.1211 23.2351 32.2145 23.2357C32.3074 23.2363 32.6328 23.0752 33.2901 22.7035C34.9294 21.7764 35.1701 21.6334 35.2178 21.5575C35.2338 21.5322 35.2475 21.5115 35.2503 21.4893ZM36.1039 24.0719C36.1039 23.2151 36.09 22.884 36.0523 22.8469C36.0239 22.8189 35.9602 22.7961 35.9109 22.7961C35.8268 22.7961 33.3271 24.1937 33.0627 24.3886C33.0489 24.3987 33.0367 24.4078 33.0258 24.4182C32.9415 24.4994 32.9402 24.6668 32.9294 26.1354C32.917 27.8347 32.9277 27.9628 33.083 27.9616C33.1236 27.9613 33.5142 27.7612 33.9511 27.517C34.388 27.2727 34.786 27.073 34.8356 27.073C34.8852 27.073 35.157 27.2036 35.4396 27.3634C35.8526 27.597 35.9558 27.6742 35.9661 27.7574C35.9826 27.8904 35.9328 27.93 35.308 28.2807C35.0241 28.4401 34.2419 28.8815 33.5699 29.2615C32.7347 29.7338 32.3072 29.9524 32.219 29.9524C32.129 29.9524 31.5462 29.6443 30.2927 28.934C29.3042 28.3738 28.473 27.8888 28.4454 27.8562C28.3355 27.7257 28.4542 27.6263 29.2909 27.1499C30.1386 26.6671 30.2526 26.5725 30.2526 26.3524C30.2526 26.223 30.1746 26.099 30.0934 26.099C30.0053 26.099 29.9575 26.1253 27.3269 27.6188C26.132 28.2974 25.1108 28.901 25.0575 28.9603C25.0496 28.969 25.0423 28.977 25.0357 28.9856C24.9606 29.0816 24.9606 29.2363 24.9606 31.1384C24.9606 32.5005 24.9762 33.2426 25.006 33.307C25.031 33.361 25.1133 33.4455 25.1888 33.4948C25.3492 33.5995 27.1972 34.6508 27.4001 34.7529C27.6574 34.8822 27.7587 34.8495 28.6101 34.3621C29.4117 33.9031 31.6141 32.6539 31.9651 32.4591C32.0882 32.3908 32.1891 32.3641 32.2662 32.3792C32.3302 32.3918 32.7502 32.6108 33.1998 32.8658C33.6494 33.1209 34.6078 33.6651 35.3295 34.0754C36.3476 34.6542 36.6755 34.8213 36.7923 34.8213C36.9942 34.8211 39.3221 33.501 39.4044 33.34C39.4457 33.2593 39.4587 32.7402 39.4592 31.1544C39.4599 29.1213 39.4579 29.0721 39.3716 28.9642C39.2724 28.84 39.2601 28.8329 36.4481 27.2441C35.3242 26.6091 34.3512 26.0342 34.2862 25.9665C34.184 25.8603 34.1678 25.8088 34.1678 25.5882C34.1678 25.4475 34.1954 25.2803 34.229 25.2162C34.3013 25.0786 34.6668 24.871 34.8368 24.871C34.9031 24.871 35.1606 24.984 35.4155 25.1251C35.6681 25.2648 35.8959 25.3791 35.9217 25.3791C35.9476 25.3791 35.9991 25.3492 36.0363 25.3127C36.0945 25.2554 36.1039 25.0828 36.1039 24.0719ZM22.7664 28.5709C22.7664 28.4839 22.5581 28.3525 21.1992 27.5815C20.3854 27.1199 19.855 26.8444 19.7578 26.8328C19.6215 26.8165 19.4491 26.903 18.2347 27.5966C16.8601 28.3816 16.7 28.4837 16.7 28.5754C16.7 28.6728 16.9115 28.808 18.2483 29.5657C19.1538 30.079 19.6445 30.3335 19.728 30.3335C19.8114 30.3335 20.3047 30.078 21.2129 29.5642C22.5757 28.7933 22.7664 28.6714 22.7664 28.5709ZM47.6667 28.438C47.6372 28.4145 47.0031 28.0483 46.2576 27.6241C45.4375 27.1574 44.8429 26.8452 44.7519 26.8333C44.6186 26.816 44.4431 26.9035 43.2357 27.5891C42.4847 28.0155 41.8313 28.3977 41.7836 28.4381C41.5855 28.6068 41.6503 28.6679 42.5867 29.1966C42.9848 29.4214 43.6009 29.7706 43.9559 29.9726C44.5093 30.2876 44.6227 30.3372 44.7519 30.32C44.8423 30.3081 45.4428 29.9929 46.2576 29.5297C47.0031 29.1059 47.6372 28.7395 47.6667 28.7155C47.6964 28.6914 47.7205 28.6287 47.7205 28.5762C47.7205 28.5237 47.6964 28.4615 47.6667 28.438ZM48.581 31.6367C48.581 30.3963 48.5677 29.9563 48.5293 29.9185C48.501 29.8906 48.4477 29.8684 48.4111 29.8692C48.306 29.8713 45.602 31.4233 45.494 31.5433C45.4844 31.554 45.4757 31.5636 45.468 31.5738C45.3972 31.6672 45.3972 31.8141 45.3972 33.297C45.3972 34.7518 45.4053 34.951 45.4662 35.0111C45.5107 35.0548 45.5682 35.0689 45.6276 35.0505C45.8022 34.9964 48.3445 33.5333 48.4627 33.4188C48.4761 33.4058 48.488 33.3943 48.4985 33.3816C48.581 33.2827 48.581 33.1151 48.581 31.6367ZM35.2176 35.5949C35.1918 35.5541 34.5434 35.1655 33.7766 34.7312C33.0097 34.297 32.3436 33.9307 32.2963 33.9173C32.1765 33.8834 32.0097 33.9649 30.8334 34.6317C29.4046 35.4418 29.1736 35.5686 29.1837 35.6717C29.1861 35.6951 29.2008 35.7174 29.2169 35.7461C29.2664 35.835 32.0167 37.399 32.178 37.43C32.2738 37.4485 32.5084 37.3329 33.4152 36.8202C35.0105 35.9181 35.2674 35.7761 35.2538 35.668C35.2508 35.6444 35.2352 35.6226 35.2176 35.5949ZM36.1039 38.7257C36.1039 37.5048 36.0907 37.0702 36.0523 37.0325C36.0239 37.0046 35.961 36.9818 35.9125 36.982C35.7684 36.9825 33.0508 38.5532 32.9824 38.6755C32.9352 38.7599 32.9229 39.1067 32.9216 40.393C32.92 42.1387 32.9262 42.1881 33.1393 42.1341C33.3244 42.0873 35.8638 40.6241 35.9856 40.4942C35.9994 40.4795 36.0116 40.4665 36.0224 40.4524C36.1039 40.3457 36.1039 40.1765 36.1039 38.7257Z" fill="#51D323"/>
</g>
<defs>
<clipPath id="clip0_40_909">
<rect width="64" height="64" fill="white"/>
</clipPath>
</defs>
</svg>
