<svg width="64" height="64" viewBox="0 0 64 64" fill="none" xmlns="http://www.w3.org/2000/svg">
<g clip-path="url(#clip0_40_911)">
<path fill-rule="evenodd" clip-rule="evenodd" d="M31.51 61.5757C14.9776 61.5757 1.5755 48.1746 1.5755 31.6434C1.5755 15.1122 14.9776 1.71113 31.51 1.71113C48.0424 1.71113 61.4445 15.1122 61.4445 31.6434C61.4445 48.1746 48.0424 61.5757 31.51 61.5757ZM0 31.6434C0 14.2422 14.1075 0.135742 31.51 0.135742C48.9125 0.135742 63.02 14.2422 63.02 31.6434C63.02 49.0446 48.9125 63.1511 31.51 63.1511C14.1075 63.1511 0 49.0446 0 31.6434ZM29.1899 17.8764C29.5351 17.6335 29.8688 17.4174 29.9314 17.3961C30.0699 17.3488 30.1576 17.3447 30.2844 17.3794C30.4367 17.4212 30.5676 17.5202 30.6289 17.6401C30.6828 17.7455 30.6853 17.809 30.6853 19.0018C30.6853 20.331 30.6919 20.4056 30.8244 20.5834C30.9445 20.7445 31.0898 20.7834 31.6632 20.8082C33.452 20.8853 35.092 21.1808 36.3151 21.6462C37.1509 21.9643 37.4983 22.1301 38.139 22.5171C39.4374 23.3013 40.5428 24.4772 41.2526 25.8294C41.8435 26.955 42.1776 28.0087 42.4181 29.5053C42.5365 30.2424 42.56 30.4917 42.5214 30.6034C42.4203 30.896 42.0464 31.0553 41.7626 30.9266C41.7083 30.9021 41.5719 30.7828 41.4595 30.6616C41.0654 30.237 40.4837 29.6856 40.1342 29.4055C38.9859 28.4852 37.5076 27.8161 36.0315 27.5487C35.1516 27.3894 33.7446 27.3014 32.0937 27.3023C31.0195 27.303 30.9791 27.3089 30.8219 27.4874C30.697 27.6291 30.6854 27.762 30.6847 29.0495C30.6841 30.1643 30.6803 30.2591 30.631 30.3628C30.5059 30.626 30.1131 30.75 29.8148 30.6205C29.7102 30.5751 29.219 30.2347 27.6411 29.1136C26.6814 28.4317 26.504 28.3061 24.796 27.0969C23.8492 26.4267 22.7547 25.6506 22.3634 25.3722C21.9722 25.0939 21.5083 24.765 21.3326 24.6414C20.9883 24.3992 20.9216 24.3297 20.8736 24.1632C20.8314 24.0169 20.86 23.8759 20.9659 23.7087C20.975 23.6942 20.9827 23.6816 20.991 23.6693C21.0663 23.557 21.1867 23.475 22.8995 22.28C23.1943 22.0744 23.6623 21.747 23.9395 21.5526C24.2168 21.3582 24.6714 21.0402 24.95 20.8459C25.509 20.4558 26.1414 20.0133 26.9913 19.4171C27.2989 19.2012 27.7782 18.8657 28.0564 18.6713C28.3346 18.477 28.8446 18.1193 29.1899 17.8764ZM20.4848 32.5832C20.5174 32.4173 20.6795 32.2797 20.9124 32.2202C21.1379 32.1626 21.3297 32.2508 21.5892 32.5315C21.9261 32.896 22.7136 33.6375 23.0318 33.89C23.3494 34.1421 24.0342 34.5956 24.3408 34.7572C24.606 34.8968 24.9436 35.0341 25.4344 35.2016C26.176 35.4551 26.6634 35.5631 27.6746 35.6984C28.7245 35.8387 29.4068 35.8844 30.8297 35.9096C31.6593 35.9243 31.7893 35.9265 31.9038 35.8857C31.925 35.8781 31.9457 35.869 31.9703 35.8583C32.0607 35.8187 32.1548 35.7527 32.1921 35.7026C32.3293 35.5186 32.3355 35.4504 32.3362 34.1269C32.3367 33.0142 32.3354 32.7878 32.4479 32.6702C32.4782 32.6385 32.5168 32.6148 32.566 32.5836C32.6708 32.5174 32.7147 32.5071 32.8935 32.5071C33.0972 32.5071 33.103 32.5091 33.3223 32.6546C33.4446 32.7358 33.7816 32.969 34.0711 33.1729C34.6212 33.5606 35.2164 33.9778 36.1652 34.641C36.4754 34.8577 36.96 35.1972 37.2423 35.3952C37.5246 35.5933 37.9475 35.8898 38.1822 36.0541L39.0653 36.6726L40.1429 37.4272L41.3367 38.2633C41.6517 38.484 41.9494 38.7075 41.9983 38.76C42.1085 38.8783 42.1628 39.0553 42.1446 39.2366C42.122 39.4611 42.0922 39.4885 41.1851 40.1182C40.6718 40.4747 40.4013 40.6636 39.1529 41.5385L38.1642 42.2312C37.8925 42.4215 37.4141 42.7571 37.1012 42.977C36.4368 43.4435 35.8016 43.8888 34.9362 44.4945C34.5944 44.7338 34.0776 45.0976 33.7876 45.3032C33.4975 45.5087 33.2081 45.7014 33.1445 45.7313C32.8889 45.8516 32.5267 45.7548 32.3992 45.5321C32.3548 45.4547 32.3483 45.3116 32.3356 44.1276C32.3213 42.8093 32.3213 42.8093 32.2505 42.6911C32.2076 42.6193 32.1307 42.5455 32.0552 42.5032C31.9443 42.4411 31.8865 42.4312 31.5285 42.4125C30.3454 42.3507 29.239 42.2018 28.2243 41.9674C26.6424 41.6021 25.182 40.9411 24.0562 40.0806C23.7233 39.8262 23.0496 39.1882 22.8029 38.8936C21.5369 37.3826 20.796 35.4971 20.5127 33.0662C20.4876 32.8505 20.475 32.6331 20.4848 32.5832Z" fill="#EA405C"/>
</g>
<defs>
<clipPath id="clip0_40_911">
<rect width="63.02" height="64" fill="white"/>
</clipPath>
</defs>
</svg>
