<svg width="26" height="12" viewBox="0 0 26 12" fill="none" xmlns="http://www.w3.org/2000/svg">
<g clip-path="url(#clip0_80_822)">
<path d="M11.1828 1.98528C10.6111 1.35477 9.89085 0.85073 9.07597 0.510896C8.30241 0.192625 7.46684 0.0197398 6.61883 0.00249576C5.68138 -0.0252869 4.7474 0.119958 3.87267 0.429551C3.0868 0.711362 2.37323 1.13892 1.7769 1.68531C1.19376 2.22637 0.742799 2.87446 0.453853 3.58679C-0.151284 5.14219 -0.151284 6.8408 0.453853 8.3963C0.740694 9.11398 1.19177 9.76747 1.7769 10.313C2.37262 10.8601 3.08635 11.2876 3.87267 11.5687C4.7474 11.8783 5.68138 12.0236 6.61883 11.9958C7.46684 11.9786 8.30241 11.8057 9.07597 11.4874C9.89094 11.1476 10.6112 10.6436 11.1828 10.013L9.74301 8.99612C9.4172 9.43875 8.98327 9.80595 8.47556 10.0689C7.91163 10.3664 7.26971 10.5175 6.61883 10.5062C5.94743 10.5331 5.2777 10.4254 4.65649 10.1909C4.09533 9.9869 3.58764 9.67678 3.16667 9.28087C2.74864 8.86052 2.43061 8.36546 2.23275 7.82679C1.80612 6.64652 1.80612 5.37207 2.23275 4.1918C2.43146 3.65505 2.74942 3.16171 3.16667 2.7428C3.5803 2.3336 4.08435 2.00952 4.64537 1.79208C5.26669 1.55787 5.93634 1.45032 6.60772 1.47687C7.25858 1.46552 7.90051 1.61668 8.46444 1.91409C8.97206 2.17714 9.4059 2.54436 9.73189 2.98683L11.1717 1.97002L11.1828 1.98528Z" fill="#E2E4EB"/>
<path d="M13.1406 11.9991H15.5689V2.7959H15.6081L22.3567 11.9991H25.4418V-0.000854492H23.0105V8.91375H22.9743L16.3462 -0.000854492H13.1406V11.9991Z" fill="#00C26F"/>
</g>
<defs>
<clipPath id="clip0_80_822">
<rect width="26" height="12" fill="white"/>
</clipPath>
</defs>
</svg>
