<svg width="64" height="64" viewBox="0 0 64 64" fill="none" xmlns="http://www.w3.org/2000/svg">
<g clip-path="url(#clip0_40_823)">
<path fill-rule="evenodd" clip-rule="evenodd" d="M1.5755 31.6434C1.5755 48.1746 14.9776 61.5757 31.51 61.5757C48.0424 61.5757 61.4445 48.1746 61.4445 31.6434C61.4445 15.1122 48.0424 1.71113 31.51 1.71113C14.9776 1.71113 1.5755 15.1122 1.5755 31.6434ZM31.51 0.135742C14.1075 0.135742 0 14.2422 0 31.6434C0 49.0446 14.1075 63.1511 31.51 63.1511C48.9125 63.1511 63.02 49.0446 63.02 31.6434C63.02 14.2422 48.9125 0.135742 31.51 0.135742ZM42.3881 22.4128C42.851 22.4128 43.2401 22.7765 43.2909 23.255C43.3152 23.4748 43.8254 28.6597 40.0056 31.2811C39.8505 31.386 39.6772 31.4365 39.5052 31.4365C39.2107 31.4365 38.9211 31.2874 38.7465 31.0109C38.4702 30.5739 38.5866 29.9868 39.0047 29.6989C41.0963 28.2644 41.4599 25.6492 41.501 24.307H39.2337C38.7647 28.2632 37.2535 34.5669 32.4146 35.2677V37.4826H35.4369C35.6999 37.4826 35.9326 37.6593 36.0138 37.9208L36.8572 40.6685H38.4714C38.9731 40.6685 39.3803 41.0915 39.3803 41.6156C39.3803 42.1384 38.9731 42.5626 38.4714 42.5626H24.723C24.2213 42.5626 23.8142 42.1384 23.8142 41.6156C23.8142 41.0915 24.2213 40.6685 24.723 40.6685H26.3372L27.1819 37.9208C27.2619 37.6593 27.4945 37.4826 27.7587 37.4826H30.5968V35.2652C25.7713 34.5542 24.259 28.2581 23.7875 24.307H21.519C21.5589 25.6492 21.9237 28.2644 24.0153 29.6989C24.4334 29.9868 24.5497 30.5739 24.2747 31.0109C24.1002 31.2874 23.8094 31.4365 23.5148 31.4365C23.3428 31.4365 23.1695 31.386 23.0156 31.2811C19.1946 28.6597 19.7048 23.4748 19.729 23.255C19.7799 22.7765 20.169 22.4128 20.6319 22.4128H23.6178C23.5755 21.7069 23.5718 21.2359 23.5718 21.1387C23.5718 20.9707 23.636 20.8103 23.75 20.6917C23.8626 20.5729 24.0165 20.5072 24.1777 20.5072H38.8423C39.1767 20.5072 39.4482 20.7888 39.4482 21.1387C39.4482 21.2359 39.4445 21.7069 39.4034 22.4128H42.3881Z" fill="#1785E5"/>
</g>
<defs>
<clipPath id="clip0_40_823">
<rect width="63.02" height="64" fill="white"/>
</clipPath>
</defs>
</svg>
