<svg width="64" height="64" viewBox="0 0 64 64" fill="none" xmlns="http://www.w3.org/2000/svg">
<g clip-path="url(#clip0_40_914)">
<path fill-rule="evenodd" clip-rule="evenodd" d="M32.1639 61.5757C15.6328 61.5757 2.23164 48.1746 2.23164 31.6434C2.23164 15.1122 15.6328 1.71113 32.1639 1.71113C48.6951 1.71113 62.0962 15.1122 62.0962 31.6434C62.0962 48.1746 48.6951 61.5757 32.1639 61.5757ZM0.65625 31.6434C0.65625 14.2422 14.7627 0.135742 32.1639 0.135742C49.5651 0.135742 63.6716 14.2422 63.6716 31.6434C63.6716 49.0446 49.5651 63.1511 32.1639 63.1511C14.7627 63.1511 0.65625 49.0446 0.65625 31.6434ZM19.5608 25.8081C19.5608 25.0177 19.7619 24.8915 25.9609 21.7905C30.6488 19.4453 31.7431 18.9375 32.1193 18.932C32.5092 18.9262 33.4235 19.3489 38.3043 21.7908C41.7578 23.5188 44.1703 24.789 44.3811 24.9905C44.6588 25.2558 44.7308 25.4111 44.7308 25.7448C44.7308 26.4143 44.4378 26.6969 42.93 27.4819C41.2722 28.345 41.1539 28.4304 41.1994 28.7323C41.2267 28.913 41.571 29.1415 42.687 29.7198C43.4857 30.1336 44.2306 30.553 44.3422 30.6518C44.6838 30.9537 44.8537 31.4767 44.7229 31.8228C44.5229 32.3513 44.1734 32.6144 42.6601 33.3753C40.6666 34.3778 40.6668 34.3796 42.9021 35.5622C44.4242 36.3673 44.7294 36.6579 44.7302 37.3019C44.7306 37.6547 44.6635 37.803 44.3811 38.0729C44.1703 38.2742 41.7578 39.5446 38.3043 41.2725C33.6506 43.6008 32.4954 44.138 32.1426 44.138C31.7901 44.138 30.6314 43.6002 25.9843 41.2793C19.7596 38.1706 19.5608 38.0461 19.5608 37.2552C19.5608 36.6391 19.9287 36.3138 21.5721 35.4768C23.004 34.7474 23.2749 34.4998 23.0012 34.1694C22.9313 34.0851 22.2286 33.6747 21.4396 33.2575C19.8674 32.4264 19.5608 32.1448 19.5608 31.5317C19.5608 30.9203 19.8603 30.6455 21.4341 29.8125C22.2236 29.3947 22.9277 28.9826 22.9989 28.8968C23.275 28.5635 23.0071 28.3173 21.5721 27.5865C19.9287 26.7495 19.5608 26.4243 19.5608 25.8081ZM32.0273 32.6846C31.8142 32.6568 30.513 32.0708 29.1357 31.3824C27.7585 30.6942 26.5248 30.131 26.3943 30.131C26.058 30.131 24.0159 31.1512 23.9364 31.3591C23.8998 31.454 23.8994 31.6078 23.9349 31.7008C24.0082 31.8921 31.8469 35.8415 32.153 35.8415C32.4598 35.8415 40.2828 31.8937 40.3562 31.7018C40.3922 31.6082 40.3918 31.454 40.3552 31.3591C40.2754 31.1503 38.2329 30.131 37.895 30.131C37.7631 30.131 36.476 30.7169 35.035 31.433C32.7986 32.5445 32.3579 32.7279 32.0273 32.6846ZM32.2533 38.3882C31.8036 38.4373 31.5862 38.3488 29.189 37.1413C27.7699 36.4264 26.5304 35.8415 26.4348 35.8415C26.1676 35.8415 24.0505 36.9491 23.9293 37.1524C23.8535 37.2793 23.8655 37.3841 23.9698 37.5104C24.1831 37.7677 31.8435 41.5521 32.1513 41.5521C32.455 41.5521 40.1143 37.7607 40.3255 37.5058C40.5483 37.2367 40.35 37.0251 39.3992 36.5168C38.7729 36.1821 38.4436 35.9736 38.0949 35.9336C37.5639 35.8728 36.9881 36.2031 35.2501 37.0749C33.5292 37.9382 32.5848 38.3519 32.2533 38.3882Z" fill="#16BFC9"/>
</g>
<defs>
<clipPath id="clip0_40_914">
<rect width="64" height="64" fill="white"/>
</clipPath>
</defs>
</svg>
