<svg width="64" height="64" viewBox="0 0 64 64" fill="none" xmlns="http://www.w3.org/2000/svg">
<g clip-path="url(#clip0_40_921)">
<path fill-rule="evenodd" clip-rule="evenodd" d="M31.8358 61.5757C15.3047 61.5757 1.90351 48.1746 1.90351 31.6434C1.90351 15.1122 15.3047 1.71113 31.8358 1.71113C48.367 1.71113 61.7681 15.1122 61.7681 31.6434C61.7681 48.1746 48.367 61.5757 31.8358 61.5757ZM0.328125 31.6434C0.328125 14.2422 14.4346 0.135742 31.8358 0.135742C49.2371 0.135742 63.3435 14.2422 63.3435 31.6434C63.3435 49.0446 49.2371 63.1511 31.8358 63.1511C14.4346 63.1511 0.328125 49.0446 0.328125 31.6434ZM25.6616 24.1444C25.7232 24.2592 25.8324 24.3414 25.9602 24.3676C29.8046 25.1559 33.6902 25.1673 37.536 24.402C37.6767 24.374 37.7943 24.2786 37.8519 24.1477L39.8366 19.6324C39.9428 19.3879 39.9103 19.1066 39.7509 18.8944C39.5901 18.6809 39.3274 18.5704 39.0647 18.6043C38.4419 18.6868 36.7225 18.9018 36.2547 18.9239C34.1974 19.0447 32.3319 18.4261 30.7558 17.8073C28.5716 16.9737 26.501 17.2962 24.5868 18.7751C24.0142 19.2288 23.7855 19.4277 23.7855 19.4277C23.5257 19.6531 23.4564 20.0287 23.6187 20.3307L25.6616 24.1444ZM32.9427 39.2146V39.4415C32.9427 40.0514 32.4467 40.5463 31.8358 40.5463C31.2248 40.5463 30.7289 40.0514 30.7289 39.4415V39.2353H29.8153C29.2044 39.2353 28.7085 38.7404 28.7085 38.1305C28.7085 37.5207 29.2044 37.0257 29.8153 37.0257H31.765C31.7768 37.0251 31.7876 37.0217 31.7985 37.0185C31.8105 37.0148 31.8226 37.0111 31.8358 37.0111C31.849 37.0111 31.861 37.0147 31.873 37.0184C31.8838 37.0217 31.8948 37.0251 31.9067 37.0257H32.736C32.9928 37.0257 33.2009 36.8151 33.2009 36.5559C33.2009 36.2952 32.9928 36.0844 32.736 36.0844H30.9385C29.4612 36.0844 28.2585 34.8869 28.2585 33.4168C28.2585 32.0115 29.3505 30.867 30.7289 30.758V30.515C30.7289 29.9051 31.2248 29.4101 31.8358 29.4101C32.4467 29.4101 32.9427 29.9051 32.9427 30.515V30.7374H33.8592C34.4701 30.7374 34.966 31.2323 34.966 31.8421C34.966 32.452 34.4701 32.9469 33.8592 32.9469H31.9067C31.8949 32.9476 31.884 32.9506 31.8733 32.9536C31.8612 32.9569 31.8491 32.9602 31.8358 32.9602C31.8225 32.9602 31.8105 32.9569 31.7984 32.9536C31.7876 32.9506 31.7767 32.9476 31.765 32.9469H30.9385C30.6817 32.9469 30.4721 33.1576 30.4721 33.4168C30.4721 33.6731 30.6773 33.8749 30.9385 33.8749H32.736C34.2133 33.8749 35.4147 35.0769 35.4147 36.5559C35.4147 37.9626 34.3225 39.1071 32.9427 39.2146ZM40.3055 30.0642C39.6461 28.9676 38.951 27.8797 38.2569 26.7973C38.1584 26.6435 37.9752 26.5664 37.7957 26.6011C35.816 26.9842 33.8273 27.1874 31.8358 27.1874C29.847 27.1874 27.8595 26.9842 25.881 26.6022C25.7019 26.5676 25.5193 26.6444 25.4205 26.7976C24.7237 27.8786 24.0272 28.9631 23.3675 30.0627C21.6378 32.9233 19.9111 36.2745 21.3353 39.8201C23.2952 44.6959 29.3224 45.3116 31.8446 45.3499C34.3476 45.3116 40.3764 44.6973 42.3363 39.8201C43.7604 36.2745 42.0337 32.9233 40.3055 30.0642Z" fill="#A651D7"/>
</g>
<defs>
<clipPath id="clip0_40_921">
<rect width="64" height="64" fill="white"/>
</clipPath>
</defs>
</svg>
