<svg width="20" height="20" viewBox="0 0 20 20" fill="none" xmlns="http://www.w3.org/2000/svg">
<g clip-path="url(#clip0_1632_2362)">
<path d="M10 0C4.47681 0 0 4.47681 0 10C0 15.5232 4.47681 20 10 20C15.5232 20 20 15.5232 20 10C20 4.47681 15.5232 0 10 0ZM7.60923 15.382L7.02442 17.1701L3.6052 13.3542L8.61752 12.3011L8.10217 13.8763C8.18732 13.9077 8.27246 13.9391 8.35985 13.9659C11.322 14.9361 14.4656 13.827 16.2133 11.443C14.8084 14.7524 11.089 16.4956 7.60923 15.382ZM11.4049 7.88259L11.7791 6.27381C11.6917 6.24916 11.6043 6.22675 11.5147 6.20659C8.4786 5.50078 5.44477 6.88102 3.91441 9.41071C5.02353 5.99373 8.57495 3.93009 12.1376 4.73224L12.5655 2.89491L16.3052 6.39256L11.4049 7.88259Z" fill="#29ABE2"/>
</g>
<defs>
<clipPath id="clip0_1632_2362">
<rect width="20" height="20" fill="white"/>
</clipPath>
</defs>
</svg>
