<svg width="48" height="48" viewBox="0 0 48 48" fill="none" xmlns="http://www.w3.org/2000/svg">
<rect width="48" height="48" rx="24" fill="#222222"/>
<g clip-path="url(#clip0_107_2171)">
<mask id="mask0_107_2171" style="mask-type:luminance" maskUnits="userSpaceOnUse" x="6" y="6" width="36" height="36">
<path d="M6 6H42V42H6V6Z" fill="white"/>
</mask>
<g mask="url(#mask0_107_2171)">
<path d="M24 42C33.9405 42 42 33.9405 42 24C42 14.0595 33.9405 6 24 6C14.0595 6 6 14.0595 6 24C6 33.9405 14.0595 42 24 42Z" fill="#F0F0F0"/>
<path d="M9.71964 13.041C8.28586 14.9056 7.23287 17.034 6.62064 19.305H15.9851L9.71964 13.041ZM41.3801 19.305C40.767 17.0338 39.713 14.9054 38.2781 13.041L32.0156 19.305H41.3801ZM6.61914 28.695C7.23236 30.9662 8.28636 33.0946 9.72114 34.959L15.9836 28.695H6.61914ZM34.9586 9.72001C33.094 8.28626 30.9656 7.23328 28.6946 6.62101V15.9855L34.9586 9.72301V9.72001ZM13.0406 38.28C14.9051 39.7143 17.0335 40.7678 19.3046 41.3805V32.016L13.0406 38.2785V38.28ZM19.3046 6.61951C17.0334 7.23268 14.905 8.2867 13.0406 9.72151L19.3046 15.984V6.61951ZM28.6946 41.3805C30.9659 40.7673 33.0943 39.7133 34.9586 38.2785L28.6946 32.016V41.3805ZM32.0156 28.695L38.2781 34.959C39.713 33.0947 40.767 30.9662 41.3801 28.695H32.0156Z" fill="#0052B4"/>
<path d="M41.8462 21.6522H26.3467V6.15275C24.7883 5.94982 23.2101 5.94982 21.6517 6.15275V21.6522H6.1522C5.94927 23.2107 5.94927 24.7888 6.1522 26.3472H21.6517V41.8467C23.2101 42.0497 24.7883 42.0497 26.3467 41.8467V26.3472H41.8462C42.0491 24.7888 42.0491 23.2107 41.8462 21.6522Z" fill="#D80027"/>
<path d="M28.6944 28.695L36.7269 36.7275C37.0974 36.3585 37.4499 35.973 37.7859 35.5725L30.9084 28.695H28.6944ZM19.3044 28.695L11.2719 36.7275C11.6409 37.098 12.0264 37.4505 12.4269 37.7865L19.3044 30.909V28.695ZM19.3044 19.305L11.2719 11.2725C10.9023 11.642 10.549 12.0273 10.2129 12.4275L17.0904 19.305H19.3044ZM28.6944 19.305L36.7269 11.2725C36.3574 10.9029 35.9721 10.5496 35.5719 10.2135L28.6944 17.091V19.305Z" fill="#D80027"/>
</g>
</g>
<defs>
<clipPath id="clip0_107_2171">
<rect width="36" height="36" fill="white" transform="translate(6 6)"/>
</clipPath>
</defs>
</svg>
