<svg width="14" height="14" viewBox="0 0 14 14" fill="none" xmlns="http://www.w3.org/2000/svg">
<path d="M7.48058 10.3924C7.35113 10.5106 7.19256 10.5697 7.00485 10.5697C6.81715 10.5697 6.65534 10.5106 6.51942 10.3924C6.38997 10.2683 6.32524 10.1206 6.32524 9.94917L6.32524 8.21158C6.32524 8.04019 6.38997 7.89539 6.51942 7.77719C6.65534 7.65307 6.81715 7.59102 7.00485 7.59102C7.59385 7.59102 8.09547 7.39894 8.50971 7.01478C8.92395 6.63061 9.13107 6.16962 9.13107 5.6318C9.13107 5.09397 8.92395 4.63593 8.50971 4.25768C8.09547 3.87943 7.59385 3.69031 7.00485 3.69031C6.41586 3.69031 5.91424 3.87943 5.5 4.25768C5.08576 4.63593 4.87864 5.09397 4.87864 5.6318C4.87864 5.80319 4.81068 5.9539 4.67476 6.08392C4.53883 6.20804 4.38026 6.27009 4.19903 6.27009C4.01133 6.27009 3.84628 6.20804 3.70388 6.08392C3.56796 5.9539 3.5 5.80319 3.5 5.6318C3.5 4.75118 3.84304 4.00059 4.52913 3.38002C5.21521 2.75355 6.04045 2.44031 7.00485 2.44031C7.96926 2.44031 8.79126 2.75355 9.47087 3.38002C10.157 4.00059 10.5 4.75118 10.5 5.6318C10.5 6.40012 10.2314 7.07979 9.69417 7.6708C9.15696 8.25591 8.48382 8.62234 7.67476 8.77009L7.67476 9.94917C7.67476 10.1206 7.61003 10.2683 7.48058 10.3924ZM7.48058 12.263C7.35113 12.3812 7.19256 12.4403 7.00485 12.4403C6.81715 12.4403 6.65534 12.3812 6.51942 12.263C6.38997 12.1389 6.32524 11.9911 6.32524 11.8197C6.32524 11.6483 6.38997 11.5035 6.51942 11.3853C6.65534 11.2671 6.81715 11.208 7.00485 11.208C7.19256 11.208 7.35113 11.2671 7.48058 11.3853C7.61003 11.5035 7.67476 11.6483 7.67476 11.8197C7.67476 11.9911 7.61003 12.1389 7.48058 12.263Z" fill="#E2E4EB"/>
</svg>
