<svg width="25" height="25" viewBox="0 0 25 25" fill="none" xmlns="http://www.w3.org/2000/svg">
<path d="M16.8875 23.0959C10.8058 23.4557 4.3417 18.5841 2.45153 12.2085C1.56416 9.22936 1.83831 6.44454 2.99982 4.29295C3.3894 3.57336 3.87276 2.92572 4.44992 2.36444L2.51646 4.25697C0.222281 6.5021 -0.657875 10.1217 0.525285 14.0938C2.41546 20.4694 8.87955 25.3411 14.9613 24.9813C16.6783 24.8805 18.1861 24.3696 19.4126 23.5493C19.8238 23.2758 20.2062 22.9664 20.5524 22.6282L22.4859 20.7357C21.0935 22.0957 19.1889 22.952 16.8947 23.0887L16.8875 23.0959Z" fill="url(#paint0_radial_80_689)"/>
<path d="M10.0399 0.0186882C16.1217 -0.341109 22.5858 4.53773 24.4759 10.9061C26.3661 17.2745 22.9681 22.7363 16.8864 23.0889C10.8047 23.4487 4.34056 18.577 2.45039 12.2014C0.560218 5.82581 3.9582 0.378485 10.0399 0.0186882Z" fill="url(#paint1_linear_80_689)"/>
<path d="M10.0791 0.677734C15.8163 0.338427 22.0285 4.98156 23.8428 11.0938C24.7426 14.1254 24.369 16.8829 23.1104 18.9043C21.8566 20.9177 19.6871 22.265 16.8486 22.4297H16.8477C11.1101 22.7691 4.89814 18.1327 3.08398 12.0137C2.18401 8.97802 2.55788 6.22249 3.81641 4.20312C5.07011 2.19172 7.23966 0.845716 10.0791 0.677734Z" stroke="url(#paint2_linear_80_689)" stroke-width="1.3209"/>
<path d="M10.0488 0.170898C16.0509 -0.184188 22.4574 4.64004 24.3301 10.9492C25.2647 14.0982 24.888 17.0098 23.541 19.1729C22.1952 21.3339 19.8719 22.7628 16.8779 22.9365H16.877C10.8749 23.2914 4.4693 18.4743 2.59668 12.1582C1.66201 9.00555 2.03787 6.09573 3.38477 3.93457C4.73053 1.77523 7.0545 0.348074 10.0488 0.170898Z" stroke="url(#paint3_linear_80_689)" stroke-width="0.305103"/>
<path d="M14.6398 14.5007C12.555 14.623 10.6472 15.0783 8.94391 15.8123C8.73951 15.9006 8.6305 15.9482 8.5828 16.0365C8.56236 16.0773 8.54874 16.1249 8.54874 16.1792C8.54874 16.2948 8.61006 16.4171 8.73951 16.6686C8.89622 16.9744 8.97798 17.1307 9.0938 17.2122C9.14831 17.253 9.20282 17.2734 9.26414 17.2938C9.29139 17.3006 9.32545 17.3006 9.35952 17.3006C9.46853 17.3006 9.59117 17.2394 9.79557 17.1511C11.3763 16.4783 13.1409 16.0569 15.0623 15.9482C16.9836 15.8395 18.9322 16.0297 20.8536 16.4987C21.1057 16.5598 21.2556 16.5938 21.3646 16.587C21.3986 16.587 21.4259 16.5802 21.4531 16.5666C21.5008 16.5462 21.5417 16.5122 21.569 16.4715C21.6371 16.3763 21.6235 16.22 21.5962 15.9074C21.5758 15.6492 21.5622 15.52 21.494 15.4113C21.46 15.3637 21.4191 15.3162 21.3782 15.2754C21.276 15.1871 21.1534 15.1599 20.9013 15.0987C18.83 14.589 16.7179 14.3715 14.633 14.4939M10.2793 13.556C10.2384 13.556 10.2044 13.556 10.1839 13.5289C10.1294 13.4745 10.1499 13.3929 10.1976 13.2162L10.4565 12.0949C10.4769 11.9998 10.4905 11.9522 10.5314 11.9386C10.5314 11.9386 10.5382 11.9386 10.545 11.9386C10.5859 11.9386 10.6336 11.9658 10.7222 12.0202L12.0644 12.7881C12.2892 12.9172 12.3983 12.9784 12.3983 13.0464C12.3983 13.1143 12.2961 13.1347 12.078 13.1687C11.4989 13.2706 10.9743 13.3861 10.4973 13.5085C10.402 13.5357 10.3338 13.5492 10.2861 13.556M18.2986 13.0803C18.2509 13.0803 18.1691 13.0803 18.0669 13.0599C17.5423 12.9988 16.9564 12.9444 16.3432 12.9172C16.1115 12.9036 15.9957 12.9036 15.9616 12.8357C15.9207 12.7677 15.9957 12.693 16.1319 12.5435L16.9768 11.6464C17.0313 11.5852 17.0654 11.5513 17.0994 11.5513H17.1131C17.1608 11.5581 17.1948 11.6056 17.2766 11.694L18.1828 12.7405C18.3258 12.9036 18.394 12.9852 18.3735 13.0396C18.3667 13.0667 18.3395 13.0735 18.2986 13.0803ZM8.54192 14.1405C8.54192 14.1405 8.50786 14.1405 8.49423 14.1337C8.45335 14.1133 8.4261 14.0657 8.37841 13.9638L6.20496 9.78433C6.08913 9.56007 6.03463 9.45133 6.07551 9.41056C6.08232 9.40376 6.09595 9.39697 6.10957 9.39697C6.16408 9.39697 6.27309 9.45133 6.44343 9.55327L9.35271 11.2251C9.43447 11.2726 9.47535 11.2998 9.49579 11.3338C9.51623 11.3746 9.50941 11.4153 9.48897 11.4901L8.91666 13.9298C8.90984 13.9706 8.90303 13.9842 8.8894 14.0046C8.87578 14.0182 8.86215 14.025 8.82127 14.0385C8.76676 14.0589 8.71226 14.0793 8.65775 14.0997C8.60324 14.1201 8.56918 14.1337 8.53511 14.1405M20.3153 13.4473C20.3153 13.4473 20.2404 13.4405 20.1722 13.4269C20.1109 13.4133 20.0428 13.3997 19.9815 13.3861C19.9406 13.3793 19.9201 13.3726 19.8997 13.359C19.8793 13.3454 19.8656 13.3318 19.8316 13.291L17.8557 11.0008C17.7876 10.926 17.7603 10.8853 17.7535 10.8513C17.7535 10.8105 17.774 10.7833 17.8285 10.729L19.6612 8.77854C19.7703 8.66301 19.8384 8.58826 19.8929 8.58826C19.9065 8.58826 19.9201 8.58826 19.9338 8.59505C20.0019 8.62903 20.0087 8.74456 20.0292 8.97562L20.3698 13.2638C20.3766 13.3658 20.3835 13.4133 20.3562 13.4405C20.3426 13.4473 20.3289 13.4541 20.3153 13.4541M13.4543 12.5095C13.4066 12.5095 13.3249 12.4687 13.1886 12.3872L10.8925 11.0688C10.8108 11.0212 10.7699 10.994 10.7494 10.96C10.729 10.926 10.7426 10.8853 10.7562 10.8037L11.5943 7.21549C11.6556 6.95045 11.6897 6.81453 11.7578 6.80774C11.7578 6.80774 11.7646 6.80774 11.7714 6.80774C11.8532 6.82133 11.8941 6.98443 11.9895 7.29704L13.4475 12.2105C13.502 12.3872 13.5293 12.4755 13.4816 12.5095C13.4748 12.5095 13.4611 12.5163 13.4543 12.5163M14.6058 12.4483C14.6058 12.4483 14.5853 12.4483 14.5717 12.4483C14.5104 12.4211 14.4831 12.3328 14.4286 12.1561L12.9706 7.24267C12.8752 6.93006 12.8275 6.77376 12.8956 6.74658C12.8956 6.74658 12.9024 6.74658 12.9093 6.74658C12.9774 6.74658 13.0932 6.8757 13.3044 7.12035L16.2069 10.4911C16.275 10.5659 16.3023 10.5998 16.3091 10.6406C16.3159 10.6814 16.2887 10.7086 16.2341 10.7629L14.7897 12.3056C14.7012 12.4007 14.6535 12.4551 14.6058 12.4551M11.6079 4.33404C11.1514 4.36122 11.0152 4.93887 10.7426 6.10097L9.78195 10.2125C9.76151 10.3076 9.74788 10.3552 9.707 10.3688C9.707 10.3688 9.70019 10.3688 9.69337 10.3688C9.65249 10.3688 9.6048 10.3416 9.51623 10.2872L7.79246 9.29503C6.38211 8.48632 5.54407 8.00381 5.08758 8.031C4.97856 8.031 4.88999 8.07177 4.82186 8.13973C4.46075 8.48632 4.92406 9.37658 5.85748 11.1571L7.69026 14.6774C7.90147 15.0851 8.01049 15.2958 8.18082 15.3705C8.23533 15.3977 8.29665 15.4045 8.35797 15.4045C8.48742 15.3977 8.65094 15.3298 8.89622 15.2346C10.6132 14.5279 12.5005 14.1133 14.4763 13.9978C16.4522 13.8822 18.5643 14.0725 20.5879 14.5414C20.8808 14.6094 21.0716 14.6502 21.2079 14.6434C21.2692 14.6434 21.3237 14.623 21.3646 14.589C21.4872 14.4939 21.4668 14.2832 21.4327 13.8619L21.1465 10.2532C21.0035 8.42516 20.9285 7.51451 20.3835 7.22229C20.2813 7.16792 20.1722 7.14074 20.0632 7.14753C19.6067 7.17472 19.0753 7.73877 18.1896 8.6834L17.1063 9.8387C17.0517 9.89986 17.0177 9.93384 16.9768 9.93384C16.9768 9.93384 16.97 9.93384 16.9632 9.93384C16.9155 9.92704 16.8814 9.87947 16.7997 9.79113L13.4748 5.93787C12.5345 4.85053 12.0644 4.30686 11.6079 4.33404Z" fill="#BBEB00"/>
<defs>
<radialGradient id="paint0_radial_80_689" cx="0" cy="0" r="1" gradientTransform="matrix(-8.1254 6.73961 -9.47859 -11.3812 5.47496 17.4238)" gradientUnits="userSpaceOnUse">
<stop stop-color="white"/>
<stop offset="0.740941" stop-color="#222325"/>
<stop offset="1" stop-color="#3B3A39"/>
</radialGradient>
<linearGradient id="paint1_linear_80_689" x1="18.338" y1="23.0953" x2="8.2801" y2="-0.482112" gradientUnits="userSpaceOnUse">
<stop stop-color="#40413F"/>
<stop offset="1" stop-color="#222221"/>
</linearGradient>
<linearGradient id="paint2_linear_80_689" x1="20.5766" y1="4.4643" x2="5.39889" y2="20.1202" gradientUnits="userSpaceOnUse">
<stop offset="0.401522" stop-color="#101010"/>
<stop offset="1" stop-color="#101010" stop-opacity="0"/>
</linearGradient>
<linearGradient id="paint3_linear_80_689" x1="4.62681" y1="16.6118" x2="22.5145" y2="1.57525" gradientUnits="userSpaceOnUse">
<stop stop-color="#B3C1C5"/>
<stop offset="1" stop-color="#3D3C42"/>
</linearGradient>
</defs>
</svg>
