<svg width="206" height="30" viewBox="0 0 206 30" fill="none" xmlns="http://www.w3.org/2000/svg">
<path d="M63.25 6.72656L0 30L43.1436 8.43945L27.4541 0L63.25 6.72656ZM35.4561 29.0518L34.5576 21.9258V21.9238L46.5898 17.0518L35.4561 29.0518Z" fill="#BBEB00"/>
<path d="M82.0547 27.0586C81.7099 28.784 80.216 30 78.5303 30H57.3047L58.5693 23.9219C58.6843 23.3337 59.1822 22.9415 59.7568 22.9414L75.0439 22.9805L79.6797 0.0410156H87.7637L82.0547 27.0586ZM111.898 8.58887C112.665 8.58887 113.24 9.33389 113.01 10.1182L111.209 18.4307C110.864 20.1168 109.408 21.2939 107.723 21.2939H94.083L93.3555 24.8623H110.06L109.025 29.999H85.999C85.2328 29.9989 84.6583 29.2538 84.8115 28.5088L88.375 11.4902C88.7581 9.80407 90.2137 8.58887 91.8994 8.58887H111.898ZM156.998 8.62793H176.116C176.882 8.62793 177.457 9.3731 177.304 10.1182L173.817 27.0977C173.473 28.7838 171.979 29.999 170.293 29.999H150.601C149.834 29.999 149.259 29.2547 149.412 28.5098L152.631 13.2549C152.636 13.2191 153.098 10.114 154.354 9.29492C154.508 9.1773 154.623 9.09892 154.776 9.02051C154.93 8.90287 155.083 8.86358 155.274 8.78516C155.772 8.58912 156.347 8.58887 156.998 8.58887V8.62793ZM160.404 5.09766L150.213 5.13672L145.003 29.998H137.187L142.436 5.13672H130.865L131.899 0H161.783L160.404 5.09766ZM188.835 8.5498C189.333 8.5498 189.755 8.8644 189.946 9.33496L195.31 22.9805L198.337 8.58984V8.5498H205.999L201.632 29.9609H194.275C193.777 29.9609 193.356 29.6473 193.164 29.1768L187.954 15.2949L185.157 29.9609H176.843L180.866 8.5498H188.835ZM136.77 13.6865L129.72 13.7256L126.387 29.96H118.57L121.942 13.7256H114.815L115.851 8.58887H137.842L136.77 13.6865ZM157.994 24.8623H166.5L168.799 13.7646H160.255L157.994 24.8623ZM95.6152 13.7256L94.8496 17.4902H103.623L104.39 13.7256H95.6152Z" fill="#F4F5F6"/>
</svg>
