<svg width="70" height="24" viewBox="0 0 70 24" fill="none" xmlns="http://www.w3.org/2000/svg">
<path fill-rule="evenodd" clip-rule="evenodd" d="M8.23451 0.980698C10.3988 0.563345 13.5367 0.160395 15.5657 0.0392874C16.1155 0.00650393 16.6321 -0.00885317 16.7135 0.00523098C16.795 0.0193151 17.0172 0.0313304 17.2074 0.0318874C17.5013 0.0328422 17.5867 0.0717526 17.7778 0.291609C18.3846 0.989928 18.6019 1.25769 18.6019 1.30718C18.6019 1.33702 18.6685 1.44396 18.75 1.54486C18.9447 1.7862 18.9368 1.96054 18.7184 2.23952C18.5522 2.45182 18.4761 2.47696 17.7002 2.57626C17.239 2.63523 16.6284 2.69865 16.3433 2.71719C16.3263 2.71828 16.3094 2.71949 16.2926 2.72079C15.9343 2.74858 15.5679 2.86889 15.2106 2.90921C14.8875 2.94567 14.6764 2.9695 14.5237 3.20512C14.3593 3.4588 14.3459 3.78705 14.3205 4.09508C14.2949 4.40477 14.2614 4.79953 14.2175 5.30269C14.2009 5.49299 14.1858 5.67144 14.1714 5.84113C14.0145 7.68892 13.9458 8.49695 13.0829 12.2316C11.7283 18.0928 10.9255 20.1508 9.3193 21.8788C8.51428 22.745 7.18458 23.5068 6.02627 23.7656C4.95825 24.0041 3.05249 23.8761 2.30687 23.5158C1.4435 23.0987 0.695649 22.3176 0.335788 21.4571C-0.098858 20.4178 -0.114498 18.3056 0.306084 17.4636C0.677774 16.7198 1.06905 16.3421 1.85646 15.9673C2.61114 15.6082 4.07713 15.4321 4.22131 15.6833C4.27323 15.7736 4.13693 16.1475 3.91836 16.5142C2.80474 18.3823 2.46486 20.0615 2.95786 21.2604C3.63526 22.9081 5.46124 22.528 6.88964 20.442C8.04165 18.76 8.68461 16.9832 9.66693 12.7683C10.5094 9.15333 10.8328 6.42658 10.9552 4.75185L10.9452 4.17605C10.9409 3.93458 10.7503 3.74536 10.5278 3.77768C10.318 3.80816 10.1095 3.84838 9.90069 3.88967C9.53413 3.96216 9.10092 4.03942 8.93801 4.06131C8.77509 4.08327 8.59181 4.12353 8.53072 4.15075C8.46963 4.17796 8.18638 4.24838 7.90128 4.30718C7.14601 4.46298 6.74191 4.55194 6.52227 4.61075C6.09425 4.72549 5.41926 4.04507 4.9508 3.02648C4.58558 2.23252 4.59839 1.96516 5.01205 1.74824C5.17429 1.66318 5.44088 1.56666 5.60447 1.5338C5.76805 1.50086 6.05182 1.43521 6.2351 1.38779C6.41838 1.34028 6.85158 1.24702 7.19778 1.18034C7.54397 1.11374 8.0105 1.0239 8.23451 0.980698ZM26.3639 3.81793C26.5395 2.93853 26.7463 2.26106 26.8713 2.15642C27.329 1.77307 28.713 2.06323 29.2169 2.64808C29.5592 3.04543 29.6195 3.72404 29.4022 4.73226C29.2594 5.39488 29.4009 5.65479 29.9068 5.65931C30.434 5.66398 31.2738 6.12949 31.6705 6.63671C31.938 6.97862 32.0265 7.24475 32.0265 7.70559C32.0265 8.39056 31.8968 8.50128 31.3046 8.32113C30.684 8.13235 28.7941 8.17294 28.6415 8.37826C28.5072 8.55869 27.2928 13.9085 26.9556 15.8044C26.4536 18.6276 26.991 19.83 28.4219 19.0846C29.0286 18.7686 29.4806 18.2334 30.1847 16.9968C30.6795 16.1278 31.0162 16.0584 31.0833 16.8115C31.1871 17.9771 29.5759 20.3115 28.1385 21.0777C27.6149 21.3569 27.2907 21.4223 26.4311 21.4226C25.5083 21.4229 25.3027 21.375 24.8539 21.0554C24.3344 20.6855 24.189 20.4622 23.8197 19.466C23.7214 19.2009 23.4091 19.12 23.2095 19.3079L22.9347 19.5665C20.7208 21.6503 17.8298 22.0752 15.7112 20.6283C14.6157 19.8803 14.0242 18.6466 13.9223 16.8979C13.7589 14.092 15.2926 11.1139 17.4927 9.96511C18.4971 9.44078 20.2664 9.30192 21.1772 9.67622C22.3442 10.1557 23.2278 11.6751 23.0229 12.8502C22.6562 14.9532 20.1501 16.9686 17.9018 16.9686C17.2042 16.9686 17.1747 16.9838 17.1747 17.3408C17.1747 18.4094 18.2681 19.2311 19.6901 19.2311C20.8213 19.2311 21.5722 18.9366 22.5115 18.1242C23.4593 17.3048 23.6642 16.8691 23.9531 15.0597C24.0773 14.2819 24.4317 12.5019 24.7407 11.104C25.0499 9.70619 25.2744 8.51301 25.2397 8.45263C25.205 8.39225 24.9287 8.34248 24.6257 8.34206C23.7914 8.34093 23.1136 8.08809 22.6098 7.5902C22.0954 7.08185 21.8516 6.25336 22.0507 5.69014C22.1664 5.36293 22.2204 5.34384 22.7966 5.42613C24.4576 5.6637 25.7877 5.69424 25.9278 5.49825C26.0047 5.39064 26.2011 4.63455 26.3639 3.81793ZM17.7687 15.295C19.2871 15.111 21.0998 13.1554 20.7277 12.1025C20.6201 11.798 20.5153 11.7368 20.1024 11.7372C19.2008 11.7382 18.2936 12.6117 17.6312 14.1166C17.2081 15.0782 17.2408 15.3589 17.7687 15.295Z" fill="#E2E4EB"/>
<path fill-rule="evenodd" clip-rule="evenodd" d="M34.8122 0.367345C33.8929 0.723263 33.3138 1.12061 32.804 1.74534C31.6849 3.11669 31.7827 4.63581 33.0491 5.5541C33.984 6.23185 35.9431 6.34879 38.5009 5.87933C39.3819 5.71756 40.1295 5.64318 40.1926 5.71106C40.2557 5.77893 39.7874 8.17222 39.1327 11.1269C37.8047 17.1213 37.0694 20.6503 36.9538 21.5823C36.8541 22.3883 37.166 23.0871 37.802 23.4825C38.153 23.7007 38.5015 23.767 39.3134 23.7701C39.9074 23.7723 40.4014 23.2791 40.4436 22.6417L40.4591 22.4075C40.5701 20.7358 40.9269 18.5609 41.6851 14.9362C42.6548 10.2999 43.9435 4.74087 44.0834 4.59042C44.3519 4.30153 47.1853 3.8766 48.9796 3.8561C50.7353 3.83616 50.7663 3.84125 51.6244 4.29545C52.1019 4.54814 52.5517 4.75501 52.624 4.75501C52.9953 4.75501 52.9259 2.93838 52.5213 2.06831C52.224 1.42888 51.9412 1.16219 51.1411 0.766816C50.5598 0.47948 50.2888 0.444694 48.6488 0.446957C46.5074 0.449926 46.1136 0.516245 40.96 1.73983C38.8275 2.2462 36.7575 2.68951 36.3599 2.72486C34.9185 2.85339 34.4912 2.09914 35.4319 1.0871C36.3277 0.12328 36.1064 -0.133795 34.8122 0.367345ZM49.0431 10.0082C48.8262 10.0843 48.2565 10.198 47.777 10.2606C47.2975 10.3234 46.6289 10.5234 46.2913 10.7048C44.4841 11.6758 43.1992 14.5947 43.365 17.3527C43.4769 19.2164 44.3336 20.6189 45.807 21.3501C46.2839 21.5868 46.6685 21.6517 47.5973 21.6523C48.6597 21.6528 48.872 21.6062 49.6809 21.194C50.1763 20.9416 50.6361 20.7713 50.7026 20.8156C50.9908 21.0072 52.7513 20.5626 53.5322 20.1009C54.3721 19.6043 54.4975 19.6006 54.4975 20.0723C54.4975 20.8625 55.7854 21.7982 56.7366 21.6989C57.166 21.6541 57.1883 21.6192 57.6059 20.3352C58.9937 16.0684 61.9823 11.2081 62.5793 12.2472C62.6232 12.3237 62.464 13.1986 62.2256 14.1916C61.8427 15.7855 61.792 16.2131 61.792 17.846C61.792 19.6545 61.8008 19.7106 62.1863 20.3805C62.9859 21.7696 64.5889 22.1405 66.1545 21.2989C67.0946 20.7935 68.2539 19.5415 68.7426 18.5037C69.4628 16.9748 68.9901 15.8864 68.2219 17.3047C67.6628 18.3371 67.1547 18.9609 66.5995 19.2966C65.937 19.6972 65.6004 19.6828 65.1847 19.2355C64.8533 18.879 64.8458 18.8314 64.9222 17.574C64.9669 16.8399 65.174 15.5827 65.4007 14.6698C66.0333 12.1234 65.9238 10.9689 64.9812 10.2456C64.6127 9.96284 64.3942 9.91631 63.4349 9.91631C62.6049 9.91631 62.1897 9.98475 61.8197 10.1826C61.1785 10.5252 60.111 11.5587 59.7513 12.185C59.5968 12.4538 59.4197 12.6737 59.3575 12.6737C59.2952 12.6737 59.2767 12.2443 59.3162 11.7192C59.3863 10.7901 59.3772 10.7536 58.9757 10.3449C58.6173 9.98009 58.4447 9.91787 57.6596 9.87007C56.8814 9.82284 56.7388 9.85155 56.6303 10.0778C56.561 10.2223 56.2238 11.645 55.8807 13.2393C55.5377 14.8337 55.1354 16.3609 54.9867 16.6331C54.2059 18.0625 53.2534 18.8956 52.3999 18.8956C51.9347 18.8956 51.905 18.7414 52.2533 18.1345C52.6287 17.4804 53.1528 15.6909 53.2523 14.7241C53.4137 13.1558 52.9679 11.4742 52.1767 10.6662C51.4412 9.91518 50.1069 9.63506 49.0431 10.0082ZM50.8701 12.2955C51.1026 12.6321 51.1447 12.8877 51.1373 13.9216C51.1298 14.9611 51.0628 15.3276 50.6978 16.3227C50.1759 17.7454 49.9764 17.7852 49.5078 16.5604C49.2527 15.8941 49.1828 15.4583 49.1791 14.512C49.1739 13.132 49.255 12.7301 49.6469 12.1939C50.0044 11.7049 50.4903 11.7454 50.8701 12.2955ZM46.8588 15.898C46.9947 16.6408 47.6708 18.3113 48.0848 18.9269C48.3168 19.2721 48.0521 19.5259 47.5901 19.4012C46.7717 19.1802 46.2187 18.1212 46.2187 16.7745C46.2187 16.053 46.4382 15.0776 46.6007 15.0776C46.6601 15.0776 46.7763 15.4468 46.8588 15.898Z" fill="#E2E4EB"/>
<path fill-rule="evenodd" clip-rule="evenodd" d="M34.8122 0.367345C33.8929 0.723263 33.3138 1.12061 32.804 1.74534C31.6849 3.11669 31.7827 4.63581 33.0491 5.5541C33.984 6.23185 35.9431 6.34879 38.5009 5.87933C39.3819 5.71756 40.1295 5.64318 40.1926 5.71106C40.2557 5.77893 39.7874 8.17222 39.1327 11.1269C37.8047 17.1213 37.0694 20.6503 36.9538 21.5823C36.8541 22.3883 37.166 23.0871 37.802 23.4825C38.153 23.7007 38.5015 23.767 39.3134 23.7701C39.9074 23.7723 40.4014 23.2791 40.4436 22.6417L40.4591 22.4075C40.5701 20.7358 40.9269 18.5609 41.6851 14.9362C42.6548 10.2999 43.9435 4.74087 44.0834 4.59042C44.3519 4.30153 47.1853 3.8766 48.9796 3.8561C50.7353 3.83616 50.7663 3.84125 51.6244 4.29545C52.1019 4.54814 52.5517 4.75501 52.624 4.75501C52.9953 4.75501 52.9259 2.93838 52.5213 2.06831C52.224 1.42888 51.9412 1.16219 51.1411 0.766816C50.5598 0.47948 50.2888 0.444694 48.6488 0.446957C46.5074 0.449926 46.1136 0.516245 40.96 1.73983C38.8275 2.2462 36.7575 2.68951 36.3599 2.72486C34.9185 2.85339 34.4912 2.09914 35.4319 1.0871C36.3277 0.12328 36.1064 -0.133795 34.8122 0.367345ZM49.0431 10.0082C48.8262 10.0843 48.2565 10.198 47.777 10.2606C47.2975 10.3234 46.6289 10.5234 46.2913 10.7048C44.4841 11.6758 43.1992 14.5947 43.365 17.3527C43.4769 19.2164 44.3336 20.6189 45.807 21.3501C46.2839 21.5868 46.6685 21.6517 47.5973 21.6523C48.6597 21.6528 48.872 21.6062 49.6809 21.194C50.1763 20.9416 50.6361 20.7713 50.7026 20.8156C50.9908 21.0072 52.7513 20.5626 53.5322 20.1009C54.3721 19.6043 54.4975 19.6006 54.4975 20.0723C54.4975 20.8625 55.7854 21.7982 56.7366 21.6989C57.166 21.6541 57.1883 21.6192 57.6059 20.3352C58.9937 16.0684 61.9823 11.2081 62.5793 12.2472C62.6232 12.3237 62.464 13.1986 62.2256 14.1916C61.8427 15.7855 61.792 16.2131 61.792 17.846C61.792 19.6545 61.8008 19.7106 62.1863 20.3805C62.9859 21.7696 64.5889 22.1405 66.1545 21.2989C67.0946 20.7935 68.2539 19.5415 68.7426 18.5037C69.4628 16.9748 68.9901 15.8864 68.2219 17.3047C67.6628 18.3371 67.1547 18.9609 66.5995 19.2966C65.937 19.6972 65.6004 19.6828 65.1847 19.2355C64.8533 18.879 64.8458 18.8314 64.9222 17.574C64.9669 16.8399 65.174 15.5827 65.4007 14.6698C66.0333 12.1234 65.9238 10.9689 64.9812 10.2456C64.6127 9.96284 64.3942 9.91631 63.4349 9.91631C62.6049 9.91631 62.1897 9.98475 61.8197 10.1826C61.1785 10.5252 60.111 11.5587 59.7513 12.185C59.5968 12.4538 59.4197 12.6737 59.3575 12.6737C59.2952 12.6737 59.2767 12.2443 59.3162 11.7192C59.3863 10.7901 59.3772 10.7536 58.9757 10.3449C58.6173 9.98009 58.4447 9.91787 57.6596 9.87007C56.8814 9.82284 56.7388 9.85155 56.6303 10.0778C56.561 10.2223 56.2238 11.645 55.8807 13.2393C55.5377 14.8337 55.1354 16.3609 54.9867 16.6331C54.2059 18.0625 53.2534 18.8956 52.3999 18.8956C51.9347 18.8956 51.905 18.7414 52.2533 18.1345C52.6287 17.4804 53.1528 15.6909 53.2523 14.7241C53.4137 13.1558 52.9679 11.4742 52.1767 10.6662C51.4412 9.91518 50.1069 9.63506 49.0431 10.0082ZM50.8701 12.2955C51.1026 12.6321 51.1447 12.8877 51.1373 13.9216C51.1298 14.9611 51.0628 15.3276 50.6978 16.3227C50.1759 17.7454 49.9764 17.7852 49.5078 16.5604C49.2527 15.8941 49.1828 15.4583 49.1791 14.512C49.1739 13.132 49.255 12.7301 49.6469 12.1939C50.0044 11.7049 50.4903 11.7454 50.8701 12.2955ZM46.8588 15.898C46.9947 16.6408 47.6708 18.3113 48.0848 18.9269C48.3168 19.2721 48.0521 19.5259 47.5901 19.4012C46.7717 19.1802 46.2187 18.1212 46.2187 16.7745C46.2187 16.053 46.4382 15.0776 46.6007 15.0776C46.6601 15.0776 46.7763 15.4468 46.8588 15.898Z" fill="#E2E4EB"/>
</svg>
