<svg width="104" height="45" viewBox="0 0 104 45" fill="none" xmlns="http://www.w3.org/2000/svg">
<g clip-path="url(#clip0_80_656)">
<path fill-rule="evenodd" clip-rule="evenodd" d="M13.3102 0.735829C13.5735 0.478162 13.7794 0.314291 14.0983 0.10877C14.2292 0.0243528 14.291 -0.000174645 14.3601 0.00483997C14.4383 0.0104782 14.4516 0.0212868 14.4589 0.0850219C14.4635 0.125529 14.449 0.204696 14.4266 0.260922C14.4038 0.318135 14.3858 0.440202 14.3857 0.538026C14.3855 0.634213 14.368 0.770282 14.3469 0.840437C14.3257 0.910586 14.3084 1.02044 14.3084 1.08457C14.3084 1.14866 14.2855 1.30173 14.2575 1.42471C14.2295 1.54765 14.1822 1.76518 14.1523 1.90808C14.1225 2.05099 14.0757 2.24474 14.0482 2.33864C14.0208 2.43254 13.9983 2.53109 13.9983 2.55764C13.9983 2.60834 13.9391 2.8037 13.8156 3.16057C13.7297 3.40857 13.5861 3.70396 13.4781 3.85487C13.4364 3.91307 13.3625 4.01916 13.314 4.09061C13.2655 4.16206 13.1944 4.26462 13.1561 4.31848C13.1178 4.37236 13.0921 4.42212 13.099 4.42903C13.1275 4.45766 13.3037 4.37005 13.5544 4.20265C13.7011 4.10471 13.8929 3.98824 13.9807 3.94381C14.0686 3.8994 14.1812 3.83115 14.2309 3.79215C14.2807 3.75315 14.4725 3.64376 14.6572 3.54908C15.2177 3.26185 15.2503 3.23929 15.3261 3.08631C15.3633 3.01143 15.3936 2.92301 15.3936 2.8898C15.3936 2.7998 15.5094 2.53023 15.5954 2.4203C15.6368 2.36722 15.6909 2.2842 15.7155 2.2358C15.811 2.04833 16.2374 1.69339 16.5692 1.52515C16.7552 1.43086 17.3215 1.24553 17.4236 1.24553C17.4713 1.24553 17.5694 1.22214 17.6415 1.19356C17.7359 1.15615 17.8335 1.1416 17.9903 1.1416C18.1471 1.1416 18.2447 1.12705 18.3391 1.08964C18.4561 1.04325 18.5312 1.03767 19.0359 1.03767C19.5207 1.03767 19.6074 1.04362 19.643 1.07937C19.695 1.1317 19.6798 1.18156 19.554 1.37048C19.4436 1.53622 19.1744 1.8192 18.5436 2.43246C18.119 2.8454 18.1124 2.85046 17.7943 3.00519C17.6179 3.09106 17.3689 3.19278 17.241 3.23124C17.1131 3.26969 16.9503 3.32096 16.8793 3.34512C16.7806 3.37869 16.6218 3.3922 16.2075 3.40225C15.6888 3.41483 15.656 3.41873 15.4626 3.4908C15.3513 3.53227 15.1885 3.61121 15.1009 3.66621C15.0132 3.72122 14.8135 3.83192 14.6572 3.91221C14.5009 3.9925 14.216 4.15993 14.0242 4.28431C13.8323 4.40868 13.6172 4.54431 13.5462 4.5857C13.3559 4.69652 12.789 5.08498 12.6548 5.19642C12.5908 5.2495 12.5037 5.31132 12.461 5.33377C12.4184 5.35619 12.3312 5.42231 12.2672 5.48067C12.2032 5.53903 12.1161 5.60533 12.0734 5.62804C12.0308 5.65065 11.9377 5.71804 11.8667 5.77772C11.7957 5.83746 11.6968 5.91474 11.6471 5.94956C11.5973 5.98438 11.452 6.11021 11.3241 6.22918C11.1962 6.34815 11.0335 6.4845 10.9624 6.5322C10.8016 6.64003 8.92549 8.52137 8.83692 8.66351C8.80136 8.72066 8.69451 8.85516 8.59951 8.96231C8.50457 9.06952 8.37575 9.22736 8.31329 9.31309C8.25089 9.39881 8.14337 9.52746 8.07437 9.59889C8.00543 9.67033 7.92642 9.76972 7.8988 9.81973C7.87118 9.86974 7.78971 9.99253 7.71781 10.0925C7.64585 10.1926 7.49946 10.4084 7.39239 10.5721C7.28531 10.7358 7.16023 10.917 7.11433 10.9748C7.06848 11.0326 6.99791 11.1383 6.95754 11.2098C6.91712 11.2813 6.78281 11.4976 6.65908 11.6905C6.40416 12.0879 5.51022 13.8695 5.38116 14.2374C5.36321 14.2886 5.31344 14.4003 5.2706 14.4856C5.22777 14.571 5.17878 14.6928 5.16175 14.7564C5.14472 14.82 5.09891 14.9366 5.05992 15.0156C5.02096 15.0945 4.93946 15.317 4.87888 15.5099C4.81829 15.7028 4.72341 15.9983 4.66808 16.1665C4.61274 16.3347 4.56747 16.4918 4.56747 16.5154C4.56747 16.5626 4.4858 16.8463 4.40934 17.0647C4.38263 17.1409 4.36077 17.2466 4.36077 17.2994C4.36077 17.3522 4.33752 17.462 4.30909 17.5433C4.28067 17.6246 4.25742 17.7261 4.25742 17.7688C4.25742 17.8114 4.23416 17.9057 4.20574 17.9782C4.17732 18.0507 4.15407 18.1677 4.15407 18.238C4.15407 18.3085 4.13081 18.4254 4.10239 18.4979C4.06968 18.5813 4.05072 18.691 4.05072 18.7967C4.05072 18.9024 4.03175 19.012 3.99903 19.0955C3.95795 19.2003 3.94736 19.2886 3.94736 19.5262C3.94736 19.7738 3.9385 19.8425 3.89568 19.9269C3.84972 20.0176 3.84401 20.0801 3.84401 20.4935C3.84401 20.8904 3.83649 20.9801 3.79233 21.1091C3.74384 21.2509 3.74066 21.3278 3.74066 22.3594C3.74066 23.3974 3.74352 23.466 3.79233 23.5905C3.83556 23.7008 3.84401 23.7836 3.84401 24.0971C3.84401 24.4106 3.85246 24.4934 3.89568 24.6038C3.93581 24.7061 3.94749 24.7979 3.94793 25.0139C3.94837 25.2349 3.95904 25.3157 3.99961 25.4055C4.02831 25.4692 4.05072 25.5748 4.05072 25.6466C4.05072 25.7168 4.07397 25.8408 4.10239 25.9221C4.13285 26.0093 4.15407 26.1366 4.15407 26.2323C4.15407 26.3334 4.17358 26.4444 4.20574 26.5265C4.23416 26.599 4.25742 26.6929 4.25742 26.7352C4.25742 26.7775 4.27912 26.8793 4.30566 26.9616C4.33219 27.0438 4.36617 27.1695 4.38116 27.241C4.41588 27.4065 4.4573 27.5635 4.51877 27.7625C4.54557 27.8492 4.56747 27.9454 4.56747 27.9763C4.56747 28.0071 4.61274 28.1699 4.66808 28.3382C4.72341 28.5064 4.81829 28.8019 4.87888 28.9948C4.93946 29.1877 5.02096 29.4101 5.05992 29.4891C5.09891 29.5681 5.14472 29.6847 5.16175 29.7483C5.17878 29.8119 5.22485 29.9285 5.26412 30.0075C5.30339 30.0864 5.35026 30.1978 5.3683 30.255C5.38631 30.3121 5.50253 30.5635 5.62657 30.8136C5.75053 31.0637 5.97698 31.5253 6.12968 31.8395C6.28238 32.1537 6.43939 32.4519 6.47859 32.5021C6.51784 32.5523 6.57045 32.6343 6.59561 32.6843C6.64046 32.7736 6.97225 33.2934 7.45563 34.0316C7.58993 34.2367 7.74822 34.4647 7.80744 34.5382C7.86659 34.6118 7.94308 34.7129 7.97747 34.7629C8.01175 34.8129 8.11161 34.9357 8.19934 35.0357C8.28701 35.1358 8.37664 35.2527 8.39839 35.2955C8.42014 35.3384 8.52968 35.4729 8.64178 35.5943C8.75384 35.7158 8.88322 35.8678 8.92918 35.9321C9.05745 36.1115 10.6345 37.6925 10.7868 37.7943C10.8607 37.8438 11.0118 37.9718 11.1226 38.0788C11.2335 38.1859 11.3764 38.31 11.4404 38.3547C11.5044 38.3995 11.6322 38.5052 11.7246 38.5897C11.817 38.6743 11.9275 38.7616 11.9701 38.7838C12.0127 38.806 12.0999 38.8685 12.1639 38.9227C12.2278 38.9769 12.3406 39.0657 12.4145 39.12L12.8051 39.4073C12.9461 39.5109 13.0682 39.5957 13.0765 39.5957C13.0848 39.5957 13.2055 39.6699 13.3448 39.7608C13.484 39.8516 13.6502 39.9524 13.7141 39.9849C13.7781 40.0173 13.906 40.0967 13.9983 40.1613C14.0907 40.2258 14.2767 40.3375 14.4118 40.4094C14.5467 40.4813 14.7003 40.5737 14.753 40.6148C14.8564 40.6955 16.6407 41.5844 16.8535 41.6612C16.9245 41.6869 17.0703 41.7518 17.1774 41.8055C17.2845 41.8592 17.4237 41.917 17.4868 41.9342C17.5499 41.9512 17.6657 41.9972 17.7442 42.0364C17.8227 42.0755 18.0091 42.1456 18.1583 42.1923C18.3075 42.239 18.4734 42.2935 18.527 42.3134C18.5806 42.3335 18.6473 42.3498 18.6753 42.3498C18.7033 42.3498 18.8455 42.3858 18.9913 42.4297C19.1371 42.4737 19.3203 42.5249 19.3985 42.5436C19.6807 42.6107 19.804 42.6458 20.1031 42.7438C20.2888 42.8046 20.457 42.8434 20.535 42.8434C20.6052 42.8434 20.7216 42.8668 20.7937 42.8954C20.8659 42.924 20.9531 42.9474 20.9875 42.9474C21.022 42.9474 21.1092 42.9708 21.1813 42.9994C21.2678 43.0336 21.3733 43.0513 21.4914 43.0513C21.6094 43.0513 21.715 43.069 21.8014 43.1033C21.8735 43.1319 21.984 43.1552 22.0469 43.1552C22.1098 43.1552 22.2202 43.1786 22.2923 43.2072C22.4031 43.2511 22.4845 43.2592 22.8165 43.2593C23.1617 43.2593 23.2197 43.2656 23.2929 43.3104C23.3953 43.3732 23.4272 43.4754 23.3657 43.5437C23.3254 43.5886 23.2903 43.5913 22.917 43.5781C22.6096 43.5672 22.4822 43.5521 22.3883 43.5154C22.3135 43.4861 22.199 43.467 22.0985 43.467C21.9935 43.467 21.8845 43.4479 21.8014 43.415C21.7293 43.3865 21.6097 43.363 21.5357 43.3628C21.4616 43.3627 21.3439 43.3451 21.2741 43.3239C21.2043 43.3025 21.1041 43.2852 21.0514 43.2852C20.9987 43.2852 20.8827 43.2618 20.7937 43.2332C20.7048 43.2046 20.5895 43.1812 20.5375 43.1812C20.4857 43.1812 20.377 43.1579 20.2961 43.1292C20.2153 43.1007 20.1205 43.0773 20.0855 43.0773C20.0506 43.0773 19.9892 43.0642 19.9492 43.0482C19.8237 42.9981 19.6979 42.9752 19.6351 42.991C19.5694 43.0075 19.5694 43.0405 19.6349 43.2029C19.6684 43.2859 19.6647 43.2993 19.5406 43.5384C19.4276 43.7563 19.3707 43.8283 19.0858 44.1143C18.8045 44.3968 18.7305 44.456 18.5432 44.5489C17.9555 44.84 17.8606 44.887 17.7627 44.8946C17.7437 44.896 17.7247 44.896 17.702 44.896C17.6268 44.896 17.5072 44.9193 17.4348 44.948C17.3189 44.994 17.2428 45 16.7759 45C16.3091 45 16.233 44.994 16.1171 44.948C16.0306 44.9138 15.925 44.896 15.807 44.896C15.689 44.896 15.5834 44.8784 15.497 44.8441C15.4248 44.8155 15.3144 44.7922 15.2515 44.7922C15.1886 44.7922 15.0782 44.7688 15.006 44.7402C14.9339 44.7116 14.8357 44.6882 14.7877 44.6882C14.6505 44.6882 14.4145 44.5863 14.3746 44.5099C14.3023 44.3711 14.3269 44.3547 15.4319 43.8067C16.0015 43.5241 16.5137 43.2779 16.5701 43.2595C16.6265 43.2411 16.7285 43.1979 16.7967 43.1636C16.8651 43.1291 17.0802 43.0462 17.2747 42.9793C17.6286 42.8576 17.6286 42.8576 18.2143 42.844C18.5364 42.8366 18.8092 42.8212 18.8206 42.8097C18.8517 42.7784 18.7957 42.7059 18.7249 42.686C18.3285 42.5749 18.0461 42.4798 17.7578 42.3606C17.4636 42.2389 17.1626 42.1179 16.9826 42.0491C16.348 41.8064 16.1165 41.7015 15.3704 41.3186C14.9071 41.0808 14.4853 40.8528 14.433 40.8119C14.3428 40.7413 14.1048 40.6491 14.0792 40.6749C14.0726 40.6815 14.08 40.729 14.0957 40.7805C14.1358 40.9118 14.1078 40.9664 13.8869 41.1863C13.5151 41.5565 12.7754 41.9325 12.4167 41.9337C12.3498 41.9339 12.236 41.9574 12.1639 41.986C12.0774 42.0203 11.9718 42.038 11.8538 42.038C11.7358 42.038 11.6302 42.0203 11.5437 41.986C11.4597 41.9527 11.3504 41.9338 11.2392 41.9334C11.0588 41.9327 10.8868 41.8895 10.3552 41.711C10.0468 41.6074 9.15368 41.1703 8.95625 41.0264C8.89435 40.9812 8.80299 40.9182 8.75322 40.8862C8.59219 40.7828 8.62714 40.609 8.80891 40.609C8.84828 40.609 8.93953 40.5856 9.0116 40.557C9.08373 40.5284 9.19997 40.505 9.26998 40.505C9.33998 40.505 9.45628 40.4817 9.52836 40.4531C9.60049 40.4245 9.68771 40.4011 9.72215 40.4011C9.7566 40.4011 9.84382 40.3777 9.91595 40.3491C9.98808 40.3206 10.1043 40.2972 10.1743 40.2972C10.2443 40.2972 10.3606 40.2738 10.4327 40.2452C10.5192 40.2109 10.6247 40.1933 10.7428 40.1933C10.8608 40.1933 10.9664 40.1755 11.0528 40.1413C11.1731 40.0936 11.2449 40.0893 11.9184 40.0893C12.5919 40.0893 12.6637 40.0936 12.7839 40.1413C12.8561 40.1699 12.9582 40.1935 13.011 40.1938C13.0637 40.1941 13.1576 40.2175 13.2196 40.2457C13.2815 40.274 13.3546 40.2972 13.3819 40.2972C13.4589 40.2972 13.3974 40.2042 13.2805 40.1438C13.2277 40.1164 13.1496 40.0569 13.107 40.0114C13.0643 39.966 12.9945 39.9106 12.9519 39.8883C12.9093 39.8661 12.8163 39.7985 12.7452 39.7383C12.6741 39.678 12.5874 39.6137 12.5524 39.5953C12.5174 39.5769 12.3795 39.4789 12.2459 39.3774C12.1123 39.2759 11.9422 39.152 11.8678 39.102C11.7934 39.052 11.6756 38.9634 11.6058 38.9051C11.5362 38.8468 11.4268 38.7629 11.3629 38.7188C11.2989 38.6746 11.1594 38.5549 11.0528 38.4528C10.9462 38.3507 10.7951 38.2193 10.7169 38.1607C10.5549 38.0394 10.2916 37.7877 9.60742 37.1C9.13366 36.6239 8.89323 36.4063 8.86829 36.4313C8.8613 36.4384 8.90698 36.5108 8.96989 36.5923C9.03279 36.6737 9.10995 36.804 9.14132 36.8818C9.1955 37.016 9.19623 37.0267 9.15519 37.0898C9.10212 37.1712 8.52112 37.4651 8.41315 37.4651C8.37211 37.4651 8.27236 37.4885 8.19151 37.5171C8.06067 37.5633 7.97898 37.569 7.44931 37.5685C6.86752 37.5681 6.8489 37.5665 6.62161 37.4942C6.37134 37.4146 5.84966 37.1576 5.63976 37.0104C5.21022 36.7093 5.10995 36.6344 4.98783 36.5237C4.91327 36.4561 4.8027 36.3698 4.74217 36.332C4.6816 36.2941 4.50859 36.1386 4.3577 35.9863C3.883 35.5074 3.85119 35.3085 4.24928 35.3085C4.34961 35.3085 4.46006 35.3282 4.54164 35.3605C4.66008 35.4075 4.73367 35.4125 5.30386 35.4125C5.87404 35.4125 5.94763 35.4175 6.06605 35.4644C6.16938 35.5054 6.25862 35.5165 6.48692 35.5167C6.66875 35.5169 6.82385 35.5314 6.90348 35.5557C6.9732 35.5769 7.07245 35.5943 7.124 35.5943C7.1755 35.5943 7.2838 35.6177 7.36471 35.6463C7.44556 35.6749 7.52703 35.6983 7.5457 35.6983C7.56443 35.6983 7.80598 35.8092 8.08248 35.9448C8.35903 36.0803 8.59867 36.1914 8.61511 36.1916C8.666 36.1922 8.49479 35.9022 8.3384 35.7229C8.25671 35.6292 8.15394 35.499 8.11004 35.4336C8.06615 35.3681 7.97988 35.2577 7.91843 35.1882C7.77188 35.0224 7.28106 34.3627 7.16375 34.1738C7.13557 34.1284 7.00155 33.9239 6.86585 33.7191C6.7302 33.5144 6.57448 33.265 6.51991 33.165C6.46528 33.0649 6.40394 32.9637 6.38364 32.9401C6.36335 32.9164 6.28591 32.7819 6.2116 32.6413C6.01003 32.2597 5.7838 31.8735 5.72313 31.8074C5.66191 31.7406 5.60102 31.7307 5.60102 31.7874C5.60102 31.8085 5.58273 31.8718 5.56038 31.9279C5.52733 32.011 5.4949 32.0412 5.38597 32.0902C5.26277 32.1458 5.20996 32.1513 4.71912 32.1599C4.23419 32.1683 4.16773 32.164 3.98274 32.1126C3.63467 32.0158 3.31715 31.9046 3.21839 31.845C2.96443 31.6919 2.86403 31.6165 2.66652 31.4306C2.54883 31.3199 2.44046 31.2293 2.42571 31.2293C2.38057 31.2293 2.21533 31.07 2.10575 30.9209C2.04865 30.8431 1.94554 30.7199 1.8766 30.6471C1.74128 30.5042 1.62789 30.3335 1.47797 30.0471C1.42562 29.9471 1.351 29.8243 1.31212 29.7743C1.21569 29.6502 1.16438 29.5442 1.09048 29.3166C1.01273 29.0771 1.01271 29.0578 1.08981 29.007C1.14848 28.9684 1.17332 28.9734 1.53552 29.0964C2.59345 29.4559 2.83677 29.5428 2.99135 29.6164C3.08372 29.6603 3.17749 29.6963 3.19974 29.6963C3.22199 29.6963 3.34373 29.7508 3.47026 29.8174C3.59679 29.884 3.81693 29.9897 3.95945 30.0524C4.31684 30.2096 4.60902 30.412 4.93386 30.7275C5.08561 30.8749 5.22224 30.9954 5.23746 30.9954C5.29526 30.9954 5.26058 30.8376 5.13433 30.5259C5.0624 30.3483 4.98282 30.1387 4.9575 30.0601C4.93218 29.9815 4.88221 29.8587 4.8465 29.7872C4.81077 29.7158 4.74421 29.5463 4.69855 29.4105C4.65292 29.2747 4.57569 29.0689 4.52694 28.953C4.47818 28.8372 4.43828 28.7169 4.43828 28.6858C4.43828 28.6316 4.28349 28.1222 4.17817 27.8298C4.15071 27.7535 4.12823 27.6707 4.12823 27.6458C4.12823 27.6209 4.1065 27.5255 4.07994 27.4337C4.05337 27.342 4.00531 27.15 3.97312 27.0071C3.94093 26.8642 3.90336 26.7122 3.88964 26.6694C3.87592 26.6265 3.85567 26.5055 3.84463 26.4005C3.82975 26.2591 3.81034 26.1953 3.76996 26.1547C3.69836 26.0826 3.66746 26.1154 3.63958 26.2928C3.61475 26.4508 3.55654 26.5125 3.45644 26.4871C3.42091 26.4781 3.26976 26.465 3.12054 26.4581C2.8433 26.4453 2.83932 26.4442 2.14454 26.1972C2.0838 26.1756 1.97915 26.1182 1.912 26.0697C1.84484 26.0211 1.74738 25.9583 1.69542 25.9299C1.47347 25.8087 0.963974 25.2523 0.82959 24.9843C0.792692 24.9108 0.730348 24.8095 0.691024 24.7592C0.651694 24.709 0.606275 24.6184 0.590071 24.558C0.573873 24.4975 0.520361 24.3635 0.471165 24.2603C0.421969 24.1571 0.381715 24.0593 0.381715 24.043C0.381715 24.0268 0.335207 23.8874 0.278363 23.7333C0.221519 23.5793 0.17501 23.4195 0.17501 23.3783C0.17501 23.3371 0.151757 23.2368 0.123335 23.1555C0.0949134 23.0742 0.0716588 22.9597 0.0716588 22.901C0.0716588 22.8424 0.0535206 22.733 0.0313516 22.6579C-0.0165262 22.4958 -0.00962771 22.398 0.0524611 22.3589C0.109692 22.3229 0.269371 22.4093 0.603843 22.6573C0.733139 22.7531 0.872661 22.8502 0.913897 22.8729C0.955162 22.8957 1.03542 22.948 1.09226 22.989C1.1491 23.0302 1.29444 23.1261 1.41523 23.2023C1.53603 23.2784 1.69635 23.3911 1.77152 23.4526C1.84668 23.5141 1.91947 23.5645 1.93329 23.5645C1.94709 23.5645 2.04837 23.6506 2.15836 23.7558C2.26833 23.861 2.39902 23.968 2.44876 23.9936C2.71807 24.1317 3.42716 25.0219 3.4314 25.2271C3.43184 25.2487 3.46081 25.3248 3.49576 25.3962C3.53072 25.4677 3.55943 25.5512 3.55956 25.5817C3.55987 25.6543 3.64596 25.7608 3.68479 25.7366C3.72529 25.7114 3.72118 25.6185 3.67606 25.5391C3.65056 25.4943 3.63885 25.388 3.63821 25.1958C3.63751 24.9803 3.62562 24.8877 3.58563 24.7857C3.5424 24.6754 3.53395 24.5926 3.53395 24.279C3.53395 23.9654 3.52551 23.8826 3.48228 23.7723C3.43287 23.6463 3.4306 23.5792 3.4306 22.2523C3.4306 20.9058 3.43223 20.8601 3.48455 20.7268C3.52752 20.6175 3.53674 20.5461 3.52977 20.3764C3.51835 20.098 3.48626 20.0626 3.36353 20.1935C3.31348 20.2468 3.24705 20.2967 3.21591 20.3045C3.11305 20.3299 2.43671 20.0451 2.22913 19.889C2.1865 19.8569 2.11617 19.8123 2.07287 19.7899C1.96148 19.7322 1.56099 19.3331 1.5059 19.2249C1.48055 19.1752 1.42699 19.0924 1.38687 19.0411C1.30026 18.9302 1.10518 18.5332 1.10518 18.4677C1.10518 18.4425 1.08192 18.3625 1.0535 18.29C1.02508 18.2175 1.00183 18.1006 1.00183 18.0302C1.00183 17.9598 0.978187 17.8419 0.949296 17.7682C0.899147 17.6403 0.897106 17.588 0.904079 16.6007C0.910978 15.6266 0.91421 15.5641 0.960619 15.5126C0.987692 15.4825 1.03376 15.458 1.06301 15.458C1.12619 15.458 1.54582 15.8798 1.61067 16.0086C1.6345 16.0558 1.74395 16.188 1.85389 16.3024C1.96383 16.4167 2.0746 16.5512 2.09999 16.6012C2.12542 16.6512 2.19769 16.7498 2.26058 16.8204C2.32347 16.891 2.39323 16.9845 2.41561 17.0282C2.43798 17.072 2.50774 17.1655 2.57063 17.2361C2.63352 17.3067 2.70333 17.4002 2.72579 17.444C2.74822 17.4877 2.80579 17.5753 2.85372 17.6385C2.97249 17.7951 3.312 18.475 3.36722 18.6668C3.39753 18.772 3.41722 18.9637 3.42781 19.2566C3.44517 19.7364 3.46504 19.7999 3.56594 19.6984C3.61571 19.6484 3.62545 19.6026 3.6403 19.3487C3.64981 19.1864 3.67542 19.0103 3.6979 18.9526C3.72017 18.8954 3.7389 18.7781 3.73952 18.6918C3.74017 18.6046 3.76358 18.4695 3.79233 18.3872C3.82076 18.3059 3.84401 18.1827 3.84401 18.1134C3.84401 18.0442 3.85987 17.9357 3.87928 17.8724C3.89868 17.8091 3.9409 17.6404 3.9731 17.4976C4.00529 17.3546 4.05337 17.1627 4.07994 17.071C4.1065 16.9792 4.1283 16.8857 4.12841 16.8631C4.12851 16.8405 4.17502 16.6826 4.23176 16.5122C4.2885 16.3419 4.33493 16.1776 4.33493 16.1471C4.33493 16.1167 4.38129 15.9637 4.43797 15.8073C4.49463 15.6509 4.54114 15.5145 4.54133 15.5042C4.54184 15.4728 4.77064 14.8854 4.86288 14.6784C4.94551 14.4932 5.00253 14.2108 4.95732 14.2108C4.94569 14.2108 4.90649 14.2343 4.87019 14.263C4.74325 14.3634 4.67586 14.3556 4.46412 14.216C4.25543 14.0782 3.82641 13.6509 3.75236 13.5069C3.7274 13.4584 3.66351 13.3601 3.61038 13.2886C3.48318 13.1172 3.39466 12.9359 3.30081 12.6542C3.2239 12.4233 3.2239 12.4233 3.2239 11.7461C3.2239 11.1301 3.22857 11.0569 3.27558 10.937C3.304 10.8645 3.3273 10.7501 3.32738 10.6827C3.32751 10.552 3.5254 9.93791 3.64314 9.70284C3.67893 9.63135 3.72704 9.50861 3.75009 9.43003C3.81357 9.2133 3.8975 9.08072 3.97705 9.07133C4.06162 9.06137 4.11937 9.11858 4.15353 9.24609C4.16817 9.30083 4.2554 9.49376 4.34736 9.67489C4.43932 9.85601 4.53184 10.0591 4.553 10.1263C4.57417 10.1935 4.62806 10.3479 4.67276 10.4693C4.71749 10.5908 4.78656 10.7837 4.82624 10.898C4.86596 11.0123 4.93443 11.1819 4.97841 11.2748C5.02238 11.3676 5.05837 11.4812 5.05837 11.5271C5.0584 11.573 5.08165 11.6699 5.11007 11.7425C5.13849 11.815 5.16175 11.9093 5.16175 11.9521C5.16175 11.9949 5.18144 12.0734 5.20552 12.1265C5.24073 12.2043 5.2521 12.3356 5.26365 12.7991C5.27156 13.1159 5.28668 13.3837 5.29725 13.3944C5.3405 13.4378 5.43491 13.2904 5.72945 12.7194C5.89971 12.3893 6.08076 12.0549 6.13186 11.9763C6.18286 11.8977 6.25387 11.7749 6.2896 11.7035C6.32527 11.632 6.40014 11.5034 6.456 11.4177C6.51174 11.3319 6.65555 11.1098 6.77554 10.924C6.99355 10.5864 7.07317 10.4667 7.24181 10.2225C7.29118 10.151 7.35442 10.0517 7.38238 10.0016C7.41034 9.95158 7.47005 9.86974 7.51506 9.81973C7.56013 9.76972 7.65775 9.64648 7.73206 9.54579C7.9579 9.24002 7.96769 9.19614 7.81029 9.19614C7.68314 9.19614 7.61856 9.16453 7.46793 9.02829C7.35453 8.92581 7.29884 8.83806 7.11573 8.47322C6.99607 8.23489 6.88474 7.98733 6.86836 7.92304C6.85198 7.85869 6.82173 7.76199 6.80115 7.70816C6.77504 7.63987 6.76369 7.50296 6.76369 7.25614C6.76369 6.89535 6.79836 6.67642 6.92131 6.26012C6.94871 6.16725 6.97096 6.08029 6.9708 6.06684C6.97012 6.02207 7.41598 5.15732 7.48733 5.06495C7.52597 5.01494 7.57679 4.93894 7.60028 4.89607C7.69354 4.72565 8.07286 4.20472 8.24619 4.00889C8.41528 3.81792 8.52068 3.86706 8.52068 4.13681C8.52068 4.2141 8.54394 4.34531 8.5724 4.42838C8.60594 4.52654 8.62423 4.64851 8.62468 4.77673C8.62501 4.88882 8.64732 5.05742 8.67634 5.16711C8.71576 5.31618 8.72739 5.44416 8.72739 5.72811C8.72739 5.97949 8.73958 6.13637 8.76586 6.22356C8.81976 6.40209 8.81976 7.18346 8.76586 7.36206C8.74472 7.4322 8.72739 7.53637 8.72739 7.59358C8.72739 7.69292 8.6032 8.09758 8.49434 8.3529C8.44502 8.46855 8.42763 8.57256 8.45755 8.57256C8.46549 8.57256 8.70094 8.33619 8.98079 8.04735C9.89588 7.10274 10.7002 6.31333 10.904 6.15977C10.9788 6.10341 11.0922 6.00868 11.1562 5.94928C11.2201 5.88988 11.3306 5.8023 11.4016 5.75471C11.4727 5.70713 11.5954 5.61108 11.6743 5.54126C11.7532 5.47144 11.918 5.3473 12.0404 5.26535C12.2667 5.11398 12.4086 4.97588 12.3822 4.93283C12.3741 4.91976 12.3359 4.90906 12.2973 4.90906C12.2014 4.90906 12.1214 4.84729 12.0598 4.72565C11.9869 4.58209 11.8538 4.17399 11.8538 4.09425C11.8538 4.05758 11.8306 3.96826 11.8021 3.89574C11.7603 3.78893 11.7504 3.70264 11.7504 3.44105C11.7504 3.17945 11.7603 3.09317 11.8021 2.98635C11.8306 2.91383 11.8539 2.81695 11.854 2.77104C11.8543 2.65019 12.1553 2.02328 12.3305 1.77817C12.4123 1.66385 12.5711 1.47412 12.6832 1.35655C12.7955 1.23901 12.8873 1.13201 12.8873 1.11878C12.8873 1.10556 12.9234 1.07176 12.9675 1.04367C13.0116 1.01561 13.1658 0.877073 13.3102 0.735829ZM89.6005 0.336142C89.5423 0.18786 89.5367 0.121761 89.5753 0.0486204C89.6267 -0.0476966 89.7257 -0.0108544 90.1149 0.249282C90.4492 0.472887 90.5499 0.559462 91.0369 1.04414C91.5591 1.56431 91.5916 1.60247 91.7778 1.91697C91.9276 2.17054 91.9824 2.2621 92.0238 2.35938C92.0501 2.42065 92.0708 2.48418 92.1065 2.59187C92.1591 2.74903 92.1843 2.87655 92.1843 2.98272C92.1843 3.07906 92.2044 3.19159 92.2357 3.27216C92.2642 3.34468 92.2877 3.43821 92.2877 3.48002C92.2877 3.52182 92.2642 3.61536 92.2357 3.68788C92.2022 3.77381 92.1843 3.88098 92.1843 3.99567C92.1843 4.17251 92.1121 4.42038 91.9763 4.71154C91.9108 4.85119 91.8751 4.88414 91.7643 4.90695C91.7051 4.91909 91.6805 4.93876 91.6805 4.97347C91.6805 5.02686 91.9472 5.26408 92.1843 5.42099C92.2625 5.47277 92.3889 5.57249 92.4661 5.64255C92.5427 5.71269 92.6707 5.81541 92.7501 5.87092C92.8295 5.92644 92.9413 6.01431 92.9984 6.06628C93.0548 6.1182 93.1656 6.20859 93.2438 6.26715C93.416 6.39647 95.0392 8.01664 95.2204 8.24029C95.5553 8.65451 95.6895 8.6904 95.5274 8.32247C95.4373 8.11716 95.3104 7.73359 95.3104 7.66519C95.3104 7.63476 95.2858 7.51371 95.2556 7.3962C95.2047 7.19983 95.2014 7.13728 95.2142 6.62389C95.2232 6.24442 95.2405 6.01937 95.2668 5.92234C95.2892 5.84145 95.3121 5.61609 95.3194 5.40272C95.3266 5.19551 95.3462 4.9909 95.3635 4.94803C95.3803 4.90516 95.4032 4.74731 95.4144 4.59727C95.4273 4.43174 95.4591 4.25292 95.4955 4.14258C95.548 3.98535 95.5654 3.95963 95.623 3.9529C95.6783 3.9464 95.7231 3.98356 95.8902 4.17375C96.0004 4.29951 96.1089 4.43747 96.1307 4.48035C96.153 4.52321 96.2207 4.61454 96.2822 4.6833C96.5159 4.94572 97.1707 6.32627 97.1707 6.55689C97.1707 6.59447 97.1942 6.69173 97.2227 6.77306C97.2931 6.97416 97.2931 7.34844 97.2232 7.61299C97.1953 7.71919 97.1718 7.83534 97.1712 7.87106C97.1701 7.97912 96.8508 8.6292 96.692 8.84812C96.436 9.20059 96.3292 9.27518 96.1748 9.21032C96.1178 9.18624 96.0859 9.18276 96.0859 9.20059C96.0859 9.24261 96.2615 9.52858 96.3862 9.68985C96.536 9.88403 96.829 10.2844 96.9325 10.436C96.9789 10.5043 97.0572 10.6187 97.1064 10.6901C97.1556 10.7616 97.2271 10.8785 97.2646 10.95C97.3021 11.0215 97.3865 11.1638 97.4525 11.2663C97.5179 11.3687 97.6157 11.524 97.6705 11.6112C97.784 11.7938 98.0944 12.3801 98.3851 12.9636C98.6166 13.4284 98.7922 13.7083 98.8285 13.6717C98.8436 13.6562 98.838 13.6048 98.8134 13.5327C98.7815 13.4415 98.7737 13.2839 98.7737 12.7558V12.0932L98.9566 11.5606C99.0572 11.2676 99.1595 10.9578 99.1841 10.8721C99.2087 10.7863 99.2529 10.6693 99.2825 10.6121C99.3116 10.5548 99.3502 10.4556 99.367 10.3916C99.3843 10.3277 99.4262 10.2192 99.4609 10.1507C99.4956 10.0821 99.5543 9.94157 99.5912 9.83841C99.6275 9.73524 99.7203 9.52605 99.7958 9.37356C99.9362 9.09186 100 9.02784 100.078 9.09259C100.159 9.16014 100.362 9.62786 100.532 10.1369C100.68 10.5826 100.711 10.7038 100.711 10.8439C100.711 10.9518 100.73 11.0608 100.763 11.1449C100.808 11.2614 100.814 11.3378 100.814 11.8019C100.814 12.3271 100.814 12.3271 100.688 12.6917C100.55 13.0936 100.505 13.1923 100.401 13.3274C100.362 13.3774 100.31 13.4579 100.286 13.5062C100.227 13.6197 99.8176 14.0478 99.7164 14.1002C99.6734 14.1225 99.5873 14.1798 99.5252 14.2277C99.3608 14.3533 99.2557 14.348 99.1137 14.2067L99.0052 14.0987V14.1944C99.0052 14.2788 99.0578 14.4351 99.2428 14.8993C99.3524 15.1749 99.5979 15.8697 99.651 16.0555C99.6818 16.1627 99.7522 16.3919 99.8081 16.5648C99.864 16.7378 99.9099 16.9082 99.9099 16.9437C99.9099 16.9791 99.9317 17.0832 99.9585 17.1749C99.9854 17.2666 100.033 17.4586 100.064 17.6015C100.096 17.7444 100.138 17.9131 100.158 17.9764C100.178 18.0397 100.194 18.1597 100.194 18.2433C100.194 18.3287 100.217 18.4601 100.245 18.5431C100.274 18.6244 100.297 18.7549 100.297 18.8331C100.297 18.9845 100.377 19.1918 100.445 19.2181C100.525 19.249 100.588 19.1353 100.609 18.9222C100.636 18.6505 100.698 18.4678 100.888 18.0952C101.052 17.7765 101.15 17.6195 101.323 17.3983C101.377 17.3294 101.445 17.2378 101.473 17.1948C101.501 17.1518 101.574 17.0561 101.634 16.9823C101.694 16.9084 101.785 16.7837 101.837 16.7051C101.888 16.6265 101.986 16.5037 102.054 16.4323C102.122 16.3608 102.207 16.2556 102.243 16.1984C102.278 16.1413 102.396 16.001 102.505 15.8866C102.614 15.7723 102.744 15.6291 102.795 15.5684C102.895 15.4487 102.953 15.432 103.018 15.5044C103.133 15.632 103.139 15.6939 103.139 16.6903C103.139 17.5773 103.136 17.6471 103.088 17.7704C103.06 17.8429 103.036 17.9352 103.036 17.9755C103.036 18.0159 102.99 18.1749 102.933 18.329C102.876 18.4831 102.83 18.628 102.829 18.6509C102.829 18.7141 102.689 18.9836 102.557 19.1734C102.418 19.375 102.149 19.6548 102.041 19.7119C101.999 19.7345 101.918 19.787 101.861 19.8285C101.703 19.9437 101.472 20.0748 101.364 20.1108C101.31 20.1286 101.185 20.1821 101.086 20.2299C100.987 20.2776 100.883 20.3167 100.856 20.3167C100.828 20.3167 100.754 20.2863 100.691 20.2491C100.605 20.1983 100.569 20.1889 100.547 20.2114C100.528 20.2295 100.514 20.365 100.509 20.5587C100.501 20.8318 100.508 20.8954 100.553 21.0131C100.605 21.1441 100.607 21.1977 100.607 22.2523C100.607 23.2934 100.604 23.362 100.556 23.4865C100.512 23.5995 100.504 23.6796 100.504 24.0451C100.504 24.4106 100.496 24.4909 100.452 24.6038C100.413 24.704 100.401 24.7969 100.401 24.9911C100.401 25.1915 100.389 25.2725 100.348 25.3659C100.297 25.4832 100.299 25.599 100.353 25.6328C100.396 25.659 100.476 25.5625 100.495 25.4641C100.504 25.4125 100.551 25.2923 100.599 25.197C100.646 25.1017 100.685 25.0161 100.685 25.0068C100.685 24.9975 100.756 24.8884 100.843 24.7643C101.019 24.5137 101.662 23.8547 101.799 23.7845C101.847 23.7597 101.934 23.6971 101.993 23.6454C102.146 23.5097 102.753 23.072 102.933 22.9667C102.982 22.9376 103.163 22.8147 103.334 22.6934C103.504 22.5722 103.694 22.4417 103.757 22.4035C103.862 22.3391 103.875 22.3369 103.938 22.3725C104.013 22.4156 104.015 22.4328 103.971 22.772C103.956 22.8863 103.926 23.0266 103.904 23.0838C103.883 23.141 103.865 23.2215 103.864 23.2629C103.864 23.3042 103.786 23.5672 103.691 23.8475C103.512 24.3809 103.285 24.8691 103.075 25.1728C102.925 25.3888 102.476 25.858 102.362 25.9164C102.314 25.9415 102.233 25.9939 102.183 26.0328C102.047 26.1393 101.964 26.1763 101.546 26.3158C101.225 26.4228 101.121 26.4459 100.905 26.4583C100.763 26.4664 100.602 26.4805 100.548 26.4897C100.47 26.5032 100.432 26.4936 100.35 26.4392C100.249 26.372 100.249 26.372 100.197 26.4562C100.15 26.5324 100.108 26.6862 100.033 27.0591C100.018 27.1306 99.9848 27.2563 99.958 27.3385C99.9317 27.4207 99.9099 27.517 99.9099 27.5524C99.9099 27.5877 99.8937 27.6608 99.8741 27.7147C99.8394 27.8093 99.769 28.0416 99.651 28.4492C99.5766 28.7079 99.3261 29.4078 99.2484 29.5756C99.2149 29.6491 99.1869 29.7259 99.1864 29.7461C99.1864 29.7664 99.1237 29.9184 99.0477 30.0839C98.9717 30.2494 98.9012 30.4141 98.8911 30.4498C98.8811 30.4855 98.8347 30.6025 98.7871 30.7096C98.526 31.3001 98.4673 31.4834 98.5462 31.457C98.5629 31.4512 98.6334 31.3479 98.7021 31.2274C98.8576 30.9544 99.2769 30.5191 99.6124 30.2825C99.8305 30.1288 100.475 29.8002 100.558 29.8002C100.579 29.8002 100.677 29.7612 100.776 29.7134C100.875 29.6657 101.002 29.6115 101.059 29.593C101.117 29.5744 101.22 29.5307 101.289 29.4956C101.359 29.4607 101.539 29.3915 101.69 29.3421C101.841 29.2926 102.074 29.213 102.209 29.1651C102.66 29.0051 102.803 28.9656 102.901 28.9738C102.986 28.9809 102.999 28.9906 103.006 29.0576C103.016 29.1434 102.765 29.7002 102.648 29.8522C102.609 29.9022 102.542 30.014 102.499 30.1006C102.456 30.1872 102.35 30.3567 102.264 30.4773C102.069 30.752 101.335 31.4887 101.059 31.6862C100.864 31.8265 100.628 31.956 100.566 31.9565C100.551 31.9567 100.412 31.9991 100.257 32.0507C99.9747 32.1444 99.9731 32.1446 99.4123 32.1578C98.8744 32.1704 98.8436 32.1684 98.6887 32.1117C98.4612 32.0281 98.4371 32.0017 98.4371 31.8359C98.4371 31.751 98.4259 31.697 98.408 31.697C98.3443 31.697 98.2079 31.8939 98.0256 32.2472C97.9205 32.4519 97.8025 32.6603 97.7645 32.7103C97.7259 32.7603 97.6566 32.8772 97.6107 32.9701C97.5649 33.063 97.5011 33.1741 97.4704 33.217C97.4391 33.2598 97.3703 33.3745 97.3177 33.4719C97.2646 33.5693 97.1869 33.6979 97.1438 33.7577C97.0001 33.9586 96.8877 34.1257 96.8441 34.2043C96.8206 34.2471 96.7418 34.3537 96.6697 34.441C96.597 34.5283 96.4505 34.7207 96.3443 34.8686C96.2375 35.0165 96.1021 35.1928 96.0429 35.2603C95.9836 35.3279 95.8718 35.4686 95.7946 35.5732C95.7175 35.6777 95.5866 35.8386 95.5044 35.9308C95.3719 36.079 95.2366 36.3081 95.2646 36.3364C95.2701 36.3419 95.3557 36.2814 95.4541 36.2018C95.5531 36.1222 95.7326 36.0103 95.8533 35.9531C96.1318 35.8212 96.7273 35.6246 96.9123 35.603C96.9906 35.5939 97.0997 35.5708 97.155 35.5515C97.216 35.53 97.3686 35.5164 97.5481 35.5164C97.7801 35.5164 97.8679 35.5056 97.9719 35.4644C98.0904 35.4175 98.1637 35.4125 98.734 35.4125C99.3043 35.4125 99.3782 35.4075 99.4961 35.3605C99.6583 35.2962 99.9239 35.2902 100.007 35.349C100.13 35.4354 100.096 35.4856 99.5157 36.0632C99.0684 36.5086 98.9018 36.6556 98.6177 36.8552C98.1771 37.1648 97.703 37.4109 97.3742 37.5009C97.1399 37.565 97.0907 37.569 96.5416 37.569C96.0194 37.569 95.945 37.5636 95.8276 37.5171C95.7555 37.4885 95.6671 37.4651 95.6319 37.4651C95.5503 37.4651 95.3093 37.3634 95.0644 37.2256C94.7669 37.0585 94.7524 36.9481 94.9934 36.677C95.1432 36.5078 95.198 36.4258 95.16 36.4258C95.1242 36.4258 94.7563 36.7699 94.1865 37.3353C93.9025 37.6175 93.6117 37.8919 93.5407 37.9452C93.4697 37.9985 93.2942 38.1516 93.1516 38.2855C93.0084 38.4194 92.8105 38.5892 92.7121 38.663C92.6137 38.7367 92.4895 38.8365 92.4359 38.8846C92.3828 38.9327 92.3285 38.9721 92.3151 38.9721C92.3017 38.9721 92.2212 39.0276 92.1356 39.0955C92.0501 39.1634 91.8689 39.3008 91.7325 39.4008C91.5966 39.5008 91.4199 39.6323 91.3405 39.6931C91.2611 39.7538 91.1862 39.8035 91.1745 39.8035C91.1627 39.8035 91.0682 39.8738 90.9642 39.9598C90.7137 40.1677 90.6589 40.2111 90.6668 40.2305C90.669 40.2372 90.6791 40.241 90.6908 40.2477C90.7322 40.271 90.8379 40.2471 91.1638 40.1402C91.3025 40.0945 91.3936 40.0893 92.0478 40.0893C92.7154 40.0893 92.7876 40.0936 92.9078 40.1413C92.9905 40.1741 93.0996 40.1933 93.2047 40.1933C93.3098 40.1933 93.4188 40.2123 93.5022 40.2452C93.5743 40.2738 93.6906 40.2972 93.7605 40.2972C93.8304 40.2972 93.9467 40.3206 94.0188 40.3491C94.0909 40.3777 94.2011 40.4011 94.2643 40.4011C94.3269 40.4011 94.4376 40.4245 94.5097 40.4531C94.5818 40.4817 94.6747 40.505 94.7166 40.505C94.758 40.505 94.8508 40.5284 94.9229 40.557C94.9951 40.5856 95.0879 40.609 95.1292 40.609C95.3635 40.609 95.4446 40.8118 95.2506 40.9116C95.2053 40.9348 95.1276 40.9857 95.0778 41.0246C95.028 41.0635 94.7669 41.2077 94.4969 41.345C94.1099 41.5419 93.8969 41.6307 93.4915 41.7644C93.0621 41.906 92.9475 41.9341 92.801 41.9341C92.6864 41.9341 92.5801 41.9521 92.494 41.986C92.4079 42.0203 92.3022 42.038 92.1843 42.038C92.0663 42.038 91.9606 42.0203 91.8739 41.986C91.8018 41.9574 91.6911 41.9341 91.6279 41.9341C91.5647 41.9341 91.4227 41.9092 91.3126 41.8789C91.0749 41.8135 90.4985 41.5289 90.3883 41.4225C90.3458 41.3813 90.2267 41.2735 90.1244 41.1829C89.9019 40.9869 89.8677 40.8952 89.9561 40.7332C89.9852 40.6791 90.0014 40.6349 89.9913 40.6349C89.9287 40.6349 89.4898 40.8448 89.2387 40.9948C88.8948 41.1999 87.9717 41.6715 87.7341 41.7633C87.4372 41.878 86.9798 42.0656 86.8098 42.1424C86.7175 42.1842 86.5258 42.2589 86.3837 42.3084C86.2417 42.358 86.032 42.4332 85.9185 42.4754C85.805 42.5177 85.6652 42.5642 85.6082 42.5787C85.4438 42.6205 85.2755 42.6878 85.2347 42.7281C85.1503 42.8115 85.2409 42.8299 85.8101 42.8446C86.2495 42.856 86.3765 42.8675 86.4536 42.9031C86.5068 42.9274 86.5744 42.9474 86.6052 42.9474C86.7108 42.9474 87.119 43.1023 87.4478 43.2674C87.6295 43.3589 87.8252 43.4487 87.8822 43.467C87.9393 43.4853 88.0958 43.5557 88.2311 43.6235C88.3659 43.6913 88.5521 43.7786 88.6443 43.8176C88.7366 43.8566 88.906 43.9496 89.0201 44.0243C89.1341 44.099 89.322 44.2096 89.4378 44.2701C89.6597 44.3863 89.695 44.4259 89.6497 44.5103C89.6122 44.5809 89.3774 44.6876 89.2588 44.6879C89.2063 44.6881 89.104 44.7116 89.0318 44.7402C88.9597 44.7688 88.8495 44.7922 88.7864 44.7922C88.7237 44.7922 88.613 44.8155 88.5409 44.8441C88.4548 44.8784 88.3491 44.896 88.2311 44.896C88.1132 44.896 88.0075 44.9138 87.9208 44.948C87.8051 44.994 87.729 45 87.2622 45C86.7953 45 86.7192 44.994 86.6029 44.948C86.5308 44.9194 86.4425 44.896 86.4055 44.896C86.2993 44.896 85.8906 44.749 85.578 44.5985C85.3191 44.4737 85.2643 44.4343 85.0457 44.2165C84.6577 43.8298 84.5089 43.6492 84.4128 43.446C84.3295 43.2715 84.3244 43.2479 84.3518 43.1571C84.368 43.1027 84.3809 43.045 84.3809 43.0288C84.3809 42.9888 84.2708 42.9918 84.112 43.0361C83.9543 43.0801 83.6104 43.1549 82.8438 43.312C82.7583 43.3295 82.6017 43.3525 82.4949 43.3631C82.3881 43.3736 82.2579 43.4014 82.2053 43.4247C82.1488 43.4496 82.0398 43.467 81.9414 43.467C81.8346 43.467 81.7256 43.4859 81.6422 43.519C81.531 43.5632 81.4504 43.571 81.1038 43.571C80.6844 43.571 80.6347 43.5595 80.6347 43.4633C80.6347 43.4383 80.6626 43.3852 80.6967 43.3451C80.7594 43.2722 80.7594 43.2722 81.2072 43.2576C81.5489 43.2465 81.678 43.2327 81.7513 43.1992C81.8038 43.175 81.9056 43.1552 81.9766 43.1552C82.0476 43.1552 82.1645 43.1319 82.2366 43.1033C82.3194 43.0706 82.4284 43.0513 82.5324 43.0513C82.6274 43.0513 82.7555 43.0307 82.8349 43.0024C83.1435 42.8932 83.3454 42.8435 83.4785 42.844C83.5718 42.8444 83.7273 42.8101 83.942 42.7416C84.1198 42.685 84.3518 42.619 84.4586 42.5951C84.9071 42.4946 86.2741 42.0491 86.5219 41.9229C86.5884 41.8891 86.6946 41.8474 86.7578 41.8303C86.821 41.8132 86.9602 41.7553 87.0676 41.7016C87.1744 41.648 87.3494 41.571 87.4556 41.5305C87.7212 41.4296 89.1755 40.7002 89.289 40.611C89.3394 40.5713 89.4881 40.4833 89.6195 40.4155C89.7509 40.3477 89.9136 40.249 89.9812 40.1963C90.1138 40.0931 90.3458 39.9484 90.5258 39.8573C90.7428 39.7474 91.539 39.1805 91.9349 38.8543C92.0221 38.7824 92.1345 38.6956 92.1843 38.6614C92.234 38.6271 92.3442 38.539 92.4297 38.4655C92.5147 38.392 92.6372 38.2955 92.7009 38.2508C92.7646 38.2063 92.9391 38.0507 93.0884 37.9051C93.2377 37.7595 93.4177 37.6022 93.4893 37.5555C93.6403 37.4561 94.8212 36.2724 94.9011 36.1397C94.9313 36.0898 95.0482 35.9507 95.1611 35.8306C95.2741 35.7104 95.415 35.5467 95.4731 35.4668C95.5318 35.3869 95.6515 35.2397 95.7387 35.1397C95.8259 35.0396 95.916 34.9227 95.9383 34.8798C95.9607 34.837 96.0065 34.7726 96.0401 34.7369C96.1474 34.623 96.4443 34.2211 96.6026 33.9749C96.687 33.8438 96.7882 33.69 96.8279 33.6332C96.8671 33.5763 96.9409 33.4594 96.9917 33.3733C97.0426 33.2873 97.1774 33.0708 97.292 32.8922C97.4061 32.7135 97.538 32.4914 97.5844 32.3985C97.6308 32.3056 97.7007 32.1829 97.7393 32.1257C97.8416 31.976 98.3991 30.8426 98.5059 30.5681C98.5557 30.4401 98.6289 30.2706 98.668 30.1913C98.7077 30.112 98.7547 30.0003 98.7726 29.9432C98.7911 29.886 98.833 29.7848 98.866 29.7183C98.9213 29.6075 99.1019 29.1085 99.1657 28.8908C99.1802 28.8408 99.2535 28.6012 99.3284 28.3582C99.4777 27.8717 99.5129 27.7458 99.5537 27.5528C99.5683 27.4813 99.6024 27.3556 99.6292 27.2734C99.6555 27.1911 99.6773 27.0972 99.6773 27.0646C99.6773 27.032 99.7002 26.9388 99.7287 26.8575C99.7572 26.7762 99.7807 26.6747 99.7807 26.632C99.7807 26.5893 99.8037 26.495 99.8322 26.4225C99.8646 26.3405 99.8842 26.2294 99.8842 26.1284C99.8842 26.0327 99.9049 25.9054 99.9356 25.8182C99.9669 25.7287 99.9871 25.6038 99.9871 25.5018C99.9871 25.3945 100.006 25.2853 100.039 25.2013C100.077 25.1043 100.09 25.0082 100.09 24.8376C100.09 24.667 100.104 24.5708 100.142 24.4739C100.188 24.3562 100.194 24.2808 100.194 23.7723C100.194 23.2639 100.2 23.1884 100.245 23.0708C100.292 22.9517 100.297 22.8777 100.297 22.3043C100.297 21.7309 100.292 21.6569 100.245 21.5378C100.199 21.4188 100.194 21.344 100.193 20.7639C100.193 20.1804 100.188 20.1115 100.142 20.0085C100.103 19.923 100.09 19.8389 100.09 19.6652C100.09 19.4964 100.077 19.4001 100.039 19.3034C100.005 19.2172 99.9871 19.1103 99.9871 18.9947C99.9871 18.8855 99.9675 18.76 99.9356 18.6668C99.9071 18.5835 99.8842 18.4481 99.8842 18.3648C99.8842 18.2753 99.8629 18.1604 99.8322 18.0822C99.8037 18.0097 99.7807 17.9117 99.7807 17.8644C99.7807 17.8172 99.7572 17.7105 99.7287 17.6275C99.7002 17.5444 99.6773 17.437 99.6773 17.3889C99.6773 17.3408 99.6538 17.2348 99.6253 17.1535C99.5973 17.0722 99.5739 16.98 99.5739 16.9486C99.5739 16.9172 99.5515 16.8292 99.5241 16.7529C99.4967 16.6766 99.4083 16.4037 99.3273 16.1465C99.0684 15.3242 98.9297 14.914 98.8671 14.7881C98.833 14.7207 98.7911 14.6187 98.7732 14.5616C98.7547 14.5044 98.6882 14.3466 98.625 14.2108C98.5612 14.075 98.4891 13.9055 98.464 13.834C98.4041 13.6648 97.9345 12.7212 97.8428 12.5869C97.8036 12.5297 97.6884 12.3193 97.5867 12.1192C97.4167 11.7868 97.2512 11.5063 97.0421 11.1968C96.9985 11.1325 96.9112 10.9981 96.8486 10.898C96.715 10.6855 96.6082 10.5273 96.4483 10.3051L96.1966 9.95496C96.1217 9.85067 96.0468 9.73963 96.0306 9.70813C96.0144 9.67663 95.9053 9.55086 95.789 9.42868C95.6727 9.30645 95.5335 9.1377 95.4798 9.05366C95.4267 8.96968 95.2931 8.80656 95.1829 8.69124C95.0733 8.57599 94.9537 8.43486 94.9173 8.37771C94.8273 8.23652 93.3148 6.72367 93.1532 6.61354C93.0822 6.56505 92.9419 6.45069 92.8418 6.35934C92.7417 6.26799 92.6198 6.16506 92.5706 6.13058C92.5214 6.09615 92.4057 5.99895 92.3134 5.91458C92.2212 5.83026 92.1121 5.74391 92.0713 5.72271C92.0305 5.7015 91.9259 5.62686 91.8387 5.55683C91.7515 5.48681 91.6279 5.38908 91.5642 5.33969C91.4395 5.24361 90.4688 4.58453 90.3324 4.50316C90.2871 4.47632 90.1999 4.42147 90.1384 4.38127C89.8375 4.18446 89.5669 4.02711 89.4786 3.99829C89.4249 3.98073 89.3388 3.93313 89.2874 3.89252C89.2359 3.8519 89.0151 3.72787 88.7964 3.61687L88.3989 3.41507L87.8045 3.4014C87.4455 3.39313 87.185 3.37604 87.1458 3.35816C87.1101 3.34192 86.9591 3.29059 86.8098 3.24413C86.5375 3.15927 86.0656 2.93839 85.9157 2.82584C85.5719 2.5665 85.4751 2.48497 85.2487 2.26329C85.1078 2.12509 84.9591 1.96524 84.9177 1.90808C84.8763 1.85092 84.7533 1.70641 84.6443 1.58691C84.5352 1.46744 84.4256 1.33883 84.4005 1.3011C84.3401 1.20894 84.3423 1.09847 84.4055 1.06456C84.4351 1.04843 84.6772 1.03767 85.0116 1.03767C85.507 1.03767 85.5819 1.04336 85.6988 1.08964C85.7933 1.12705 85.8911 1.1416 86.0477 1.1416C86.2043 1.1416 86.3021 1.15615 86.3966 1.19356C86.4687 1.22214 86.5649 1.24568 86.6107 1.24586C86.9244 1.24711 87.8889 1.73774 88.1238 2.01567C88.3564 2.2906 88.6097 2.75987 88.646 2.98204C88.6757 3.16592 88.7131 3.20222 89.071 3.39105C89.227 3.47366 89.4305 3.59021 89.5228 3.65007C89.615 3.70996 89.799 3.81358 89.9315 3.88033C90.0634 3.94711 90.3022 4.08697 90.461 4.19116C90.9804 4.53148 91.0844 4.51675 90.7489 4.15034C90.655 4.04813 90.5449 3.87095 90.3933 3.57873C90.1898 3.18712 90.144 3.07173 90.0646 2.75251C90.0483 2.6882 90.0131 2.55876 89.9857 2.46486C89.9583 2.37096 89.9365 2.26835 89.9365 2.23687C89.9365 2.20537 89.913 2.11306 89.8845 2.03176C89.856 1.95044 89.8331 1.84118 89.8331 1.78895C89.8331 1.73672 89.8096 1.62079 89.7811 1.53133C89.7526 1.44188 89.7296 1.32529 89.7296 1.27226C89.7296 1.21924 89.7123 1.11845 89.6911 1.0483C89.6698 0.977726 89.6525 0.819596 89.6525 0.694361C89.6519 0.529762 89.6379 0.431991 89.6005 0.336142ZM50.8468 4.48562C50.8985 4.44469 51.0031 4.382 51.0794 4.3463C51.3213 4.23304 51.4524 4.26776 51.5536 4.4719C51.5642 4.49326 51.573 4.51113 51.5805 4.52959C51.6185 4.62435 51.6184 4.73445 51.6183 5.40973C51.618 6.21638 51.618 6.21658 51.5519 6.3594C51.4602 6.55768 51.4331 6.58198 51.1405 6.72907C50.9984 6.80057 50.8244 6.90041 50.7537 6.95104C50.6832 7.00172 50.5611 7.07237 50.4824 7.10809C50.4038 7.14381 50.2988 7.20484 50.2491 7.24371C50.1993 7.28258 50.0366 7.37572 49.8873 7.45076C49.7382 7.52586 49.5764 7.62216 49.5279 7.66485C49.4794 7.70754 49.334 7.79456 49.2049 7.85829C48.9207 7.99858 48.7931 8.00229 48.6301 7.875C48.5755 7.83236 48.3244 7.69016 48.0722 7.55904C47.8199 7.42793 47.5569 7.27976 47.4877 7.22981C47.4186 7.17986 47.3528 7.13897 47.3417 7.13897C47.3305 7.13897 47.2824 7.10916 47.2349 7.07265C47.1462 7.00459 47.071 6.88674 47.071 6.81559C47.071 6.73633 47.2625 6.56258 47.4596 6.46296C47.5682 6.408 47.6928 6.33285 47.7365 6.29589C47.7801 6.25899 47.8837 6.19791 47.9666 6.16016C48.0496 6.12242 48.1582 6.05976 48.2079 6.02094C48.2576 5.98208 48.4199 5.88904 48.5686 5.81417C48.7172 5.73924 48.8891 5.6394 48.9506 5.59221C49.0121 5.54502 49.1695 5.45108 49.3005 5.38344C49.4314 5.31583 49.5793 5.22895 49.629 5.19039C49.6787 5.15183 49.8357 5.06534 49.9778 4.9982C50.1199 4.93106 50.2774 4.84295 50.3277 4.80242C50.3781 4.76191 50.4943 4.69077 50.5861 4.64437C50.6779 4.59796 50.7952 4.52651 50.8468 4.48562ZM52.4195 5.36673C52.4195 4.43417 52.4241 4.40185 52.5684 4.32008C52.6981 4.24658 52.8559 4.28209 53.1098 4.44191C53.2346 4.52049 53.4414 4.64102 53.5693 4.70977C53.6972 4.77852 53.8484 4.86646 53.9052 4.90518C53.962 4.94392 54.1035 5.02361 54.2197 5.08225C54.3359 5.14089 54.5306 5.25423 54.6525 5.3341C54.7743 5.41397 54.9525 5.51506 55.0485 5.55874C55.1444 5.60244 55.2636 5.67034 55.3134 5.70966C55.3631 5.74903 55.4794 5.81929 55.5717 5.86581C55.6641 5.91238 55.7803 5.98207 55.8301 6.02066C55.8798 6.05931 56.0426 6.15735 56.1919 6.23852C56.8779 6.61185 57.039 6.75669 56.9652 6.93489C56.9428 6.98929 56.8712 7.04031 56.6739 7.14229C56.5296 7.21665 56.3535 7.32111 56.2825 7.37443C56.1024 7.50954 55.2275 7.94441 55.1358 7.94441C55.0494 7.94441 54.4396 7.65726 54.3057 7.55353C54.2559 7.51494 54.1397 7.44536 54.0473 7.39879C53.9549 7.35221 53.8386 7.28258 53.7889 7.24393C53.7392 7.20529 53.5764 7.10724 53.4271 7.02607C53.278 6.94491 53.0842 6.83477 52.9967 6.78139C52.909 6.72801 52.7796 6.65286 52.7088 6.61444C52.6017 6.55627 52.5666 6.51741 52.4998 6.38291C52.4195 6.22131 52.4195 6.22096 52.4195 5.36673ZM13.7768 4.80367C13.8205 4.80287 13.9085 4.78016 13.9725 4.75316C14.1398 4.68257 14.5179 4.68257 14.696 4.75316C14.7681 4.78175 14.8819 4.80518 14.9488 4.80526C15.1179 4.80544 15.7162 5.01826 16.1171 5.22079C16.2947 5.31053 16.5309 5.42315 16.642 5.47103C16.7531 5.51894 16.9077 5.60206 16.9855 5.65577C17.0633 5.70954 17.1686 5.77851 17.2195 5.80911C17.3751 5.90271 17.5381 6.05233 17.5381 6.10149C17.5381 6.12714 17.5174 6.16702 17.492 6.19014C17.4337 6.24324 17.1384 6.33729 17.0288 6.33774C16.9831 6.33791 16.8868 6.36148 16.8147 6.39006C16.7426 6.41863 16.6554 6.44203 16.6209 6.44203C16.5864 6.44203 16.4993 6.46543 16.4271 6.49401C16.3406 6.52826 16.2351 6.54593 16.1171 6.54593C15.9991 6.54593 15.8935 6.56364 15.807 6.5979C15.6973 6.64138 15.615 6.64987 15.3032 6.64987C14.9914 6.64987 14.909 6.64138 14.7993 6.5979C14.7272 6.56932 14.6151 6.54593 14.5503 6.54593C14.2126 6.54593 13.16 6.05064 12.8312 5.73705C12.7169 5.62792 12.701 5.51949 12.7805 5.38849C12.8772 5.22916 13.5964 4.80697 13.7768 4.80367ZM88.9916 4.80367C89.0637 4.80287 89.175 4.78016 89.2387 4.75316C89.4059 4.68257 89.7839 4.68257 89.9622 4.75316C90.0344 4.78175 90.1255 4.80513 90.1646 4.80513C90.4867 4.80513 91.3058 5.36429 91.3058 5.58395C91.3058 5.69053 91.0973 5.85315 90.6209 6.11871C90.2681 6.31536 89.6843 6.54593 89.5395 6.54593C89.5032 6.54593 89.4143 6.56932 89.3422 6.5979C89.2298 6.64245 89.1498 6.64987 88.7864 6.64987C88.4229 6.64987 88.3435 6.64245 88.2311 6.5979C88.1445 6.56364 88.0388 6.54593 87.9208 6.54593C87.8028 6.54593 87.6972 6.52826 87.6111 6.49401C87.5389 6.46543 87.4517 6.44203 87.417 6.44203C87.3824 6.44203 87.2951 6.41863 87.2236 6.39006C87.1514 6.36148 87.0564 6.33808 87.0133 6.33808C86.9362 6.33808 86.7097 6.28268 86.5744 6.2307C86.4788 6.19397 86.4447 6.10729 86.4905 6.01864C86.5107 5.97999 86.5375 5.94838 86.5492 5.94838C86.5615 5.94838 86.6337 5.90501 86.7103 5.85197C87.0609 5.60824 87.8705 5.1726 88.0768 5.11666C88.14 5.09961 88.2462 5.0577 88.3133 5.02349C88.5398 4.90804 88.8574 4.80518 88.9916 4.80367ZM51.2348 7.65574C51.2724 7.62885 51.4521 7.53086 51.6342 7.43788C51.8162 7.34496 51.9931 7.26891 52.0273 7.26891C52.0867 7.26891 52.6644 7.55696 52.8049 7.65664C52.8416 7.68268 52.9472 7.74208 53.0396 7.7886C53.132 7.83512 53.2482 7.90504 53.298 7.94391C53.3477 7.98278 53.4956 8.06996 53.6265 8.13758C53.7575 8.20519 53.9147 8.29901 53.976 8.34604C54.0372 8.39312 54.1685 8.47294 54.2675 8.52345C54.3667 8.57402 54.4943 8.66374 54.5511 8.72286L54.6545 8.83035V10.2078V11.5853L54.5217 11.707C54.3672 11.8488 54.2001 11.964 53.9827 12.0788C53.8974 12.1238 53.7593 12.2073 53.6757 12.2644C53.5921 12.3213 53.4235 12.415 53.3011 12.4724C53.1786 12.5298 53.0377 12.6087 52.9879 12.6477C52.9382 12.6867 52.7895 12.7731 52.6575 12.8396C52.5255 12.9062 52.3614 13.0011 52.2927 13.0507C52.0885 13.1983 52.061 13.1958 51.681 12.9965C51.4974 12.9002 51.2985 12.784 51.239 12.7384C51.1795 12.6928 51.0283 12.6104 50.9031 12.5553C50.7779 12.5003 50.6231 12.4182 50.5592 12.373C50.4952 12.3277 50.3266 12.2284 50.1845 12.1524C50.0424 12.0763 49.8865 11.9841 49.838 11.9474C49.7894 11.9108 49.6734 11.8391 49.58 11.7881C49.4363 11.7097 49.3994 11.6745 49.3388 11.5579C49.3297 11.5403 49.3217 11.525 49.3148 11.5093C49.2673 11.4013 49.2673 11.2724 49.2673 10.2604C49.2673 9.10086 49.2673 9.10063 49.3409 8.94476C49.4489 8.71616 49.657 8.54646 50.1716 8.2674C50.3208 8.18646 50.4777 8.09404 50.5204 8.06203C50.563 8.03003 50.7258 7.93648 50.8821 7.85419C51.0384 7.77184 51.1971 7.68257 51.2348 7.65574ZM46.4181 7.90824C46.4358 7.88968 46.4569 7.87427 46.4818 7.85317C46.5238 7.81763 46.5906 7.78854 46.6301 7.78854C46.7178 7.78854 47.0761 7.95116 47.2002 8.04735C47.2499 8.08588 47.4999 8.22566 47.7557 8.35791C48.0808 8.52609 48.2558 8.63308 48.3371 8.71346L48.4534 8.82849V10.2069V11.5853L48.3227 11.707C48.0986 11.9157 47.9258 12.025 47.4586 12.2534C47.2099 12.3749 46.9541 12.5104 46.8901 12.5543C46.8015 12.6152 46.7454 12.6343 46.6538 12.6343C46.5134 12.6343 46.4514 12.5885 46.3741 12.4278C46.3228 12.3213 46.3217 12.2747 46.3217 10.2071C46.3217 8.22488 46.316 8.01472 46.4181 7.90824ZM57.0451 7.9434C57.0954 7.9038 57.1765 7.85374 57.2257 7.83208C57.4276 7.74382 57.5511 7.80531 57.6372 8.03694C57.6892 8.17729 57.6904 8.22257 57.6904 10.2591C57.6904 12.1894 57.696 12.3853 57.6015 12.4931C57.5852 12.5116 57.5662 12.5276 57.5433 12.5494C57.3918 12.6939 57.3415 12.681 56.7605 12.35C56.6397 12.2812 56.349 12.1282 56.1142 12.0099C55.8797 11.8917 55.6645 11.7692 55.6361 11.7377C55.5863 11.6823 55.5844 11.6371 55.577 10.3256C55.5728 9.58044 55.576 8.93379 55.5842 8.88863C55.613 8.72927 55.7727 8.61232 56.3831 8.30402C56.6968 8.14528 56.9948 7.983 57.0451 7.9434ZM9.22793 8.72094C9.51913 8.56513 9.91377 8.41511 10.0968 8.39059C10.1749 8.38013 10.4599 8.37 10.7299 8.36814C11.1503 8.36522 11.2469 8.37219 11.4016 8.41669C11.501 8.44526 11.6293 8.46866 11.6866 8.46866C11.7441 8.46866 11.8572 8.49206 11.938 8.52064C12.0189 8.54921 12.1198 8.57256 12.1622 8.57256C12.2047 8.57256 12.2984 8.59596 12.3706 8.62453C12.4426 8.65311 12.5257 8.67651 12.555 8.67651C12.6368 8.67651 13.0746 8.83024 13.126 8.87698C13.2344 8.97559 13.1297 9.12482 12.8541 9.2646C12.78 9.30212 12.6787 9.36495 12.629 9.40421C12.5118 9.49657 11.7892 9.86012 11.5707 9.93662C10.7863 10.2111 10.7652 10.2158 10.2518 10.2285C9.84259 10.2387 9.78517 10.2346 9.64706 10.1856C9.56314 10.1559 9.44683 10.1313 9.38868 10.1311C9.24672 10.1305 8.84878 10.0016 8.62736 9.88464C8.37301 9.75026 8.35472 9.69671 8.47779 9.44634C8.60589 9.18563 8.91129 8.89031 9.22793 8.72094ZM92.3514 8.46855C92.4085 8.46849 92.5309 8.44599 92.6232 8.4186C92.7641 8.37686 92.8782 8.36837 93.3221 8.36668C93.7896 8.36494 93.8701 8.3709 93.9998 8.41669C94.0803 8.44526 94.1698 8.46866 94.1983 8.46866C94.2687 8.46866 94.5835 8.59899 94.8279 8.72944C95.0605 8.85364 95.3344 9.09923 95.4334 9.27197C95.4709 9.33744 95.5268 9.42609 95.5581 9.46896C95.6951 9.65779 95.6604 9.75274 95.4038 9.8883C95.2176 9.98696 94.9995 10.0592 94.7423 10.1074C94.664 10.1221 94.5013 10.1572 94.3806 10.1855C94.2162 10.2239 94.0697 10.2367 93.8002 10.2361C93.4496 10.2355 93.3775 10.2251 92.9078 10.108C92.6545 10.045 91.5826 9.54157 91.4093 9.40432C91.3595 9.36495 91.2483 9.29717 91.1621 9.25369C90.9871 9.16498 90.8406 9.04005 90.8406 8.97891C90.8406 8.9136 90.9458 8.83327 91.0855 8.79233C91.1571 8.7714 91.3243 8.71335 91.4579 8.6634C91.6128 8.60529 91.7459 8.57256 91.8264 8.57256C91.8963 8.57256 92.0193 8.54921 92.0998 8.52064C92.1809 8.49206 92.2939 8.46861 92.3514 8.46855ZM48.7247 12.5431C48.7744 12.5045 48.8325 12.4663 48.8538 12.4582C48.8751 12.4501 48.9108 12.4426 48.9331 12.4414C48.9856 12.4388 49.4089 12.6604 49.5256 12.7516C49.5753 12.7906 49.6916 12.8605 49.784 12.9072C49.8764 12.9538 49.9985 13.0239 50.0553 13.0631C50.1122 13.1021 50.2575 13.184 50.3783 13.245C50.4991 13.3059 50.6619 13.3994 50.74 13.4528C50.8182 13.5061 50.9984 13.6084 51.1405 13.6802C51.4333 13.828 51.4602 13.8522 51.5519 14.0504C51.618 14.1932 51.618 14.1932 51.6183 14.9999C51.6185 15.8067 51.6185 15.8069 51.5536 15.9379C51.4163 16.215 51.235 16.1917 50.6591 15.8233C50.526 15.7381 50.3299 15.6243 50.2233 15.5706C50.1166 15.5167 49.9888 15.4409 49.939 15.4021C49.8893 15.3632 49.7498 15.279 49.629 15.2149C49.336 15.0596 48.7215 14.7037 48.673 14.6614C48.6516 14.6428 48.5121 14.5664 48.3629 14.4916C48.2137 14.4168 48.0509 14.3236 48.0012 14.2845C47.9514 14.2454 47.8294 14.167 47.7299 14.1103C47.1368 13.7722 46.9955 13.6112 47.1444 13.4434C47.2243 13.3533 47.5212 13.1793 48.0787 12.8958C48.3842 12.7405 48.6749 12.5818 48.7247 12.5431ZM54.6795 12.6569C54.7439 12.6074 54.8577 12.5384 54.9322 12.5034C55.0068 12.4685 55.0862 12.4398 55.1085 12.4396C55.169 12.4392 55.618 12.6647 55.7246 12.7489C55.7755 12.7892 56.0403 12.9349 56.3126 13.0729C56.718 13.2779 56.8181 13.3396 56.8617 13.4107C56.9193 13.5047 56.9311 13.6342 56.8891 13.7133C56.8545 13.7788 56.415 14.0678 56.1404 14.2062C56.0191 14.267 55.8798 14.3488 55.8301 14.388C55.7803 14.4272 55.6641 14.4975 55.5717 14.5443C55.4794 14.591 55.3646 14.6593 55.3167 14.6959C55.2227 14.7681 54.8223 14.9946 54.302 15.27C54.1223 15.3651 53.9363 15.4727 53.8886 15.509C53.8409 15.5454 53.6855 15.6374 53.5434 15.7136C53.4013 15.7898 53.2428 15.8851 53.1911 15.9253C53.1395 15.9656 53.0349 16.0278 52.9586 16.0635C52.7147 16.1777 52.5842 16.1421 52.4829 15.934C52.4175 15.7995 52.4175 15.7995 52.4249 14.9097C52.4324 14.0199 52.4324 14.0199 52.5099 13.9555C52.6303 13.8556 52.833 13.7199 52.975 13.6442C53.046 13.6064 53.173 13.5285 53.2571 13.4712C53.3411 13.4139 53.5155 13.3144 53.6446 13.2502C53.7737 13.1859 53.9258 13.1018 53.9827 13.0632C54.0395 13.0245 54.1932 12.9376 54.3241 12.8699C54.4551 12.8022 54.615 12.7064 54.6795 12.6569ZM7.79172 12.6518C7.88711 12.6517 8.04077 12.6292 8.13314 12.6017C8.28187 12.5576 8.39129 12.5516 9.08982 12.5499C9.9575 12.5477 9.99345 12.5537 9.99345 12.6992C9.99345 12.8063 8.95362 13.8368 8.624 14.0563C8.2505 14.305 7.69186 14.5765 7.50254 14.6011C7.41593 14.6124 7.30181 14.6402 7.24897 14.6631C7.16856 14.6977 7.03269 14.7044 6.41456 14.7044C5.67616 14.7044 5.67616 14.7044 5.61276 14.6406C5.56022 14.5879 5.54932 14.5514 5.54932 14.4286C5.54932 14.3033 5.56787 14.2438 5.66856 14.0464C5.80829 13.7723 6.02747 13.4611 6.18431 13.3142C6.32622 13.1813 7.15632 12.7558 7.27368 12.7558C7.31897 12.7558 7.41503 12.7324 7.48716 12.7038C7.57209 12.6701 7.67939 12.6518 7.79172 12.6518ZM94.0876 12.8111C94.0249 12.7592 94.0328 12.637 94.1021 12.5884C94.1508 12.5539 94.2749 12.5479 94.9352 12.5479C95.6336 12.5479 95.7292 12.5531 95.8919 12.5999C95.9914 12.6285 96.148 12.6521 96.2408 12.6524C96.3745 12.6528 96.4908 12.6808 96.8095 12.7894C97.2551 12.9412 97.4754 13.0539 97.6907 13.2407C97.7706 13.3098 97.8724 13.3862 97.9166 13.4104C98.0496 13.4833 98.3219 13.9291 98.4142 14.2252C98.4992 14.4986 98.4969 14.5997 98.4036 14.6654C98.3191 14.7249 96.928 14.7228 96.7888 14.6631C96.7362 14.6402 96.6194 14.6121 96.5293 14.6003C96.4002 14.5835 96.2755 14.5337 95.9478 14.3679C95.4446 14.1135 95.2606 13.9893 94.9978 13.7258C94.8877 13.6157 94.7591 13.5054 94.7116 13.4808C94.5858 13.416 94.4331 13.2636 94.2721 13.0416C94.1944 12.9344 94.1116 12.8306 94.0876 12.8111ZM7.18456 17.3532C7.23018 17.3524 7.31987 17.3297 7.38383 17.3027C7.58115 17.2194 7.82304 17.2541 7.82304 17.3656C7.82304 17.3842 7.7537 17.5413 7.66894 17.7145C7.58412 17.8877 7.48906 18.091 7.45764 18.1662C7.42622 18.2415 7.31511 18.424 7.21067 18.5718C7.10622 18.7197 7.002 18.8776 6.97901 18.9226C6.93742 19.0041 6.33589 19.6165 6.18425 19.7318C5.94852 19.911 5.01783 20.3167 4.84239 20.3167C4.80593 20.3167 4.7171 20.3401 4.64499 20.3686C4.49929 20.4264 4.3193 20.436 4.22161 20.3912C4.11911 20.3443 4.04389 20.1371 4.05898 19.9433C4.08298 19.6356 4.21735 19.1992 4.33602 19.0435C4.37416 18.9935 4.42555 18.9129 4.4502 18.8645C4.50518 18.7565 4.91673 18.3373 5.02116 18.2829C5.06297 18.2612 5.15986 18.2009 5.2365 18.1491C5.41421 18.0287 6.07058 17.7056 6.21462 17.6675C6.27495 17.6515 6.40836 17.598 6.51096 17.5485C6.61367 17.4991 6.72953 17.4586 6.7685 17.4586C6.80742 17.4586 6.89828 17.4352 6.9704 17.4066C7.04253 17.378 7.13887 17.354 7.18456 17.3532ZM96.1871 17.3328C96.2022 17.3044 96.2291 17.2753 96.247 17.268C96.3241 17.2369 96.5327 17.2546 96.654 17.3027C96.7262 17.3312 96.8128 17.3546 96.8464 17.3546C96.8805 17.3546 96.9699 17.3764 97.046 17.403C97.122 17.4295 97.2825 17.484 97.4033 17.524C97.524 17.564 97.7013 17.6357 97.7969 17.6834C97.892 17.7311 98.0547 17.7988 98.1581 17.8338C98.4539 17.9336 98.5389 17.9739 98.7597 18.1187C98.8738 18.1932 99.0013 18.2756 99.0443 18.3019C99.0868 18.3282 99.221 18.4515 99.3429 18.5758C99.5492 18.787 99.575 18.8259 99.7304 19.1631C99.897 19.5241 99.897 19.5242 99.9054 19.9061C99.9144 20.2861 99.9144 20.2887 99.8489 20.3545C99.7651 20.4384 99.5834 20.4441 99.3932 20.3686C99.3211 20.3401 99.2305 20.3165 99.192 20.3164C99.0969 20.3161 98.6949 20.17 98.3354 20.0052C97.996 19.8494 97.8791 19.7795 97.7298 19.6424C97.6711 19.5883 97.5878 19.5259 97.5442 19.5037C97.4609 19.4609 97.2484 19.2439 97.2484 19.2015C97.2484 19.1877 97.1891 19.1086 97.117 19.0256C97.0443 18.9425 96.9683 18.8424 96.9481 18.803C96.9274 18.7635 96.8318 18.6174 96.7351 18.4782C96.6367 18.3364 96.4712 18.0401 96.3594 17.8047C96.1944 17.4582 96.1642 17.3753 96.1871 17.3328ZM100.552 19.9165C100.594 19.8902 100.589 19.793 100.541 19.7248C100.48 19.6374 100.427 19.6537 100.427 19.7595C100.427 19.8336 100.512 19.9411 100.552 19.9165ZM6.31051 22.6619C6.36676 22.6225 6.54697 22.5174 6.71096 22.4285C6.87496 22.3396 7.02867 22.2665 7.05254 22.2661C7.10818 22.2652 7.17717 22.3343 7.17684 22.3906C7.17667 22.4146 7.15923 22.4916 7.13809 22.5618C7.1169 22.6319 7.09962 22.7689 7.09962 22.8661C7.09962 22.9816 7.08167 23.0885 7.0479 23.1747C7.0195 23.2472 6.99624 23.3395 6.99624 23.3799C6.99624 23.4202 6.95212 23.5747 6.89816 23.7232C6.84421 23.8717 6.76649 24.0984 6.72545 24.227C6.68446 24.3556 6.6196 24.5018 6.58141 24.5518C6.54322 24.6018 6.46902 24.7287 6.41658 24.8337C6.30961 25.0479 5.96283 25.4326 5.7588 25.5635C5.69333 25.6056 5.57441 25.6947 5.49457 25.7618C5.3104 25.9164 4.63984 26.2666 4.52796 26.2666C4.41952 26.2666 4.37581 26.2123 4.29741 25.98C4.23938 25.808 4.23192 25.7435 4.23176 25.4127C4.2316 25.0909 4.24088 25.005 4.2992 24.7892C4.37294 24.5161 4.43306 24.3798 4.54153 24.24C4.58034 24.19 4.63289 24.1081 4.65834 24.0581C4.71571 23.9454 5.27822 23.3816 5.42698 23.2877C5.48715 23.2497 5.58872 23.1725 5.65268 23.1161C5.71665 23.0596 5.80963 22.9912 5.85939 22.9639C5.94203 22.9186 6.00891 22.8738 6.31051 22.6619ZM96.8352 22.4301C96.8352 22.3967 96.8581 22.3459 96.8866 22.3173C96.9151 22.2887 96.9515 22.2653 96.9677 22.2653C97.013 22.2653 97.6102 22.5759 97.7264 22.6599C97.9423 22.816 98.0916 22.916 98.1833 22.9661C98.2353 22.9945 98.346 23.0801 98.4287 23.1562C98.5115 23.2324 98.649 23.3481 98.734 23.4134C98.9034 23.543 99.1864 23.8306 99.1864 23.8728C99.1864 23.8874 99.2456 23.9671 99.3183 24.0501C99.4766 24.2313 99.632 24.5325 99.7321 24.8506C99.7947 25.0498 99.8053 25.1282 99.8059 25.38C99.8064 25.6429 99.7975 25.7032 99.7243 25.9256C99.6309 26.2105 99.5369 26.3348 99.4385 26.304C99.2764 26.2532 98.7681 25.9708 98.6395 25.8601C98.559 25.7907 98.4449 25.7048 98.3857 25.6691C98.2492 25.587 97.736 25.0608 97.675 24.9407C97.6498 24.8912 97.5973 24.8097 97.5582 24.7597C97.4676 24.6423 97.3904 24.489 97.3535 24.3503C97.3373 24.2898 97.2836 24.1557 97.2344 24.0524C97.1852 23.9492 97.145 23.8327 97.145 23.7935C97.145 23.7543 97.122 23.663 97.0935 23.5905C97.065 23.518 97.0415 23.4244 97.0415 23.3826C97.0415 23.3408 97.0186 23.2472 96.9901 23.1747C96.9615 23.1022 96.9386 22.9867 96.9386 22.918C96.9386 22.8493 96.9151 22.7252 96.8866 22.6421C96.8581 22.559 96.8352 22.4637 96.8352 22.4301ZM100.314 26.2375C100.373 26.1879 100.401 26.0953 100.384 26.0068C100.353 25.8537 100.22 25.9547 100.22 26.1308C100.22 26.2499 100.253 26.288 100.314 26.2375ZM6.72796 28.0854C6.81043 27.96 7.61213 27.1624 7.70355 27.1149C7.86218 27.0323 7.90059 27.1096 7.90059 27.5111C7.90059 27.7624 7.91071 27.8495 7.95225 27.9555C7.99575 28.0665 8.00392 28.1486 8.00392 28.4752C8.00392 28.8017 7.99575 28.8838 7.95225 28.9948C7.92072 29.0752 7.90059 29.1879 7.90059 29.2838C7.90059 29.4774 7.69432 30.1289 7.58898 30.268C7.55107 30.318 7.50176 30.3949 7.47939 30.4389C7.45702 30.4829 7.37489 30.6115 7.29689 30.7247C7.13608 30.958 6.51331 31.5835 6.41786 31.6076C6.33058 31.6297 6.25778 31.5834 6.17816 31.4555C6.1407 31.3954 6.084 31.3147 6.05207 31.276C6.02015 31.2374 5.96244 31.103 5.92386 30.9772C5.88528 30.8515 5.83172 30.6862 5.80488 30.6099C5.73689 30.4168 5.73823 30.0814 5.80767 29.9042C5.83613 29.8317 5.85939 29.7424 5.85939 29.7057C5.85939 29.669 5.89495 29.5321 5.93834 29.4014C6.00332 29.206 6.07517 29.0759 6.34277 28.67C6.52175 28.3985 6.69503 28.1354 6.72796 28.0854ZM96.1374 27.357C96.1374 27.213 96.1474 27.1658 96.1871 27.126C96.2207 27.0922 96.2565 27.0811 96.2967 27.0917C96.3705 27.111 97.0493 27.7756 97.1248 27.9024C97.155 27.953 97.2283 28.0529 97.2881 28.1244C97.3474 28.1958 97.4167 28.2952 97.4424 28.3452C97.4676 28.3953 97.5458 28.5004 97.6152 28.5789C97.8254 28.8169 98.1788 29.5876 98.1788 29.8096C98.1788 29.8463 98.2017 29.9356 98.2302 30.0081C98.2923 30.1665 98.2968 30.3643 98.2414 30.4961C98.2191 30.5493 98.1905 30.6542 98.1782 30.7295C98.1492 30.9026 97.85 31.5074 97.7589 31.5757C97.7125 31.6105 97.6717 31.6205 97.6247 31.6087C97.5861 31.5991 97.3876 31.4252 97.1679 31.2091C96.6876 30.7364 96.4293 30.3771 96.3459 30.0662C96.3297 30.0058 96.276 29.8718 96.2268 29.7686C96.1637 29.6359 96.1374 29.5448 96.1374 29.4577C96.1374 29.39 96.1139 29.2752 96.0859 29.2026C96.039 29.0836 96.0339 29.0095 96.0339 28.4362C96.0339 27.8628 96.039 27.7888 96.0859 27.6697C96.12 27.5825 96.1374 27.4766 96.1374 27.357ZM9.61625 32.0737C9.663 32.0023 9.73233 31.8941 9.77024 31.8334C9.84919 31.7069 9.91388 31.6925 10.0026 31.7818C10.0579 31.8374 10.226 32.2043 10.226 32.2694C10.226 32.3016 10.2945 32.5093 10.5084 33.126C10.6265 33.4663 10.6392 33.5245 10.6393 33.7278C10.6394 33.8949 10.6536 33.9902 10.6947 34.098C10.75 34.2433 10.75 34.2433 10.6947 34.3885C10.6549 34.4932 10.6394 34.5918 10.6394 34.7419C10.6394 35.0121 10.5564 35.2643 10.2863 35.815C10.0479 36.3011 9.94799 36.4259 9.79719 36.4257C9.66585 36.4255 9.56576 36.3617 9.36028 36.1469C9.16732 35.9451 9.00388 35.6512 8.88328 35.2892C8.80779 35.0627 8.80489 35.0371 8.80489 34.595C8.80489 34.4294 8.80187 34.3306 8.81126 34.2329C8.83077 34.031 8.90357 33.8341 9.16704 33.0611C9.28524 32.7143 9.48642 32.272 9.61625 32.0737ZM93.8868 32.0154C93.9237 31.9118 93.9741 31.8036 93.9992 31.775C94.0663 31.6973 94.158 31.7096 94.2402 31.8074C94.2799 31.8538 94.4387 32.1549 94.5941 32.4764C94.8715 33.0507 95.0264 33.4452 95.0264 33.5771C95.0264 33.6137 95.0499 33.703 95.0778 33.7756C95.1063 33.8481 95.1298 33.9416 95.1298 33.9834C95.1298 34.0252 95.1527 34.1188 95.1812 34.1913C95.2243 34.3014 95.2333 34.384 95.2327 34.6924C95.2327 35.0426 95.2282 35.0746 95.1471 35.3113C95.1002 35.4486 95.0297 35.6123 94.9911 35.6751C94.9526 35.7378 94.8838 35.8503 94.8379 35.925C94.7194 36.119 94.5667 36.2732 94.3979 36.3688C94.1888 36.4876 94.1452 36.4804 94.0082 36.3049C93.8337 36.0816 93.3993 35.0804 93.3987 34.9003C93.3987 34.8686 93.3752 34.7835 93.3467 34.7109C93.3065 34.6075 93.2953 34.5178 93.2953 34.2952C93.2953 34.0726 93.3065 33.9829 93.3467 33.8795C93.3808 33.7933 93.3987 33.6864 93.3987 33.5704C93.3987 33.4304 93.4188 33.3365 93.496 33.1232C93.5497 32.9747 93.6207 32.7655 93.6542 32.6584C93.6872 32.5511 93.7381 32.405 93.7666 32.3336C93.7957 32.2621 93.8494 32.1189 93.8868 32.0154ZM13.1715 35.807C13.1715 35.7679 13.1897 35.7099 13.2117 35.6781C13.2847 35.5733 13.3494 35.6054 13.6055 35.8737C13.7387 36.013 13.8658 36.162 13.8881 36.2048C13.9104 36.2475 13.9622 36.3293 14.0031 36.3866C14.1617 36.6083 14.2583 36.7546 14.3114 36.8534C14.3417 36.91 14.4059 37.0137 14.454 37.084C14.502 37.1543 14.5601 37.2765 14.583 37.3558C14.6059 37.435 14.6639 37.5823 14.712 37.6831C14.76 37.7839 14.7993 37.9042 14.7993 37.9506C14.7993 37.9969 14.8226 38.0941 14.851 38.1666C14.8953 38.2795 14.9027 38.3597 14.9027 38.7253C14.9027 39.0908 14.8953 39.1709 14.851 39.2839C14.8226 39.3564 14.7993 39.4709 14.7993 39.5383C14.7993 39.6709 14.6699 40.0747 14.6072 40.1377C14.543 40.2023 14.407 40.1746 14.1129 40.037C13.7175 39.8519 13.5182 39.6543 13.2879 39.2189C13.1972 39.0474 13.0874 38.8002 13.0439 38.6694C12.9648 38.4317 12.9648 38.4317 12.9648 37.5467C12.9648 36.7228 12.9684 36.6524 13.0165 36.5297C13.045 36.4572 13.0682 36.3403 13.0682 36.2699C13.0682 36.1995 13.0914 36.0826 13.1199 36.0101C13.1483 35.9376 13.1715 35.8462 13.1715 35.807ZM90.4017 35.8801C90.4504 35.8158 90.513 35.7369 90.5409 35.7047C90.5745 35.6659 90.6203 35.6463 90.6774 35.6463C90.7473 35.6463 90.7736 35.6626 90.8149 35.7307C90.8434 35.7772 90.8664 35.8527 90.8664 35.8987C90.8664 35.9446 90.8899 36.0415 90.9184 36.114C90.9525 36.201 90.9698 36.3071 90.9698 36.4258C90.9698 36.5444 90.9871 36.6506 91.0212 36.7376C91.0688 36.8585 91.0732 36.9307 91.0732 37.608C91.0732 38.2853 91.0688 38.3575 91.0212 38.4784C90.9933 38.5509 90.9698 38.6428 90.9698 38.6826C90.9698 38.7664 90.7831 39.1641 90.6489 39.3662C90.4643 39.6444 90.4123 39.7067 90.2983 39.7842C90.234 39.8276 90.1529 39.89 90.1171 39.9228C89.9662 40.062 89.5233 40.189 89.4255 40.1213C89.383 40.0917 89.2387 39.6822 89.2387 39.5903C89.2387 39.5515 89.2152 39.4603 89.1873 39.3878C89.1414 39.2712 89.1353 39.1947 89.1353 38.7253C89.1353 38.2558 89.1414 38.1793 89.1873 38.0627C89.2152 37.9902 89.2387 37.8902 89.2387 37.8406C89.2387 37.7791 89.3064 37.6152 89.4501 37.3283C89.6379 36.9538 89.728 36.7989 89.9203 36.5167C89.9494 36.4739 90.0103 36.3828 90.0551 36.3143C90.0998 36.2458 90.1764 36.1464 90.2245 36.0934C90.2731 36.0404 90.3525 35.9445 90.4017 35.8801ZM17.3314 38.6157C17.3314 38.4351 17.3398 38.3921 17.3832 38.3485C17.4116 38.3199 17.4485 38.2965 17.4652 38.2965C17.5254 38.2965 18.1746 38.7471 18.3262 38.8942C18.4115 38.9769 18.52 39.0642 18.5674 39.0881C18.7011 39.1556 19.1418 39.6096 19.3199 39.8634C19.4968 40.1152 19.7172 40.5564 19.7576 40.7391C19.7719 40.8035 19.8015 40.8996 19.8235 40.9526C19.8455 41.0056 19.8636 41.0785 19.8636 41.1147C19.8636 41.1508 19.8877 41.2503 19.9171 41.3358C19.964 41.4723 19.9696 41.5405 19.9623 41.8925C19.9544 42.2751 19.9511 42.2969 19.8917 42.3604C19.8016 42.4567 19.6827 42.4713 19.5289 42.4047C19.459 42.3745 19.3661 42.3498 19.3224 42.3498C19.2399 42.3498 18.8616 42.1601 18.7009 42.0382C18.6511 42.0005 18.5561 41.9383 18.4897 41.9C18.367 41.8292 18.3286 41.788 18.1703 41.5573C18.0348 41.36 17.7616 40.8036 17.6854 40.57C17.5451 40.1393 17.5123 40.0181 17.5123 39.9292C17.5123 39.8789 17.495 39.7803 17.4738 39.7102C17.4525 39.6394 17.4353 39.4813 17.4351 39.3546C17.4349 39.1939 17.4196 39.0831 17.3832 38.9788C17.3474 38.8767 17.3314 38.7644 17.3314 38.6157ZM85.0726 39.4397C85.4276 39.0793 85.672 38.8809 86.1897 38.5317C86.3815 38.4023 86.5526 38.2965 86.5705 38.2965C86.6298 38.2965 86.7064 38.3991 86.7064 38.4774C86.7064 38.5198 86.6834 38.6138 86.6549 38.6863C86.613 38.7931 86.6029 38.8794 86.6029 39.1409C86.6029 39.4026 86.5934 39.4889 86.5515 39.5957C86.523 39.6682 86.5 39.7857 86.5 39.8568C86.5 40.3974 85.9387 41.6253 85.5909 41.8462C85.5327 41.883 85.4215 41.9655 85.3432 42.0295C85.1413 42.1949 84.8847 42.3033 84.5805 42.3516C84.4983 42.3646 84.3971 42.3929 84.3557 42.4145C84.2517 42.4687 84.2081 42.4639 84.1343 42.3899C84.0717 42.3269 84.0711 42.3209 84.0711 41.8499C84.0711 41.4402 84.0784 41.353 84.1226 41.2258C84.1511 41.1445 84.1746 41.0455 84.1746 41.0059C84.1751 40.8948 84.2853 40.5654 84.3938 40.3491C84.5598 40.0184 84.7393 39.7777 85.0726 39.4397ZM19.0089 42.854C19.0493 42.903 19.1233 42.9097 19.1079 42.8629C19.1021 42.8451 19.0697 42.8264 19.036 42.8215C18.9824 42.8136 18.979 42.8177 19.0089 42.854ZM49.1748 28.3465H48.327L48.1256 27.4547C47.7723 27.8582 47.4191 28.1377 47.0658 28.2934C46.7126 28.4491 46.3063 28.5269 45.8471 28.5269C45.2818 28.5269 44.7731 28.4243 44.3209 28.219C43.8758 28.0068 43.4978 27.7201 43.187 27.3592C42.8761 26.9983 42.6358 26.5772 42.4663 26.0959C42.3037 25.6147 42.2225 25.1016 42.2225 24.5566C42.2225 24.0188 42.3037 23.5092 42.4663 23.028C42.6358 22.5467 42.8761 22.1257 43.187 21.7647C43.4978 21.4037 43.8758 21.1172 44.3209 20.9048C44.7731 20.6925 45.2818 20.5863 45.8471 20.5863C46.2569 20.5863 46.6455 20.643 47.0129 20.7562C47.3873 20.8623 47.7194 21.0251 48.0091 21.2445C48.2987 21.4568 48.539 21.7258 48.7297 22.0513C48.9205 22.3769 49.0406 22.7519 49.0901 23.1766H47.7971C47.7618 22.9289 47.6841 22.713 47.564 22.529C47.4509 22.3379 47.306 22.1787 47.1294 22.0513C46.9528 21.9239 46.7549 21.8284 46.5359 21.7647C46.3169 21.701 46.0873 21.6691 45.8471 21.6691C45.4443 21.6691 45.0946 21.7505 44.7978 21.9133C44.5081 22.0761 44.2715 22.2955 44.0878 22.5715C43.904 22.8404 43.7663 23.1483 43.6745 23.4951C43.5896 23.8418 43.5473 24.1957 43.5473 24.5566C43.5473 24.9176 43.5896 25.2714 43.6745 25.6182C43.7663 25.965 43.904 26.2764 44.0878 26.5524C44.2715 26.8214 44.5081 27.0372 44.7978 27.2C45.0946 27.3628 45.4443 27.4441 45.8471 27.4441C46.1862 27.4512 46.4865 27.4087 46.7479 27.3167C47.0093 27.2176 47.2284 27.0796 47.405 26.9027C47.5887 26.7187 47.7264 26.4958 47.8183 26.2339C47.9102 25.9721 47.9596 25.6819 47.9666 25.3634H45.953V24.355H49.1748V28.3465ZM41.1923 20.7668H39.9841V21.9133H41.1923V20.7668ZM41.1923 22.8581H39.9841V28.3465H41.1923V22.8581ZM27.4184 23.9409L27.2277 25.321H28.4041L28.5949 23.9409H27.4184ZM30.1528 26.1172H29.1459L28.828 28.3465H27.9801L28.2875 26.1172H27.1217L26.8038 28.3465H25.9559L26.2632 26.1172H25.267V25.321H26.3798L26.5706 23.9409H25.5744V23.1447H26.6766L26.9839 20.9154H27.8424L27.5244 23.1447H28.7008L29.0082 20.9154H29.8666L29.5487 23.1447H30.4601V23.9409H29.4427L29.2519 25.321H30.1528V26.1172ZM31.2514 22.1469C31.5057 22.1469 31.753 22.1257 31.9933 22.0832C32.2335 22.0407 32.449 21.97 32.6397 21.8708C32.8376 21.7718 33.0036 21.6444 33.1379 21.4887C33.2792 21.333 33.371 21.1419 33.4134 20.9154H34.399V28.3465H33.0743V23.1023H31.2514V22.1469ZM55.2135 27.5397C55.1005 27.5397 55.0228 27.5078 54.9804 27.4441C54.945 27.3804 54.9274 27.2743 54.9274 27.1257V24.3019C54.9274 24.0117 54.8638 23.7675 54.7366 23.5694C54.6095 23.3641 54.4399 23.1978 54.2279 23.0704C54.023 22.943 53.7899 22.8511 53.5284 22.7944C53.267 22.7378 53.002 22.7095 52.7336 22.7095C52.4298 22.7095 52.133 22.7378 51.8433 22.7944C51.5536 22.8511 51.2922 22.9501 51.0591 23.0916C50.833 23.2332 50.6458 23.4208 50.4974 23.6543C50.349 23.8879 50.2642 24.1815 50.243 24.5354H51.4512C51.4794 24.2382 51.6031 24.0187 51.8221 23.8772C52.0412 23.7357 52.3202 23.6649 52.6594 23.6649C52.7795 23.6649 52.9067 23.6755 53.0409 23.6968C53.1751 23.7109 53.2952 23.7463 53.4013 23.8029C53.5143 23.8525 53.6061 23.9268 53.6768 24.0258C53.7545 24.125 53.7934 24.2523 53.7934 24.408C53.7934 24.585 53.7475 24.7194 53.6556 24.8114C53.5708 24.8964 53.4507 24.96 53.2952 25.0025C53.1469 25.045 52.9738 25.0768 52.776 25.098C52.5782 25.1122 52.3697 25.1405 52.1507 25.183C51.8963 25.2113 51.642 25.2537 51.3876 25.3104C51.1403 25.3599 50.9142 25.4448 50.7093 25.5651C50.5115 25.6854 50.349 25.8518 50.2218 26.0641C50.1017 26.2764 50.0417 26.5524 50.0417 26.8921C50.0417 27.161 50.0911 27.3981 50.19 27.6033C50.296 27.8015 50.4338 27.9678 50.6034 28.1023C50.78 28.2297 50.9814 28.3253 51.2074 28.3889C51.4335 28.4597 51.6702 28.4951 51.9175 28.4951C52.2426 28.4951 52.5782 28.442 52.9243 28.3358C53.2776 28.2297 53.5744 28.0598 53.8146 27.8263C53.8641 28.074 53.97 28.2474 54.1325 28.3465C54.295 28.4455 54.4999 28.4951 54.7472 28.4951C54.7966 28.4951 54.8567 28.4915 54.9274 28.4844C54.9981 28.4774 55.0687 28.4668 55.1393 28.4526C55.21 28.4385 55.2771 28.4208 55.3407 28.3996C55.4114 28.3854 55.4679 28.3712 55.5103 28.3571V27.5185C55.4467 27.5326 55.3902 27.5397 55.3407 27.5397H55.2135ZM53.0409 25.8199C53.3094 25.7916 53.5355 25.7173 53.7192 25.597V26.4993C53.7192 26.6904 53.6733 26.8532 53.5814 26.9876C53.4895 27.115 53.373 27.2212 53.2317 27.3061C53.0974 27.3911 52.9526 27.4512 52.7972 27.4866C52.6417 27.5219 52.4968 27.5397 52.3627 27.5397C52.2566 27.5397 52.1365 27.529 52.0023 27.5078C51.8751 27.4866 51.755 27.4512 51.642 27.4017C51.536 27.345 51.4442 27.2707 51.3664 27.1787C51.2887 27.0867 51.2499 26.9735 51.2499 26.839C51.2499 26.6833 51.2746 26.5524 51.324 26.4462C51.3805 26.333 51.4547 26.2446 51.5466 26.1808C51.6385 26.1101 51.7444 26.057 51.8645 26.0216C51.9846 25.9791 52.1083 25.9473 52.2355 25.9261C52.504 25.8765 52.7725 25.8411 53.0409 25.8199ZM56.1214 22.8581H57.266V23.6225H57.2978C57.3895 23.488 57.4885 23.3641 57.5947 23.2509C57.7004 23.1376 57.8173 23.0421 57.9442 22.9643C58.0784 22.8864 58.2305 22.8263 58.3999 22.7838C58.5693 22.7343 58.7639 22.7095 58.9831 22.7095C59.3152 22.7095 59.6222 22.7838 59.9051 22.9324C60.1948 23.0811 60.3994 23.3111 60.5196 23.6225C60.7243 23.3394 60.9613 23.1164 61.2297 22.9537C61.4981 22.7909 61.8336 22.7095 62.2367 22.7095C62.816 22.7095 63.2644 22.8511 63.5826 23.1341C63.9074 23.4172 64.0702 23.8914 64.0702 24.5566V28.3465H62.8619V25.1405C62.8619 24.9211 62.8546 24.7229 62.8406 24.546C62.8266 24.362 62.7841 24.2063 62.7137 24.0789C62.6499 23.9444 62.551 23.8418 62.4168 23.7711C62.2826 23.7003 62.0986 23.6649 61.8655 23.6649C61.4556 23.6649 61.1593 23.7923 60.9753 24.0471C60.7914 24.3019 60.6997 24.6628 60.6997 25.1299V28.3465H59.4914V24.822C59.4914 24.4398 59.4209 24.1532 59.2794 23.9622C59.1452 23.764 58.8948 23.6649 58.5274 23.6649C58.372 23.6649 58.2199 23.6968 58.0717 23.7604C57.9302 23.8241 57.8028 23.9161 57.6898 24.0365C57.5841 24.1568 57.4958 24.3054 57.4248 24.4823C57.3616 24.6593 57.3297 24.8609 57.3297 25.0874V28.3465H56.1214V22.8581ZM66.4772 20.7668H65.269V21.9133H66.4772V20.7668ZM66.4772 22.8581H65.269V28.3465H66.4772V22.8581ZM67.6872 22.8581H68.8318V23.6649L68.853 23.6861C69.037 23.3818 69.2769 23.1447 69.5738 22.9749C69.8707 22.798 70.1989 22.7095 70.5595 22.7095C71.16 22.7095 71.6336 22.8652 71.9797 23.1766C72.3259 23.488 72.4992 23.9551 72.4992 24.5779V28.3465H71.2909V24.8964C71.2763 24.4646 71.1846 24.1532 71.0152 23.9622C70.8458 23.764 70.5808 23.6649 70.2201 23.6649C70.0155 23.6649 69.8315 23.7039 69.6694 23.7817C69.5067 23.8525 69.3691 23.9551 69.2562 24.0896C69.1427 24.2169 69.0543 24.3691 68.9911 24.546C68.9274 24.7229 68.8955 24.9105 68.8955 25.1087V28.3465H67.6872V22.8581ZM78.0335 29.907C78.4999 29.5036 78.733 28.8879 78.733 28.0598V22.8581H77.5247V23.6118H77.5035C77.348 23.3004 77.1255 23.074 76.8359 22.9324C76.5462 22.7838 76.2281 22.7095 75.882 22.7095C75.4934 22.7095 75.1439 22.7838 74.833 22.9324C74.5289 23.0811 74.2711 23.2827 74.0592 23.5375C73.8473 23.7852 73.6846 24.0754 73.5716 24.408C73.4587 24.7407 73.4022 25.091 73.4022 25.459C73.4022 25.8553 73.448 26.2268 73.5397 26.5736C73.6314 26.9204 73.7768 27.2283 73.9742 27.4972C74.1794 27.759 74.4338 27.9678 74.7374 28.1235C75.0483 28.2722 75.4229 28.3465 75.8607 28.3465C76.2001 28.3465 76.5144 28.2615 76.804 28.0917C77.1009 27.9218 77.3341 27.6847 77.5035 27.3804H77.5247V28.219C77.5247 28.672 77.4118 29.0188 77.1859 29.2594C76.9594 29.5 76.6027 29.6203 76.1151 29.6203C75.9597 29.6203 75.8115 29.6097 75.6701 29.5885C75.5286 29.5743 75.3983 29.5354 75.2781 29.4717C75.1652 29.4151 75.0662 29.3337 74.9812 29.2276C74.8962 29.1214 74.8364 28.9834 74.8012 28.8136H73.5929C73.6214 29.132 73.7131 29.401 73.8685 29.6203C74.024 29.8397 74.2146 30.0167 74.4405 30.1511C74.6737 30.2856 74.9281 30.3811 75.2037 30.4378C75.4861 30.4944 75.7657 30.5227 76.0408 30.5227C76.9102 30.5227 77.5739 30.3175 78.0335 29.907ZM76.7296 27.2318C76.5462 27.338 76.3203 27.3911 76.0514 27.3911C75.797 27.3911 75.5784 27.338 75.3944 27.2318C75.2177 27.1257 75.0695 26.9876 74.9493 26.8178C74.8364 26.6479 74.7514 26.4569 74.6949 26.2446C74.6385 26.0251 74.6105 25.8022 74.6105 25.5757C74.6105 25.3493 74.6351 25.1228 74.6843 24.8964C74.7341 24.6628 74.8151 24.4576 74.9281 24.2806C75.041 24.0966 75.1898 23.948 75.3732 23.8348C75.5571 23.7215 75.783 23.6649 76.0514 23.6649C76.3131 23.6649 76.5356 23.7144 76.7196 23.8136C76.9102 23.9126 77.0618 24.0471 77.1753 24.2169C77.2949 24.3868 77.3833 24.5814 77.4397 24.8008C77.4962 25.0202 77.5247 25.2466 77.5247 25.4802C77.5247 25.7137 77.4962 25.9473 77.4397 26.1808C77.3905 26.4073 77.3055 26.6126 77.1859 26.7965C77.0724 26.9735 76.9209 27.1186 76.7296 27.2318ZM35.0732 32.3986H37.9703C38.4363 32.3986 38.8165 32.4662 39.1108 32.6013C39.4052 32.7364 39.632 32.9053 39.7914 33.108C39.9508 33.3106 40.0581 33.5317 40.1133 33.7713C40.1746 34.0108 40.2053 34.2319 40.2053 34.4346C40.2053 34.6372 40.1746 34.8583 40.1133 35.0979C40.0581 35.3312 39.9508 35.5493 39.7914 35.752C39.632 35.9547 39.4052 36.1235 39.1108 36.2586C38.8165 36.3876 38.4363 36.4521 37.9703 36.4521H36.2229V38.9764H35.0732V32.3986ZM36.2229 35.5124H37.906C38.0348 35.5124 38.1665 35.494 38.3015 35.4572C38.4363 35.4203 38.559 35.362 38.6694 35.2821C38.7859 35.1961 38.8778 35.0856 38.9453 34.9505C39.0188 34.8092 39.0556 34.6342 39.0556 34.4253C39.0556 34.2104 39.025 34.0323 38.9637 33.891C38.9024 33.7498 38.8196 33.6392 38.7153 33.5594C38.6111 33.4734 38.4915 33.415 38.3567 33.3843C38.2217 33.3536 38.0776 33.3382 37.9244 33.3382H36.2229V35.5124ZM42.0447 32.3986H40.9962V38.9764H42.0447V32.3986ZM47.0776 37.9169C47.0776 38.0459 47.0929 38.138 47.1235 38.1933C47.1603 38.2486 47.2277 38.2762 47.3259 38.2762H47.4362C47.4791 38.2762 47.5282 38.2701 47.5834 38.2578V38.9856C47.5466 38.9979 47.4975 39.0102 47.4362 39.0224C47.3811 39.0409 47.3228 39.0562 47.2615 39.0685C47.2002 39.0808 47.1388 39.09 47.0776 39.0962C47.0162 39.1023 46.9641 39.1053 46.9212 39.1053C46.7066 39.1053 46.5288 39.0624 46.3877 38.9764C46.2467 38.8904 46.1548 38.7399 46.1118 38.5249C45.9034 38.7276 45.6458 38.875 45.3392 38.9672C45.0388 39.0593 44.7476 39.1053 44.4655 39.1053C44.2509 39.1053 44.0455 39.0746 43.8493 39.0132C43.6531 38.958 43.4783 38.875 43.3251 38.7645C43.1779 38.6478 43.0583 38.5035 42.9664 38.3315C42.8805 38.1534 42.8376 37.9477 42.8376 37.7143C42.8376 37.4195 42.8897 37.1799 42.9939 36.9957C43.1043 36.8114 43.2453 36.6671 43.417 36.5627C43.5948 36.4583 43.791 36.3846 44.0056 36.3415C44.2264 36.2924 44.4471 36.2556 44.6678 36.231C44.8579 36.1942 45.0388 36.1696 45.2105 36.1573C45.3822 36.1389 45.5324 36.1113 45.6611 36.0744C45.7961 36.0376 45.9003 35.9823 45.9739 35.9086C46.0536 35.8287 46.0934 35.7121 46.0934 35.5585C46.0934 35.4234 46.0597 35.3129 45.9923 35.2268C45.9309 35.1408 45.8512 35.0764 45.7531 35.0334C45.6611 34.9842 45.5569 34.9535 45.4404 34.9413C45.3239 34.9228 45.2136 34.9136 45.1093 34.9136C44.815 34.9136 44.5728 34.975 44.3827 35.0979C44.1927 35.2207 44.0854 35.4111 44.0608 35.6691H43.0123C43.0307 35.362 43.1043 35.1071 43.2331 34.9044C43.3619 34.7017 43.5243 34.539 43.7205 34.4162C43.9229 34.2933 44.1497 34.2073 44.4011 34.1582C44.6525 34.109 44.91 34.0845 45.1737 34.0845C45.4067 34.0845 45.6367 34.109 45.8635 34.1582C46.0903 34.2073 46.2927 34.2872 46.4705 34.3977C46.6545 34.5083 46.8016 34.6526 46.912 34.8307C47.0224 35.0027 47.0776 35.2146 47.0776 35.4664V37.9169ZM46.0291 36.5903C45.8696 36.6947 45.6734 36.7592 45.4404 36.7838C45.2074 36.8022 44.9744 36.8329 44.7414 36.8759C44.631 36.8943 44.5237 36.922 44.4195 36.9588C44.3153 36.9895 44.2233 37.0356 44.1436 37.097C44.0639 37.1523 43.9995 37.2291 43.9505 37.3273C43.9075 37.4195 43.8861 37.5331 43.8861 37.6682C43.8861 37.7849 43.9198 37.8831 43.9872 37.963C44.0547 38.0428 44.1344 38.1073 44.2264 38.1565C44.3245 38.1994 44.4287 38.2301 44.5391 38.2486C44.6556 38.267 44.7598 38.2762 44.8518 38.2762C44.9683 38.2762 45.094 38.2609 45.2289 38.2301C45.3638 38.1994 45.4895 38.1472 45.606 38.0735C45.7286 37.9999 45.8298 37.9077 45.9095 37.7972C45.9892 37.6805 46.0291 37.5392 46.0291 37.3734V36.5903ZM48.4264 34.2134H47.6355V34.9966H48.4264V37.8064C48.4326 38.0029 48.451 38.1779 48.4816 38.3315C48.5184 38.485 48.5828 38.614 48.6748 38.7185C48.7729 38.8167 48.9047 38.8934 49.0703 38.9487C49.2419 38.9979 49.4658 39.0224 49.7416 39.0224C49.8582 39.0224 49.9716 39.0163 50.082 39.004C50.1923 38.9917 50.3058 38.9795 50.4223 38.9672V38.1565C50.3487 38.1749 50.2751 38.1872 50.2015 38.1933H49.9808C49.8643 38.1933 49.7723 38.181 49.7048 38.1565C49.6374 38.1257 49.5853 38.0828 49.5485 38.0275C49.5179 37.9722 49.4964 37.9046 49.4842 37.8248C49.478 37.745 49.4749 37.6498 49.4749 37.5392V34.9966H50.4223V34.2134H49.4749V32.7855H48.4264V34.2134ZM50.6155 34.2134H51.3972V33.8173C51.3972 33.5164 51.434 33.2738 51.5076 33.0895C51.5812 32.8991 51.6793 32.7548 51.8019 32.6566C51.9246 32.5521 52.0625 32.4845 52.2158 32.4538C52.3752 32.417 52.5407 32.3986 52.7125 32.3986C53.0497 32.3986 53.295 32.4201 53.4482 32.4631V33.283C53.3808 33.2646 53.3072 33.2523 53.2275 33.2461C53.1539 33.2338 53.065 33.2277 52.9608 33.2277C52.8198 33.2277 52.6971 33.2615 52.5929 33.3291C52.4948 33.3966 52.4457 33.5287 52.4457 33.7252V34.2134H53.3379V34.9966H52.4457V38.9764H51.3972V34.9966H50.6155V34.2134ZM55.0525 38.9211C55.3529 39.0439 55.6932 39.1053 56.0733 39.1053C56.4536 39.1053 56.7907 39.0439 57.0854 38.9211C57.3856 38.7921 57.6367 38.6171 57.8391 38.396C58.0477 38.1749 58.2042 37.9108 58.3082 37.6037C58.4189 37.2966 58.4737 36.9588 58.4737 36.5903C58.4737 36.2279 58.4189 35.8932 58.3082 35.5862C58.2042 35.279 58.0477 35.0149 57.8391 34.7938C57.6367 34.5728 57.3856 34.4008 57.0854 34.278C56.7907 34.149 56.4536 34.0845 56.0733 34.0845C55.6932 34.0845 55.3529 34.149 55.0525 34.278C54.7582 34.4008 54.5068 34.5728 54.2983 34.7938C54.096 35.0149 53.9397 35.279 53.8293 35.5862C53.7251 35.8932 53.6729 36.2279 53.6729 36.5903C53.6729 36.9588 53.7251 37.2966 53.8293 37.6037C53.9397 37.9108 54.096 38.1749 54.2983 38.396C54.5068 38.6171 54.7582 38.7921 55.0525 38.9211ZM56.6806 38.1288C56.5089 38.2271 56.3065 38.2762 56.0733 38.2762C55.8404 38.2762 55.638 38.2271 55.4664 38.1288C55.2947 38.0306 55.1537 37.9016 55.0433 37.7419C54.933 37.5822 54.8502 37.4041 54.795 37.2076C54.7459 37.0049 54.7214 36.7991 54.7214 36.5903C54.7214 36.3876 54.7459 36.1849 54.795 35.9823C54.8502 35.7796 54.933 35.6015 55.0433 35.448C55.1537 35.2883 55.2947 35.1593 55.4664 35.061C55.638 34.9627 55.8404 34.9136 56.0733 34.9136C56.3065 34.9136 56.5089 34.9627 56.6806 35.061C56.8522 35.1593 56.9931 35.2883 57.1033 35.448C57.214 35.6015 57.2934 35.7796 57.3426 35.9823C57.3979 36.1849 57.4253 36.3876 57.4253 36.5903C57.4253 36.7991 57.3979 37.0049 57.3426 37.2076C57.2934 37.4041 57.214 37.5822 57.1033 37.7419C56.9931 37.9016 56.8522 38.0306 56.6806 38.1288ZM59.2537 34.2134H60.2378V35.1347H60.2563C60.287 35.0057 60.3452 34.8798 60.4307 34.757C60.523 34.6342 60.6303 34.5236 60.7528 34.4253C60.8814 34.3209 61.0223 34.238 61.176 34.1766C61.3293 34.1152 61.4852 34.0845 61.6446 34.0845C61.7676 34.0845 61.8504 34.0876 61.8934 34.0937L62.0405 34.1121V35.1255C61.9667 35.1132 61.8901 35.104 61.8107 35.0979C61.7369 35.0856 61.6631 35.0795 61.5898 35.0795C61.412 35.0795 61.2431 35.1163 61.0838 35.19C60.9306 35.2576 60.7958 35.362 60.679 35.5032C60.5627 35.6384 60.471 35.8072 60.4033 36.0099C60.3357 36.2126 60.3021 36.446 60.3021 36.7101V38.9764H59.2537V34.2134ZM63.3886 34.2134H62.395V38.9764H63.4434V36.1481C63.4434 35.9516 63.4713 35.7765 63.5261 35.623C63.5876 35.4694 63.6642 35.3405 63.7565 35.2361C63.8543 35.1317 63.9645 35.0518 64.0875 34.9966C64.2161 34.9413 64.348 34.9136 64.4828 34.9136C64.8015 34.9136 65.0196 34.9996 65.1359 35.1716C65.2583 35.3374 65.3198 35.5862 65.3198 35.9178V38.9764H66.3682V36.1849C66.3682 35.7796 66.4482 35.4664 66.6075 35.2453C66.7669 35.0242 67.0241 34.9136 67.3797 34.9136C67.5821 34.9136 67.7415 34.9444 67.8583 35.0057C67.9746 35.0672 68.0607 35.1562 68.1155 35.2729C68.177 35.3834 68.2139 35.5186 68.2262 35.6782C68.2385 35.8318 68.2447 36.0038 68.2447 36.1942V38.9764H69.2931V35.6875C69.2931 35.1102 69.1522 34.6987 68.8698 34.453C68.5941 34.2073 68.2044 34.0845 67.7018 34.0845C67.3523 34.0845 67.061 34.1551 66.8284 34.2964C66.5952 34.4377 66.3895 34.6311 66.2117 34.8767C66.1077 34.6065 65.9298 34.4069 65.6782 34.278C65.4333 34.149 65.1666 34.0845 64.8781 34.0845C64.688 34.0845 64.5197 34.106 64.3726 34.149C64.225 34.1858 64.0936 34.238 63.9768 34.3056C63.8666 34.3731 63.7654 34.4561 63.6737 34.5543C63.5815 34.6526 63.4954 34.7601 63.416 34.8767H63.3886V34.2134Z" fill="#E2E4EB"/>
</g>
<defs>
<clipPath id="clip0_80_656">
<rect width="104" height="45" fill="white"/>
</clipPath>
</defs>
</svg>
