<svg width="24" height="24" viewBox="0 0 24 24" fill="none" xmlns="http://www.w3.org/2000/svg">
<path fill-rule="evenodd" clip-rule="evenodd" d="M2.5 12.1377C2.5 6.89064 6.75294 2.6377 12 2.6377C17.2471 2.6377 21.5 6.89064 21.5 12.1377C21.5 17.3838 17.2471 21.6377 12 21.6377C6.7529 21.6377 2.5 17.3838 2.5 12.1377ZM12.75 8.84156C12.75 8.42734 12.4142 8.09156 12 8.09156C11.5858 8.09156 11.25 8.42734 11.25 8.84156V11.3896H8.70006C8.28584 11.3896 7.95006 11.7254 7.95006 12.1396C7.95006 12.5538 8.28584 12.8896 8.70006 12.8896H11.25V15.4344C11.25 15.8486 11.5858 16.1844 12 16.1844C12.4142 16.1844 12.75 15.8486 12.75 15.4344V12.8896H15.2997C15.7139 12.8896 16.0497 12.5538 16.0497 12.1396C16.0497 11.7254 15.7139 11.3896 15.2997 11.3896H12.75V8.84156Z" fill="#E2E4EB"/>
</svg>
