<svg width="18" height="18" viewBox="0 0 18 18" fill="none" xmlns="http://www.w3.org/2000/svg">
<rect width="18" height="18" rx="9" fill="#35383B"/>
<path d="M9.00082 4.38844C10.502 4.38844 10.68 4.39338 11.2732 4.4214C11.822 4.44611 12.1202 4.5384 12.318 4.61585C12.58 4.71801 12.7679 4.83996 12.964 5.03605C13.16 5.23215 13.282 5.42001 13.3842 5.68202C13.4616 5.87976 13.5522 6.17803 13.5786 6.72677C13.605 7.32 13.6116 7.49797 13.6116 8.99918C13.6116 10.5004 13.6066 10.6784 13.5786 11.2716C13.5539 11.8203 13.4616 12.1186 13.3842 12.3163C13.282 12.5783 13.16 12.7662 12.964 12.9623C12.7679 13.1584 12.58 13.2803 12.318 13.3825C12.1202 13.46 11.822 13.5506 11.2732 13.577C10.68 13.6033 10.502 13.6099 9.00082 13.6099C7.49962 13.6099 7.32165 13.605 6.72841 13.577C6.17967 13.5522 5.88141 13.46 5.68366 13.3825C5.42165 13.2803 5.2338 13.1584 5.0377 12.9623C4.8416 12.7662 4.71966 12.5783 4.61749 12.3163C4.54004 12.1186 4.44941 11.8203 4.42304 11.2716C4.39668 10.6784 4.39009 10.5004 4.39009 8.99918C4.39009 7.49797 4.39503 7.32 4.42304 6.72677C4.44776 6.17803 4.54004 5.87976 4.61749 5.68202C4.71966 5.42001 4.8416 5.23215 5.0377 5.03605C5.2338 4.83996 5.42165 4.71801 5.68366 4.61585C5.88141 4.5384 6.17967 4.44776 6.72841 4.4214C7.32165 4.39338 7.49962 4.38844 9.00082 4.38844ZM9.00082 3.375C7.47325 3.375 7.2821 3.38159 6.68227 3.40961C6.0841 3.43762 5.67542 3.53155 5.31619 3.67162C4.94707 3.81333 4.63232 4.00613 4.32088 4.31923C4.00778 4.63232 3.81663 4.94542 3.67162 5.31619C3.5332 5.67378 3.43762 6.08245 3.40961 6.68227C3.38159 7.2821 3.375 7.47325 3.375 9.00082C3.375 10.5284 3.38159 10.7196 3.40961 11.3194C3.43762 11.9176 3.53155 12.3262 3.67162 12.6855C3.81498 13.0529 4.00778 13.3677 4.32088 13.6791C4.63397 13.9922 4.94707 14.1834 5.31784 14.3284C5.67543 14.4668 6.0841 14.5624 6.68392 14.5904C7.28375 14.6184 7.4749 14.625 9.00247 14.625C10.53 14.625 10.7212 14.6184 11.321 14.5904C11.9192 14.5624 12.3279 14.4685 12.6871 14.3284C13.0546 14.185 13.3693 13.9922 13.6808 13.6791C13.9939 13.366 14.185 13.0529 14.33 12.6822C14.4685 12.3246 14.564 11.9159 14.592 11.3161C14.6201 10.7163 14.6266 10.5251 14.6266 8.99753C14.6266 7.46995 14.6201 7.2788 14.592 6.67898C14.564 6.0808 14.4701 5.67213 14.33 5.31289C14.1867 4.94542 13.9939 4.63068 13.6808 4.31923C13.3677 4.00613 13.0546 3.81498 12.6838 3.66997C12.3262 3.53155 11.9176 3.43597 11.3177 3.40796C10.7196 3.38159 10.5284 3.375 9.00082 3.375Z" fill="#9C9EA4"/>
<path d="M9.002 6.11035C7.40686 6.11035 6.11328 7.40393 6.11328 8.99907C6.11328 10.5942 7.40686 11.8878 9.002 11.8878C10.5971 11.8878 11.8907 10.5942 11.8907 8.99907C11.8907 7.40393 10.5971 6.11035 9.002 6.11035ZM9.002 10.8743C7.96713 10.8743 7.12672 10.0356 7.12672 8.99907C7.12672 7.96256 7.96713 7.12379 9.002 7.12379C10.0369 7.12379 10.8773 7.96256 10.8773 8.99907C10.8773 10.0356 10.0369 10.8743 9.002 10.8743Z" fill="#9C9EA4"/>
<path d="M12.0057 6.67254C12.3788 6.67254 12.6813 6.37005 12.6813 5.99692C12.6813 5.62378 12.3788 5.32129 12.0057 5.32129C11.6326 5.32129 11.3301 5.62378 11.3301 5.99692C11.3301 6.37005 11.6326 6.67254 12.0057 6.67254Z" fill="#9C9EA4"/>
</svg>
