<svg width="18" height="18" viewBox="0 0 18 18" fill="none" xmlns="http://www.w3.org/2000/svg">
<rect width="18" height="18" rx="9" fill="#35383B"/>
<path d="M3.10806 8.60259C3.1339 8.59011 3.15975 8.57824 3.18493 8.567C3.62285 8.37095 4.06657 8.18739 4.50965 8.00382C4.53354 8.00382 4.57358 7.97697 4.59618 7.96823C4.63042 7.95387 4.66465 7.94014 4.69889 7.92578C4.76477 7.8983 4.83065 7.87146 4.89588 7.84398C5.02765 7.78966 5.15875 7.73534 5.29051 7.68102L6.07913 7.35447C6.60489 7.13719 7.13129 6.91928 7.65704 6.702C8.1828 6.48472 8.70919 6.26681 9.23494 6.04953C9.76069 5.83225 10.2871 5.61435 10.8128 5.39706C11.3386 5.17978 11.865 4.96188 12.3907 4.74459C12.5076 4.69589 12.6342 4.62346 12.7595 4.60224C12.8648 4.58413 12.9675 4.54917 13.0734 4.52981C13.2743 4.49297 13.4958 4.47799 13.6883 4.55853C13.7548 4.58663 13.8162 4.62596 13.8672 4.67529C14.1114 4.90881 14.0771 5.29217 14.0255 5.62059C13.6657 7.90954 13.3059 10.1991 12.9455 12.4881C12.8965 12.8021 12.8293 13.1468 12.5729 13.3453C12.3559 13.5133 12.0471 13.532 11.7791 13.4608C11.511 13.389 11.2746 13.2386 11.0428 13.0906C10.081 12.475 9.11868 11.8593 8.15696 11.2437C7.92832 11.0976 7.67384 10.9065 7.67642 10.6412C7.67772 10.4813 7.77653 10.339 7.87729 10.2122C8.71306 9.15829 9.91893 8.43401 10.8161 7.42877C10.9427 7.28704 11.0421 7.03105 10.8684 6.94926C10.765 6.90055 10.6462 6.96674 10.5519 7.0298C9.36605 7.82587 8.18086 8.62257 6.99501 9.41865C6.60813 9.67839 6.20251 9.94562 5.73618 10.0093C5.31894 10.0668 4.89912 9.95436 4.49544 9.83948C4.15699 9.74332 3.81919 9.64467 3.48268 9.5429C3.30377 9.4892 3.11904 9.43114 2.98083 9.30938C2.84261 9.18763 2.76317 8.98284 2.84649 8.8205C2.89881 8.71873 3.00021 8.65442 3.10679 8.60197L3.10806 8.60259Z" fill="#9C9EA4"/>
</svg>
