<svg width="18" height="18" viewBox="0 0 18 18" fill="none" xmlns="http://www.w3.org/2000/svg">
<path d="M10.7119 12.1997C10.8 12.1416 10.9217 12.1788 10.9578 12.275L12.326 15.917C12.37 16.0341 12.2591 16.1506 12.1327 16.12L7.09556 14.902C6.96009 14.8694 6.92796 14.6996 7.04287 14.6238L10.7119 12.1997Z" fill="#E2E4EB"/>
<path d="M11.5953 11.3941C11.589 11.3772 11.5858 11.3595 11.5858 11.3416V7.67119C11.5858 7.56737 11.4811 7.49272 11.3768 7.52215L7.06051 8.7395C6.95618 8.76892 6.85156 8.69428 6.85156 8.59046V6.21833C6.85156 6.16987 6.87529 6.12414 6.91569 6.09475L12.5404 2.00411C12.6186 1.94726 12.7313 1.96896 12.7802 2.0503L16.1781 7.69521C16.2021 7.73519 16.2064 7.78332 16.1896 7.82656L13.3289 15.1985C13.2761 15.3345 13.0742 15.3335 13.023 15.197L11.5953 11.3941Z" fill="#E2E4EB"/>
<path d="M5.40921 2.3232C5.43637 2.29781 5.47199 2.2823 5.50988 2.27935L10.7013 1.87527C10.8635 1.86265 10.9427 2.05981 10.8131 2.15382L6.3882 5.36631C6.34724 5.39605 6.29399 5.40555 6.24454 5.39195L3.3307 4.59037C3.21085 4.55739 3.17276 4.41332 3.26188 4.33003L5.40921 2.3232Z" fill="#E2E4EB"/>
<path d="M2.52084 5.39644C2.53325 5.30166 2.63148 5.23991 2.72763 5.26643L5.81574 6.11853C5.88537 6.13774 5.93333 6.19863 5.93333 6.26783V9.71784C5.93333 9.8217 6.03803 9.89631 6.1424 9.86679L10.4287 8.6549C10.5331 8.62539 10.6378 8.70003 10.6378 8.80389V10.9953C10.6378 11.0462 10.6117 11.0939 10.5679 11.1228L5.76023 14.312C5.69756 14.3536 5.61298 14.348 5.55686 14.2986L1.8512 11.0336C1.81261 10.9995 1.79357 10.9499 1.80009 10.9002L2.52084 5.39644Z" fill="#E2E4EB"/>
</svg>
