<svg width="20" height="20" viewBox="0 0 20 20" fill="none" xmlns="http://www.w3.org/2000/svg">
<g clip-path="url(#clip0_1632_2338)">
<path d="M10 20C15.5228 20 20 15.5228 20 10C20 4.47715 15.5228 0 10 0C4.47715 0 0 4.47715 0 10C0 15.5228 4.47715 20 10 20Z" fill="url(#paint0_linear_1632_2338)"/>
<path d="M12.6811 12.097L10.7853 13.3786C10.7797 13.3841 10.6223 13.4884 10.5691 13.5284C10.5158 13.5683 10.5247 13.656 10.5358 13.6948C10.8185 14.5769 10.7354 15.3592 10.7354 15.4923C10.7354 15.6255 10.7354 15.7087 10.8185 15.742C10.885 15.7686 10.946 15.7087 10.9682 15.6754C11.5447 14.7989 12.7376 12.9858 12.8973 12.7461C13.0968 12.4465 12.997 12.2801 12.8973 12.1469C12.8174 12.0404 12.7199 12.0693 12.6811 12.097Z" fill="#E2E4EB"/>
<path d="M8.28098 7.66475L6.94883 9.6851C6.94313 9.691 6.83463 9.8588 6.79328 9.9154C6.75193 9.972 6.66503 9.95995 6.62673 9.94685C5.75803 9.6156 4.97754 9.68395 4.84512 9.68025C4.7127 9.6765 4.62994 9.6742 4.59936 9.5831C4.5749 9.5102 4.63634 9.44575 4.67012 9.4226C5.55938 8.8218 7.39878 7.5786 7.64198 7.41215C7.94598 7.2041 8.10848 7.31695 8.23788 7.4289C8.34138 7.51845 8.30973 7.62345 8.28098 7.66475Z" fill="#E2E4EB"/>
<path fill-rule="evenodd" clip-rule="evenodd" d="M7.77693 9.56723C8.32573 8.65183 9.61623 6.70448 10.3878 6.23848C11.3524 5.65593 12.1506 5.38963 13.0653 5.35633C13.1107 5.35468 13.1552 5.35303 13.199 5.35143C14.0368 5.32036 14.5727 5.3005 14.7782 5.50613C14.9609 5.68903 14.9773 5.96703 14.988 6.14923C14.99 6.18258 14.9918 6.21273 14.9944 6.23848C15.011 6.40488 15.011 8.03598 14.7782 8.60188C14.7539 8.66088 14.7298 8.72133 14.7051 8.78318C14.4934 9.31443 14.2407 9.94838 13.481 10.6491C12.8025 11.2749 11.2803 12.3079 10.604 12.7462L10.4045 12.8793C10.3546 12.9126 10.2382 12.9226 10.1716 12.6962C10.0885 12.4133 9.52308 11.5811 8.84123 10.9819C8.29578 10.5026 7.76028 10.2274 7.56073 10.1497C7.51638 10.1331 7.45428 10.0599 7.56073 9.90008C7.66718 9.74033 7.74923 9.61158 7.77693 9.56723ZM12.8823 6.97053C13.093 7.00383 13.491 7.25348 13.3979 7.71953C13.2815 8.30203 12.9322 8.73478 12.3834 9.25073C11.7734 9.82428 11.2193 10.0829 10.7537 9.84993C10.2881 9.61688 10.4211 8.81798 10.7537 8.40188C11.0863 7.98583 11.7182 7.20353 12.4167 7.02048C12.6864 6.94978 12.8414 6.96408 12.8823 6.97053Z" fill="#E2E4EB"/>
<path d="M8.7237 12.2303C8.35115 11.4314 7.4598 11.498 7.0607 11.6312C6.27905 11.9141 5.7701 14.1848 5.69705 14.4773C5.6139 14.8101 5.85225 14.7547 5.92985 14.7269L6.5618 14.5272C6.9554 14.3996 7.6594 14.1929 8.1084 13.9779C8.52415 13.7789 9.16605 13.179 8.7237 12.2303Z" fill="#E2E4EB"/>
</g>
<defs>
<linearGradient id="paint0_linear_1632_2338" x1="10" y1="0" x2="10" y2="20" gradientUnits="userSpaceOnUse">
<stop stop-color="#5EBEF0"/>
<stop offset="1" stop-color="#0295FD"/>
</linearGradient>
<clipPath id="clip0_1632_2338">
<rect width="20" height="20" fill="white"/>
</clipPath>
</defs>
</svg>
