<svg width="35" height="20" viewBox="0 0 35 20" fill="none" xmlns="http://www.w3.org/2000/svg">
<g clip-path="url(#clip0_1632_2282)">
<path d="M10 20C15.5228 20 20 15.5228 20 10C20 4.47715 15.5228 0 10 0C4.47715 0 0 4.47715 0 10C0 15.5228 4.47715 20 10 20Z" fill="#0088CC"/>
<path fill-rule="evenodd" clip-rule="evenodd" d="M6.93869 6.26957L13.1083 6.26953C13.3265 6.26953 13.5446 6.30159 13.7726 6.40786C14.0458 6.53522 14.1907 6.73597 14.2922 6.88443C14.3001 6.89598 14.3075 6.90789 14.3143 6.92006C14.4337 7.13252 14.4952 7.36191 14.4952 7.60866C14.4952 7.84312 14.4394 8.09856 14.3143 8.32119C14.3132 8.32335 14.3119 8.32543 14.3107 8.32755L10.4129 15.0232C10.3269 15.1709 10.1687 15.2614 9.99787 15.2609C9.82701 15.2603 9.66944 15.1685 9.58454 15.0203L5.75827 8.33891C5.75717 8.3371 5.75607 8.33529 5.75497 8.33345C5.6674 8.18915 5.53198 7.96601 5.50829 7.67804C5.48653 7.41322 5.54605 7.14788 5.67911 6.91782C5.81217 6.68773 6.01249 6.50379 6.25343 6.3912C6.51177 6.27047 6.77357 6.26957 6.93869 6.26957ZM9.52129 7.22606H6.93869C6.76901 7.22606 6.70388 7.23651 6.65834 7.2578C6.59537 7.28719 6.54249 7.33555 6.50713 7.39668C6.47178 7.45785 6.45579 7.52872 6.4616 7.59967C6.46494 7.64033 6.48152 7.68684 6.5793 7.84811C6.58134 7.85149 6.58335 7.85491 6.58531 7.85832L9.52129 12.9851V7.22606ZM10.4778 7.22606V13.0104L13.4818 7.85019C13.5157 7.78859 13.5387 7.69957 13.5387 7.60866C13.5387 7.53492 13.5234 7.47089 13.4892 7.40489C13.4533 7.35331 13.4315 7.326 13.4132 7.3073C13.3976 7.29131 13.3855 7.28275 13.3685 7.27481C13.2974 7.2417 13.2247 7.22606 13.1083 7.22606H10.4778Z" fill="#E2E4EB"/>
<path d="M24.334 0.5C29.5806 0.5 33.834 4.75329 33.834 10C33.834 15.2467 29.5806 19.5 24.334 19.5C19.0872 19.5 14.834 15.2467 14.834 10C14.834 4.75329 19.0872 0.5 24.334 0.5Z" fill="url(#paint0_linear_1632_2282)" stroke="url(#paint1_linear_1632_2282)"/>
<path fill-rule="evenodd" clip-rule="evenodd" d="M18.0941 9.76491C17.7748 8.37149 17.6151 7.67479 17.9845 7.43011C18.3538 7.18543 18.9331 7.60417 20.0916 8.44165L21.239 9.27103C21.3065 9.31981 21.3402 9.34421 21.3751 9.33663C21.41 9.32905 21.4306 9.29285 21.4718 9.22045L23.2214 6.14439C23.715 5.27665 23.9618 4.84277 24.3341 4.84277C24.7063 4.84277 24.9531 5.27665 25.4467 6.14439L27.1963 9.22045C27.2375 9.29285 27.2581 9.32905 27.293 9.33663C27.3279 9.34421 27.3616 9.31981 27.4291 9.27103L28.5765 8.44165C29.735 7.60417 30.3143 7.18543 30.6837 7.43011C31.053 7.67479 30.8933 8.37149 30.574 9.76493L29.9428 12.5191C29.8693 12.8398 29.8326 13.0002 29.7131 13.0701C29.5936 13.1399 29.4313 13.0919 29.1068 12.9959C27.5939 12.5485 25.992 12.3083 24.3341 12.3083C22.7206 12.3083 21.1084 12.5392 19.5614 12.9961C19.2368 13.092 19.0744 13.1399 18.955 13.07C18.8355 13.0002 18.7988 12.8398 18.7253 12.5191L18.0941 9.76491ZM19.6329 12.1432C19.5562 12.1644 19.5178 12.175 19.4885 12.1575C19.4591 12.14 19.4503 12.1014 19.4326 12.0243L18.6839 8.75707C18.644 8.58289 18.624 8.49581 18.6702 8.46521C18.7163 8.43463 18.7888 8.48697 18.9336 8.59165L20.8694 9.99101C20.9247 10.031 20.9524 10.051 20.9589 10.0809C20.9654 10.1108 20.9485 10.1405 20.9148 10.1998L19.8746 12.0284C19.8583 12.0572 19.8501 12.0716 19.8374 12.0815C19.8246 12.0913 19.8085 12.0956 19.7763 12.1042C19.7285 12.117 19.6807 12.13 19.6329 12.1432ZM21.7825 10.651C21.715 10.6022 21.6813 10.5779 21.6464 10.5854C21.6115 10.593 21.5909 10.6292 21.5497 10.7016L21.0745 11.5371C21.0003 11.6676 20.9632 11.7328 20.9924 11.7743C21.0217 11.8158 21.0961 11.8027 21.2449 11.7765C21.6521 11.7048 22.1047 11.6392 22.5929 11.59C22.7758 11.5716 22.8672 11.5624 22.8816 11.5091C22.8959 11.4559 22.822 11.4024 22.6741 11.2955L21.7825 10.651ZM25.994 11.2955C25.8462 11.4024 25.7722 11.4559 25.7866 11.5091C25.8009 11.5624 25.8923 11.5716 26.0752 11.59C26.5634 11.6392 27.016 11.7048 27.4233 11.7765C27.5721 11.8027 27.6465 11.8158 27.6757 11.7743C27.705 11.7328 27.6679 11.6676 27.5937 11.5371L27.1184 10.7016C27.0772 10.6292 27.0567 10.593 27.0218 10.5854C26.9869 10.5779 26.9531 10.6022 26.8856 10.651L25.994 11.2955ZM26.5614 9.72227C26.5951 9.78159 26.612 9.81125 26.6055 9.84117C26.599 9.87109 26.5713 9.89107 26.516 9.93105L24.9878 11.0358C24.8768 11.116 24.8212 11.1562 24.7777 11.1339C24.7341 11.1116 24.7341 11.0431 24.7341 10.9061V7.11455C24.7341 6.87185 24.7341 6.75051 24.7936 6.73475C24.8531 6.71901 24.9131 6.82449 25.0331 7.03545L26.5614 9.72227ZM27.7987 9.99101C27.7434 10.031 27.7157 10.051 27.7092 10.0809C27.7027 10.1108 27.7196 10.1405 27.7534 10.1998L28.7935 12.0284C28.8099 12.0572 28.818 12.0716 28.8308 12.0814C28.8435 12.0913 28.8596 12.0956 28.8918 12.1042C28.9397 12.117 28.9875 12.13 29.0352 12.1432C29.1119 12.1644 29.1503 12.175 29.1796 12.1575C29.209 12.14 29.2178 12.1014 29.2355 12.0243L29.9842 8.75707C30.0241 8.58289 30.0441 8.49581 29.9979 8.46521C29.9518 8.43463 29.8794 8.48697 29.7345 8.59165L27.7987 9.99101ZM23.9341 10.9061C23.9341 11.0431 23.9341 11.1116 23.8905 11.1339C23.8469 11.1562 23.7914 11.116 23.6803 11.0358L22.1521 9.93105C22.0968 9.89107 22.0691 9.87109 22.0626 9.84117C22.0561 9.81125 22.073 9.78159 22.1067 9.72227L23.635 7.03545C23.755 6.82449 23.815 6.71901 23.8745 6.73475C23.9341 6.75051 23.9341 6.87185 23.9341 7.11455V10.9061ZM24.3341 12.7083C26.035 12.7083 27.6755 12.9673 29.2183 13.4479C29.4061 13.5064 29.5 13.5357 29.5597 13.6047C29.586 13.6351 29.6075 13.6724 29.6205 13.7104C29.6501 13.7967 29.6275 13.8953 29.5823 14.0925C29.5272 14.3328 29.4997 14.4529 29.4247 14.5206C29.3903 14.5516 29.3526 14.5733 29.3085 14.5875C29.2124 14.6185 29.0909 14.581 28.8478 14.506C27.4212 14.0655 25.9053 13.8283 24.3341 13.8283C22.7628 13.8283 21.2469 14.0655 19.8203 14.506C19.5772 14.581 19.4557 14.6185 19.3596 14.5875C19.3155 14.5733 19.2778 14.5516 19.2434 14.5206C19.1684 14.4529 19.1409 14.3328 19.0859 14.0925C19.0407 13.8953 19.0181 13.7967 19.0476 13.7104C19.0606 13.6724 19.0821 13.6351 19.1084 13.6047C19.1681 13.5357 19.262 13.5064 19.4498 13.4479C20.9926 12.9673 22.6331 12.7083 24.3341 12.7083Z" fill="#BBEB00"/>
</g>
<defs>
<linearGradient id="paint0_linear_1632_2282" x1="21" y1="-3" x2="34" y2="23.5" gradientUnits="userSpaceOnUse">
<stop offset="0.00151146" stop-color="#393A38"/>
<stop offset="1" stop-color="#272827"/>
</linearGradient>
<linearGradient id="paint1_linear_1632_2282" x1="19.5" y1="2.64896e-07" x2="34" y2="22.5" gradientUnits="userSpaceOnUse">
<stop stop-color="#68696A"/>
<stop offset="0.428781" stop-color="#E6E6E7"/>
<stop offset="1" stop-color="#3A3B3C"/>
</linearGradient>
<clipPath id="clip0_1632_2282">
<rect width="35" height="20" fill="white"/>
</clipPath>
</defs>
</svg>
