<svg width="28" height="28" viewBox="0 0 28 28" fill="none" xmlns="http://www.w3.org/2000/svg">
<path fill-rule="evenodd" clip-rule="evenodd" d="M16.548 20.6581C15.9141 21.7592 15.5971 22.3097 15.2358 22.5727C14.4992 23.1086 13.5012 23.1086 12.7646 22.5727C12.4032 22.3097 12.0862 21.7592 11.4523 20.6581L6.44091 11.9541C5.56355 10.4303 5.12488 9.66838 5.0607 9.05211C4.92989 7.7961 5.62224 6.59857 6.776 6.08522C7.34208 5.83334 8.22126 5.83334 9.97961 5.83334H18.0207C19.7791 5.83334 20.6582 5.83334 21.2244 6.08522C22.3781 6.59857 23.0704 7.7961 22.9396 9.05211C22.8754 9.66838 22.4368 10.4303 21.5594 11.9541L16.548 20.6581ZM12.9501 19.0647L7.6551 9.89337C7.37342 9.4055 7.23259 9.16156 7.21184 8.96427C7.16958 8.56213 7.39106 8.17852 7.76045 8.01407C7.94168 7.93337 8.22336 7.93337 8.78669 7.93337H12.9501V19.0647ZM15.0501 19.0647L20.3453 9.89337C20.6269 9.4055 20.7677 9.16156 20.7885 8.96427C20.8307 8.56213 20.6093 8.17852 20.2399 8.01407C20.0586 7.93337 19.777 7.93337 19.2136 7.93337H15.0501V19.0647Z" fill="#E2E4EB"/>
</svg>
