<svg width="31" height="18" viewBox="0 0 31 18" fill="none" xmlns="http://www.w3.org/2000/svg">
<g clip-path="url(#clip0_80_731)">
<path d="M17.4473 11.1771C16.2644 15.9986 11.4585 18.9328 6.713 17.7305C1.96948 16.5285 -0.918194 11.6448 0.265257 6.82377C1.44767 2.00177 6.25353 -0.932705 10.9976 0.269311C15.7428 1.47133 18.6304 6.35544 17.4473 11.1771Z" fill="#50AF95"/>
<path fill-rule="evenodd" clip-rule="evenodd" d="M9.97798 10.0205C9.91536 10.0252 9.59181 10.0449 8.87004 10.0449C8.29592 10.0449 7.88833 10.0273 7.74532 10.0205C5.52673 9.92129 3.87074 9.5288 3.87074 9.059C3.87074 8.58912 5.52673 8.19722 7.74532 8.09645V9.6296C7.89041 9.64022 8.30584 9.66515 8.87996 9.66515C9.56887 9.66515 9.91386 9.63599 9.97595 9.63014V8.09751C12.1898 8.19775 13.8422 8.59018 13.8422 9.059C13.8422 9.52781 12.1903 9.92021 9.97595 10.0199L9.97798 10.0205ZM9.97798 7.93895V6.56702H13.0676V4.47491H4.65567V6.56702H7.7448V7.93842C5.23394 8.05562 3.3457 8.56101 3.3457 9.16664C3.3457 9.77225 5.23394 10.2772 7.7448 10.3949V14.7912H9.97745V10.3933C12.4826 10.2761 14.3677 9.77117 14.3677 9.1661C14.3677 8.56101 12.4847 8.05668 9.97798 7.93895Z" fill="#E2E4EB"/>
<path d="M21.5547 0.44043C26.1964 0.440583 29.9717 4.26603 29.9717 9C29.9717 13.7339 26.1964 17.5594 21.5547 17.5596C16.9128 17.5596 13.1377 13.734 13.1377 9C13.1377 4.26594 16.9128 0.44043 21.5547 0.44043Z" fill="url(#paint0_linear_80_731)" stroke="url(#paint1_linear_80_731)" stroke-width="0.880597"/>
<path fill-rule="evenodd" clip-rule="evenodd" d="M16.026 8.7879C15.7432 7.53382 15.6017 6.90679 15.9289 6.68658C16.256 6.46637 16.7691 6.84323 17.7952 7.59696L18.8115 8.34341C18.8712 8.38731 18.9011 8.40927 18.932 8.40245C18.9629 8.39562 18.9812 8.36304 19.0177 8.29788L20.5673 5.52943C21.0045 4.74846 21.2231 4.35797 21.5528 4.35797C21.8825 4.35797 22.1011 4.74846 22.5383 5.52943L24.0879 8.29788C24.1244 8.36304 24.1427 8.39562 24.1736 8.40245C24.2045 8.40927 24.2343 8.38731 24.2941 8.34341L25.3104 7.59696C26.3365 6.84323 26.8496 6.46637 27.1768 6.68658C27.5039 6.90679 27.3624 7.53382 27.0796 8.78792L26.5205 11.2667C26.4554 11.5553 26.4229 11.6996 26.3171 11.7626C26.2112 11.8254 26.0675 11.7822 25.7801 11.6958C24.4401 11.2931 23.0213 11.0769 21.5528 11.0769C20.1237 11.0769 18.6958 11.2847 17.3256 11.696C17.0381 11.7823 16.8942 11.8254 16.7885 11.7625C16.6826 11.6996 16.6501 11.5553 16.585 11.2667L16.026 8.7879ZM17.3889 10.9283C17.321 10.9474 17.287 10.957 17.261 10.9412C17.235 10.9255 17.2272 10.8907 17.2115 10.8213L16.5484 7.88084C16.513 7.72408 16.4953 7.64571 16.5362 7.61817C16.5771 7.59065 16.6413 7.63775 16.7695 7.73196L18.4841 8.99139C18.5331 9.02736 18.5576 9.04536 18.5634 9.07227C18.5691 9.09918 18.5542 9.12591 18.5243 9.17928L17.603 10.825C17.5886 10.8509 17.5813 10.8639 17.57 10.8728C17.5587 10.8816 17.5444 10.8855 17.5159 10.8932C17.4736 10.9048 17.4313 10.9165 17.3889 10.9283ZM19.2928 9.58536C19.2331 9.54144 19.2032 9.51957 19.1723 9.52632C19.1414 9.53316 19.1231 9.56574 19.0867 9.6309L18.6658 10.3829C18.6 10.5003 18.5672 10.559 18.593 10.5963C18.619 10.6337 18.6849 10.6219 18.8167 10.5983C19.1773 10.5338 19.5782 10.4747 20.0106 10.4305C20.1726 10.4139 20.2536 10.4056 20.2663 10.3577C20.279 10.3098 20.2135 10.2616 20.0825 10.1654L19.2928 9.58536ZM23.023 10.1654C22.8921 10.2616 22.8266 10.3098 22.8393 10.3577C22.852 10.4056 22.933 10.4139 23.095 10.4305C23.5274 10.4747 23.9282 10.5338 24.289 10.5983C24.4208 10.6219 24.4867 10.6337 24.5125 10.5963C24.5385 10.559 24.5056 10.5003 24.4399 10.3829L24.0189 9.6309C23.9824 9.56574 23.9643 9.53316 23.9334 9.52632C23.9025 9.51957 23.8725 9.54144 23.8127 9.58536L23.023 10.1654ZM23.5256 8.74952C23.5554 8.80291 23.5704 8.8296 23.5646 8.85653C23.5589 8.88346 23.5344 8.90144 23.4854 8.93742L22.1318 9.93168C22.0335 10.0039 21.9843 10.04 21.9457 10.02C21.9071 9.9999 21.9071 9.93825 21.9071 9.81495V6.40257C21.9071 6.18414 21.9071 6.07494 21.9598 6.06075C22.0125 6.04659 22.0657 6.14152 22.1719 6.33138L23.5256 8.74952ZM24.6215 8.99139C24.5725 9.02736 24.548 9.04536 24.5422 9.07227C24.5365 9.09918 24.5514 9.12591 24.5814 9.17928L25.5026 10.825C25.5171 10.8509 25.5243 10.8639 25.5356 10.8727C25.5469 10.8816 25.5611 10.8855 25.5897 10.8932C25.6321 10.9048 25.6744 10.9165 25.7167 10.9283C25.7846 10.9474 25.8186 10.957 25.8446 10.9412C25.8706 10.9255 25.8784 10.8907 25.8941 10.8213L26.5572 7.88084C26.5925 7.72408 26.6103 7.64571 26.5693 7.61817C26.5285 7.59065 26.4644 7.63775 26.336 7.73196L24.6215 8.99139ZM21.1985 9.81495C21.1985 9.93825 21.1985 9.9999 21.1599 10.02C21.1213 10.04 21.0722 10.0039 20.9738 9.93168L19.6202 8.93742C19.5712 8.90144 19.5467 8.88346 19.5409 8.85653C19.5352 8.8296 19.5501 8.80291 19.58 8.74952L20.9336 6.33138C21.0399 6.14152 21.0931 6.04659 21.1458 6.06075C21.1985 6.07494 21.1985 6.18414 21.1985 6.40257V9.81495ZM21.5528 11.4369C23.0593 11.4369 24.5124 11.67 25.8788 12.1026C26.0452 12.1552 26.1283 12.1816 26.1812 12.2437C26.2045 12.2711 26.2236 12.3046 26.2351 12.3388C26.2613 12.4165 26.2413 12.5052 26.2012 12.6827C26.1524 12.899 26.1281 13.0071 26.0617 13.068C26.0312 13.0959 25.9978 13.1154 25.9587 13.1282C25.8736 13.1561 25.766 13.1224 25.5507 13.0549C24.2871 12.6584 22.9445 12.4449 21.5528 12.4449C20.1611 12.4449 18.8185 12.6584 17.5549 13.0549C17.3396 13.1224 17.232 13.1561 17.1468 13.1282C17.1078 13.1154 17.0744 13.0959 17.0439 13.068C16.9775 13.0071 16.9531 12.899 16.9044 12.6827C16.8644 12.5052 16.8444 12.4165 16.8705 12.3388C16.882 12.3046 16.9011 12.2711 16.9244 12.2437C16.9772 12.1816 17.0604 12.1552 17.2267 12.1026C18.5932 11.67 20.0462 11.4369 21.5528 11.4369Z" fill="#BBEB00"/>
</g>
<defs>
<linearGradient id="paint0_linear_80_731" x1="18.6014" y1="-2.7" x2="30.4156" y2="21.0005" gradientUnits="userSpaceOnUse">
<stop offset="0.00151146" stop-color="#393A38"/>
<stop offset="1" stop-color="#272827"/>
</linearGradient>
<linearGradient id="paint1_linear_80_731" x1="17.2729" y1="2.38406e-07" x2="30.408" y2="20.0586" gradientUnits="userSpaceOnUse">
<stop stop-color="#68696A"/>
<stop offset="0.428781" stop-color="#E6E6E7"/>
<stop offset="1" stop-color="#3A3B3C"/>
</linearGradient>
<clipPath id="clip0_80_731">
<rect width="31" height="18" fill="white"/>
</clipPath>
</defs>
</svg>
