<svg width="14" height="14" viewBox="0 0 14 14" fill="none" xmlns="http://www.w3.org/2000/svg">
<g clip-path="url(#clip0_80_796)">
<path d="M10.8817 9.0921L8.3313 10.8145C8.32382 10.822 8.11201 10.9622 8.04045 11.0158C7.96881 11.0695 7.98078 11.1873 7.99572 11.2395C8.37602 12.4251 8.26417 13.4765 8.26417 13.6554C8.26417 13.8343 8.26417 13.9463 8.37602 13.991C8.46548 14.0268 8.54754 13.9463 8.57734 13.9015C9.35288 12.7234 10.9577 10.2866 11.1725 9.96448C11.441 9.5618 11.3067 9.33806 11.1725 9.15913C11.0651 9.01598 10.9338 9.05474 10.8817 9.0921Z" fill="#E2E4EB"/>
<path d="M4.9603 3.13564L3.16821 5.85101C3.16054 5.85895 3.01458 6.08447 2.95895 6.16054C2.90333 6.23661 2.78642 6.22042 2.7349 6.20281C1.56627 5.75761 0.516304 5.84947 0.338165 5.84449C0.160024 5.83945 0.0486837 5.83636 0.00754554 5.71392C-0.0253596 5.61594 0.0572937 5.52933 0.102736 5.49821C1.29903 4.69073 3.77351 3.01985 4.10068 2.79614C4.50964 2.51652 4.72824 2.66819 4.90232 2.81865C5.04156 2.93901 4.99898 3.08013 4.9603 3.13564Z" fill="#E2E4EB"/>
<path fill-rule="evenodd" clip-rule="evenodd" d="M4.28007 5.69216C5.01835 4.46184 6.75442 1.84459 7.79242 1.21827C9.09001 0.435319 10.1638 0.0774088 11.3943 0.0326532C11.4554 0.0304355 11.5153 0.028218 11.5741 0.0260675C12.7012 -0.0156843 13.4221 -0.0423833 13.6986 0.233986C13.9443 0.479806 13.9665 0.853442 13.9809 1.09832C13.9836 1.14314 13.986 1.18367 13.9894 1.21827C14.0118 1.44192 14.0118 3.63414 13.6986 4.39471C13.6659 4.47402 13.6334 4.55526 13.6003 4.63838C13.3155 5.35239 12.9756 6.20442 11.9536 7.14618C11.0408 7.98726 8.99306 9.37563 8.08326 9.96468L7.81482 10.1437C7.74769 10.1884 7.5911 10.2018 7.50157 9.89756C7.38972 9.51729 6.6291 8.39886 5.71184 7.59353C4.97806 6.94928 4.25767 6.57948 3.98922 6.47504C3.92957 6.45273 3.84602 6.35429 3.98922 6.13952C4.13243 5.92481 4.24281 5.75176 4.28007 5.69216ZM11.1482 2.20216C11.4316 2.24691 11.967 2.58245 11.8417 3.20883C11.6852 3.99172 11.2153 4.57334 10.4771 5.26677C9.6564 6.03764 8.91098 6.38527 8.28458 6.07211C7.65823 5.75889 7.83715 4.68515 8.28458 4.12591C8.73202 3.56674 9.5822 2.51531 10.5218 2.2693C10.8845 2.17427 11.0931 2.19349 11.1482 2.20216Z" fill="#E2E4EB"/>
<path d="M5.55594 9.27146C5.05475 8.19771 3.85565 8.28723 3.31876 8.46618C2.26724 8.84647 1.58256 11.8983 1.48429 12.2913C1.37244 12.7387 1.69308 12.6642 1.79747 12.6269L2.64761 12.3585C3.17711 12.187 4.12417 11.9091 4.7282 11.6202C5.28749 11.3528 6.15102 10.5465 5.55594 9.27146Z" fill="#E2E4EB"/>
</g>
<defs>
<clipPath id="clip0_80_796">
<rect width="14" height="14" fill="white"/>
</clipPath>
</defs>
</svg>
